<svg xmlns="http://www.w3.org/2000/svg" xmlns:xlink="http://www.w3.org/1999/xlink" width="170" height="170"><image width="543" height="527" xlink:href="F0769DAA79ED2D50.png" transform="matrix(.24 0 0 .24 19.92 21.36)" overflow="visible"/><path d="M61.622 78.372c.512-6.077 6.757-10.514 13.948-9.907 7.19.606 12.604 6.026 12.091 12.103-.512 6.077-6.848 11.595-14.038 10.988-7.191-.606-12.513-7.107-12.001-13.184z" fill="#ba7071"/><path d="M67.911 78.97c.226-2.678 2.978-4.632 6.146-4.365 3.169.267 5.554 2.655 5.328 5.333-.226 2.679-3.018 5.111-6.186 4.843-3.168-.267-5.514-3.132-5.288-5.811z" fill="#c58686"/><path d="M74.404 94.28s-5.995 3.01-13.044-.952c-7.05-3.962-6.622-13.189-2.654-18.932 0 0-.513-1.983-2.252-1.817-1.74.166-8.049 9.784.848 19.674 7.207 8.01 17.102 2.027 17.102 2.027z" fill="#d38073"/><circle cx="85" cy="85" r="81.765" fill="none" stroke="#c6708b" stroke-width="5" stroke-miterlimit="10"/></svg>