<svg xmlns="http://www.w3.org/2000/svg" xmlns:xlink="http://www.w3.org/1999/xlink" width="170" height="170"><image width="543" height="527" xlink:href="F04C866AD7A587E5.png" transform="matrix(.24 0 0 .24 19.92 21.36)" overflow="visible"/><path d="M61.622 78.372c.512-6.077 6.757-10.514 13.948-9.907 7.19.606 12.604 6.026 12.091 12.103-.512 6.077-6.848 11.595-14.038 10.988-7.191-.606-12.513-7.107-12.001-13.184z" fill="#ba7071"/><path d="M67.911 78.97c.226-2.678 2.978-4.632 6.146-4.365 3.169.267 5.554 2.655 5.328 5.333-.226 2.679-3.018 5.111-6.186 4.843-3.168-.267-5.514-3.132-5.288-5.811z" fill="#c58686"/><path d="M57.899 111.582s-7.908 4.044-17.55-1.963c-9.643-6.007-9.491-19.226-4.429-27.286 0 0-.779-2.868-3.106-2.711-2.328.159-10.354 13.669 2.039 28.267 10.039 11.824 23.046 3.693 23.046 3.693z" fill="#d38073"/><circle cx="85" cy="85" r="81.765" fill="none" stroke="#c6708b" stroke-width="5" stroke-miterlimit="10"/></svg>