<svg xmlns="http://www.w3.org/2000/svg" xmlns:xlink="http://www.w3.org/1999/xlink" width="170" height="170"><image width="559" height="541" xlink:href="F065C79105D084BE.png" transform="matrix(.24 0 0 .24 16.8 19.44)" overflow="visible"/><path d="M109.778 88.7c0 7.341-6.578 13.293-14.692 13.293S80.393 96.041 80.393 88.7s6.578-14.6 14.693-14.6c8.114 0 14.692 7.26 14.692 14.6z" fill="#dc9f9c"/><path d="M108.258 88.591c0 6.266-6.011 11.347-13.426 11.347s-13.426-5.082-13.426-11.347c0-6.268 6.011-12.464 13.426-12.464 7.416 0 13.426 6.196 13.426 12.464z" fill="#ba7071"/><path d="M101.768 88.521c0 2.761-2.649 5-5.916 5-3.268 0-5.916-2.239-5.916-5 0-2.762 2.649-5.493 5.916-5.493 3.266-.001 5.916 2.731 5.916 5.493z" fill="#9d5964"/><circle cx="85" cy="85" r="81.765" fill="none" stroke="#c6708b" stroke-width="5" stroke-miterlimit="10"/></svg>