<svg xmlns="http://www.w3.org/2000/svg" xmlns:xlink="http://www.w3.org/1999/xlink" width="170" height="170"><circle cx="75.449" cy="98.39" r="2" fill="#b55251"/><image width="543" height="527" xlink:href="F06E329DBFDED909.png" transform="matrix(.24 0 0 .24 19.92 21.36)" overflow="visible"/><path d="M61.622 78.372c.512-6.077 6.757-10.514 13.948-9.907 7.19.606 12.604 6.026 12.091 12.103-.512 6.077-6.848 11.595-14.038 10.988-7.191-.606-12.513-7.107-12.001-13.184z" fill="#ba7071"/><path d="M67.911 78.97c.226-2.678 2.978-4.632 6.146-4.365 3.169.267 5.554 2.655 5.328 5.333-.226 2.679-3.018 5.111-6.186 4.843-3.168-.267-5.514-3.132-5.288-5.811z" fill="#c58686"/><circle cx="68.949" cy="105.89" r="2.5" fill="#b55251"/><circle cx="58.949" cy="92.89" r="1.5" fill="#b55251"/><circle cx="63.949" cy="95.89" r="2.5" fill="#b55251"/><circle cx="54.949" cy="86.89" r="2.5" fill="#b55251"/><path d="M43.449 91.39s-2.626-8.57 3-15c7-8 12.28-3.36 15-2 8 4 27.504 12.241 24 21-6 15-4 13-11 18-4.291 3.065-5-2-15-6s-16-16-16-16z" opacity=".51" fill="#b55251"/><circle cx="85" cy="85" r="81.765" fill="none" stroke="#c6708b" stroke-width="5" stroke-miterlimit="10"/></svg>