<svg xmlns="http://www.w3.org/2000/svg" xmlns:xlink="http://www.w3.org/1999/xlink" width="170" height="170"><circle cx="85" cy="85" r="81.765" fill="none" stroke="#c6708b" stroke-width="5" stroke-miterlimit="10"/><image width="573" height="556" xlink:href="F05D5C844BC23077.png" transform="matrix(.24 0 0 .24 16.32 18.24)" overflow="visible"/><path d="M110.004 89.399c0 6.43-6.167 11.644-13.775 11.644-7.608 0-13.776-5.214-13.776-11.644s6.168-12.788 13.776-12.788 13.775 6.358 13.775 12.788z" fill="#ba7071"/><path d="M103.344 89.328c0 2.833-2.718 5.13-6.07 5.13-3.353 0-6.07-2.297-6.07-5.13 0-2.834 2.717-5.637 6.07-5.637 3.352 0 6.07 2.802 6.07 5.637z" fill="#c58686"/></svg>