<?xml version="1.0" encoding="iso-8859-1"?>
<!-- Generator: Adobe Illustrator 23.1.1, SVG Export Plug-In . SVG Version: 6.00 Build 0)  -->
<svg version="1.1" id="Capa_1" xmlns="http://www.w3.org/2000/svg" xmlns:xlink="http://www.w3.org/1999/xlink" x="0px" y="0px"
	 width="170px" height="170px" viewBox="0 0 170 170" style="enable-background:new 0 0 170 170;" xml:space="preserve">
<g>
	<g>
		<g>
			<g>
				
					<image style="overflow:visible;" width="543" height="527" xlink:href="F07F08B733FB819B.png"  transform="matrix(0.24 0 0 0.24 19.92 21.36)">
				</image>
				<path style="fill:#BA7071;" d="M61.622,78.372c0.512-6.077,6.757-10.514,13.948-9.907c7.19,0.606,12.604,6.026,12.091,12.103
					c-0.512,6.077-6.848,11.595-14.038,10.988C66.432,90.95,61.11,84.449,61.622,78.372z"/>
				<path style="fill:#C58686;" d="M67.911,78.97c0.226-2.678,2.978-4.632,6.146-4.365c3.169,0.267,5.554,2.655,5.328,5.333
					c-0.226,2.679-3.018,5.111-6.186,4.843C70.031,84.514,67.685,81.649,67.911,78.97z"/>
			</g>
			<path style="fill:#A2C8B6;" d="M75.449,84.39c0,0-12.743,26.094-8,34c6,10,15,11,18,0c2.434-8.924-10-35-10-35"/>
		</g>
	</g>
	<circle style="fill:none;stroke:#C6708B;stroke-width:5;stroke-miterlimit:10;" cx="85" cy="85" r="81.765"/>
</g>
<g>
</g>
<g>
</g>
<g>
</g>
<g>
</g>
<g>
</g>
<g>
</g>
</svg>
