<svg xmlns="http://www.w3.org/2000/svg" xmlns:xlink="http://www.w3.org/1999/xlink" width="170" height="170"><defs><circle id="a" cx="85" cy="85" r="81.5"/></defs><clipPath id="b"><use xlink:href="#a" overflow="visible"/></clipPath><g clip-path="url(#b)"><path fill="#d8ae9c" d="M109.533 43.199H62.311l8.662-60.085h28.532z"/><path d="M81.814 7.567c5.727 1.266 9.833-1.602 15.127-3.075 2.17-.603 4.325-.168 6.318.822l-3.704-22.199H71.023L68.585.011c3.633 3.394 8.418 6.491 13.229 7.556z" fill="#f2e2d9"/><path d="M144.091-74.994c0 41.692-33.625 71.078-57.761 75.484-23.133-2.229-57.765-33.791-57.765-75.484 0-41.696 22.351-75.497 57.765-75.497 35.418 0 57.761 33.801 57.761 75.497zm13.34 149.717c5.999-9.637 2.444-15.988 2.444-15.988s5.89-11.248-6.208-18.834L98.924 25.969H72.921L18.177 39.902c-12.097 7.586-6.211 20.507-6.211 20.507s.404 5.519 3.825 14.549c0 0 11.675 13.416 13.187 18.045 0 0-11.798 23.316 3.722 38.497l2.038 43.186s1.901 24.665-3.73 35.479c-6.854 13.164-10.15 19.017-14.845 42.094h139.522c-4.694-23.076-17.347-40.174-17.38-54.467-.027-11.664-3.02-22.501-3.02-22.501l3.864-43.79c15.519-15.18 3.716-38.497 3.716-38.497 3.372-5.259 14.566-18.281 14.566-18.281z" fill="#d8ae9c"/><path d="M113.132 136.377c-21.818-11.148-24.081-25.723-22.883-38.189-2.746 1.716-3.766 3.803-6.816-2.557 2.097 18.345-.456 20.37-4.119 24.232-3.8 4.007-10.07 10.989-15.176 13.124-6.289 2.633-12.922 4.877-19.809 4.182-4.282-.431-7.811-3.647-11.575-5.386l3.95 19.796c5.324.618 10.668.783 15.833-1.159 6.269-2.353 12.067-5.654 17.061-10.154 5.04-4.538 10.796-14.295 18.712-12.12 3.383.929 6.016 4.682 8.059 7.236 3.457 4.321 7.06 8.25 11.729 11.329 5.459 3.598 11.537 6.749 18.065 7.799 2.936.476 5.688.378 8.387.009l3.751-18.789c-7.527 4.287-16.678 4.985-25.169.647z" fill="#c69a83"/><path d="M28.977 93.003s-.524 1.427-1.19 3.963c-.645 2.536-1.456 6.197-1.698 10.589-.091 2.192-.106 4.562.251 7.006.371 2.433.918 4.967 1.992 7.377 1.074 2.401 2.48 4.737 4.319 6.798l1.464 1.517c.423.404.992.875 1.531 1.284a24.753 24.753 0 003.507 2.291c4.939 2.68 10.719 3.548 15.904 2.42a27.692 27.692 0 007.268-2.56c2.198-1.158 4.261-2.367 6.01-3.726 1.776-1.314 3.364-2.61 4.694-3.847 1.371-1.196 2.47-2.349 3.42-3.26l2.867-2.993-.604.902c-.403.581-.952 1.47-1.733 2.541-.826 1.034-1.732 2.383-2.988 3.751-1.213 1.404-2.637 2.962-4.37 4.486-1.695 1.565-3.713 3.09-6.004 4.495a30.042 30.042 0 01-7.838 3.345c-2.902.756-6.075.969-9.24.623-3.172-.355-6.282-1.411-9.135-2.884a28.468 28.468 0 01-4.07-2.582 20.646 20.646 0 01-1.881-1.625l-1.603-1.721c-2.061-2.405-3.712-5.124-4.758-7.952-2.141-5.676-2.099-11.39-1.34-15.942a41.302 41.302 0 013.256-10.613c1.116-2.423 1.969-3.683 1.969-3.683zm113.887 0s.88 1.242 2.049 3.643a41.165 41.165 0 013.487 10.544c.855 4.538 1.018 10.262-1.061 15.98-1.016 2.846-2.655 5.584-4.713 7.998-.514.582-1.101 1.19-1.6 1.724a20.69 20.69 0 01-1.883 1.632 28.756 28.756 0 01-4.069 2.587c-2.853 1.477-5.966 2.533-9.137 2.893-3.167.349-6.34.135-9.246-.618a30.032 30.032 0 01-7.844-3.343c-2.292-1.403-4.311-2.93-6.007-4.495-1.734-1.525-3.16-3.084-4.372-4.488-1.257-1.368-2.163-2.718-2.989-3.752-.782-1.072-1.332-1.961-1.735-2.542l-.603-.903 2.868 2.995c.951.911 2.05 2.064 3.422 3.26 1.329 1.239 2.918 2.535 4.696 3.849 1.75 1.358 3.814 2.569 6.014 3.725a27.628 27.628 0 007.273 2.559c5.186 1.124 10.97.254 15.908-2.433a24.943 24.943 0 003.506-2.295c.539-.409 1.11-.884 1.528-1.283l1.462-1.523c1.831-2.064 3.221-4.405 4.267-6.813 1.039-2.422 1.551-4.961 1.876-7.4.313-2.45.242-4.819.107-7.009-.334-4.387-1.228-8.032-1.928-10.555-.723-2.522-1.276-3.937-1.276-3.937z" fill="#c69a83"/><path d="M53.197 116.545c0 3.249-2.529 5.886-5.651 5.886-3.118 0-5.647-2.637-5.647-5.886 0-3.255 2.529-5.891 5.647-5.891 3.122-.001 5.651 2.636 5.651 5.891z" fill="#ddb49d"/><path d="M49.735 116.545a2.187 2.187 0 11-4.374-.004 2.187 2.187 0 014.374.004z" fill="#cea48b"/><path d="M129.707 116.545c0 3.249-2.529 5.886-5.651 5.886-3.118 0-5.646-2.637-5.646-5.886 0-3.255 2.528-5.891 5.646-5.891 3.122-.001 5.651 2.636 5.651 5.891z" fill="#ddb49d"/><path d="M126.246 116.545a2.188 2.188 0 11-2.189-2.19c1.206 0 2.189.983 2.189 2.19z" fill="#cea48b"/><path d="M90.25 202.14c0 2.69-1.481 4.87-3.31 4.87-1.827 0-3.307-2.179-3.307-4.87 0-2.69 1.48-4.87 3.307-4.87 1.828.001 3.31 2.18 3.31 4.87zm-5.14-70.753c.001 7.35.103 14.701.212 22.05.116 7.785.251 15.569.338 23.354.045 3.999.077 7.997.078 11.996 0 .643 1 .645 1 0-.001-7.351-.103-14.701-.212-22.051-.116-7.785-.251-15.569-.338-23.354-.045-3.998-.077-7.997-.078-11.995-.001-.644-1.001-.645-1 0z" fill="#d8ac90"/><path d="M34.737 40.209l.348-.433c.246-.266.618-.686 1.21-1.065 1.145-.814 3.194-1.471 5.603-1.435 2.414-.025 5.15.468 7.963 1.149 1.409.34 2.855.697 4.297 1.098l4.408 1.131c2.993.815 5.95 1.772 8.651 2.892 2.7 1.115 5.16 2.363 7.111 3.723 1.958 1.332 3.396 2.839 3.994 4.138.618 1.313.348 2.15.385 2.128 0 0-.013-.196-.124-.535-.104-.339-.331-.804-.731-1.304-.793-1.013-2.329-2.075-4.335-3.05-2.009-.976-4.472-1.903-7.157-2.78a148.425 148.425 0 00-8.519-2.477 131.677 131.677 0 01-8.653-2.522c-2.717-.842-5.225-1.597-7.404-1.929-2.178-.344-4.009-.179-5.223.288a7.421 7.421 0 00-1.367.665l-.457.318zm100.547 0l-.457-.318a7.249 7.249 0 00-1.366-.665c-1.215-.467-3.046-.633-5.223-.289-2.18.331-4.688 1.087-7.405 1.929a131.933 131.933 0 01-8.653 2.522 148.905 148.905 0 00-8.519 2.476c-2.685.878-5.147 1.804-7.156 2.78-2.006.976-3.542 2.039-4.336 3.051-.398.5-.626.966-.73 1.304-.111.339-.124.535-.124.535.037.022-.232-.816.385-2.128.598-1.299 2.036-2.806 3.994-4.138 1.951-1.361 4.41-2.609 7.11-3.723 2.701-1.12 5.658-2.077 8.652-2.892l4.408-1.131c1.441-.401 2.887-.758 4.296-1.098 2.814-.681 5.55-1.175 7.963-1.15 2.41-.035 4.458.623 5.603 1.436.592.379.964.799 1.21 1.065l.348.434z" fill="#c69a83"/><path d="M154.333-62.189c0 4.34-3.518 7.86-7.855 7.86a7.862 7.862 0 01-7.861-7.86v-11.372a7.86 7.86 0 017.861-7.86 7.856 7.856 0 017.855 7.86v11.372z" fill="#d8ae9c"/><path d="M146.478-82.161a8.518 8.518 0 00-4.866 1.517v1.914c1.277-1.198 2.981-1.95 4.866-1.95 3.922 0 7.114 3.192 7.114 7.119v11.372c0 3.927-3.191 7.117-7.114 7.117a7.106 7.106 0 01-5.543-2.646.738.738 0 00-1.041-.113.749.749 0 00-.113 1.046 8.572 8.572 0 006.697 3.196c4.742 0 8.601-3.859 8.601-8.6v-11.372c0-4.747-3.859-8.6-8.601-8.6z" fill="#d8ae9c"/><path d="M152.414-70.83c.024-2.17-.57-4.173-2.485-5.347-.618-.383-1.846-.496-2.587-.457-3.81.178-6.128 6.875-2.219 7.576 1.596 1.34.324 3.255.324 3.255-1.129 1.689-2.616 4.105-1.968 6.225.382 1.263 1.772 1.807 2.999 1.983.977.148 1.07-.676.27-.987-.609-.23-1.154-.648-1.587-1.118-.045-.068-.088-.137-.137-.202-.044-.048-.076-.098-.113-.146a1.522 1.522 0 01-.147-.942c.923.559 2.362.55 2.926-.383.606-1.022-.104-2.425.024-3.522.089-.774.33-1.511.618-2.233 1.376-3.353-1.811-3.525-1.811-3.525a10.02 10.02 0 00-1.135.231c-1.69-.722-.216-3.496.698-4.021 1.063-.613 2.459-.613 3.368.241.907.859 1.404 2.298 1.472 3.505a12.95 12.95 0 01-.532 4.479c-.253.818-.577 1.781-.837 2.596-.29.933.703 1.204.992.28.614-1.965 1.837-4.872 1.867-7.488z" fill="#d8ae9c"/><g fill="#d8ae9c"><path d="M18.339-62.189a7.861 7.861 0 0015.721 0v-11.372c0-4.344-3.52-7.86-7.861-7.86a7.859 7.859 0 00-7.86 7.86v11.372z"/><path d="M26.198-82.161a8.5 8.5 0 014.861 1.517v1.914c-1.271-1.198-2.975-1.95-4.861-1.95a7.124 7.124 0 00-7.118 7.119v11.372a7.122 7.122 0 007.118 7.117 7.098 7.098 0 005.539-2.646.737.737 0 011.04-.113.739.739 0 01.113 1.046 8.558 8.558 0 01-6.692 3.196c-4.742 0-8.6-3.859-8.6-8.6v-11.372c0-4.747 3.859-8.6 8.6-8.6z"/></g><path d="M32.748-76.827h-2.41c-1.493-6.991-7.525-5.249-7.525-5.249v-43.066c1.662-38.595 33.579-44.912 33.67-44.932.494-.098 2.29-2.936 2.7-3.359 2.545-2.611 5.639-4.771 8.879-6.432 24.513-12.534 63.178-.761 76.41 23.336 2.986 5.44 5.206 11.1 6.762 16.923 1.972 7.375 2.883 15.014 2.961 22.814.104 10.418.217 20.968-1.109 31.324-.03.226-.865 5.027-.672 5.086-7.615-2.372-7.306 3.627-7.306 3.627h-2.882c1.978-22.485-12.036-25.917-12.036-25.917-40.801-4.397-62.851-37.238-62.851-37.238s-34.616.791-34.591 63.083z" fill="#3d342c"/><path d="M155.595 301.649c2.509-12.427 4.429-30.728.089-49.391H16.161s-4.414 23.729-.391 49.391h139.825z" fill="#e5c0a6"/><path d="M19.899 238.611s67.782 18.716 132.042 0c0 0 1.773 4.439 3.25 11.397 0 0-53.995 16.832-66.21 51.641H85.61s-16.952-42.67-69.2-50.552c-.001 0 1.676-9.58 3.489-12.486z" fill="#fff"/><path d="M102.649-99.864c-.455 1.865.781 3.723 2.679 4.006 6.346.949 19.488 3.776 25.1 11.366 0 0-.699-12.039-23.803-17.771a3.28 3.28 0 00-3.976 2.399zm-36.931-.916c.575 1.831-.537 3.766-2.412 4.172-6.27 1.36-19.201 5.037-24.307 12.976 0 0-.086-12.059 22.596-19.282a3.278 3.278 0 014.123 2.134zm32.368 69.291c-5.711-5.895-27.875-6.849-32.83-.305-3.459 4.569 3.799 13.013 18.904 12.966 13.644-.043 17.2-9.282 13.926-12.661z" fill="#3d342c"/><path d="M67.956-23.414c4.307 4.138 9.899 4.291 14.065 4.503 6.058.308 13.471-.975 15.476-5.035-1.861-1.129-15.773-.083-15.773-.083s-11.573-.576-13.768.615z" fill="#c15b63"/><path d="M82.727-74.832S66.813-48.076 78.56-51.665" opacity=".78" fill="none" stroke="#cf8267" stroke-width="7" stroke-linecap="round" stroke-miterlimit="10"/><ellipse cx="59.247" cy="-81.194" rx="5.16" ry="6.363" fill="#3d342c"/><ellipse cx="107.714" cy="-81.194" rx="5.16" ry="6.363" fill="#3d342c"/><g fill="#d8ae9c"><path d="M38.109-36.564l5.039 13.787s.401 2.411 4.333 2.325l9.201.829s2.905-1.183.331-3.384l-9.627-1.495 9.019-.474 7.151-1.373s1.426-.538.929-1.929c0 0-.152-1.636-1.946-1.35l-5.905.946-9.492.246 13.751-2.484s1.567-.033 1.463-1.731c0 0-.104-1.341-2.068-1.061l-13.589 1.956 10.219-2.835s1.618-1.466-1.066-2.631l-8.083 1.421s.232-6.141-5.634-6.958"/><path d="M-54.736-26.877l.75 7.03c2.646 16.271 17.817 8.814 17.817 8.814l75.357-22.583 2.944-9.143-87.191 6.817c0-.001-10.572.289-9.677 9.065z"/><path d="M-29.085-31.547l64.321 81.433c12.583 19.91-2.049 27.88-2.049 27.88-7.841 7.905-18.551-5.379-18.551-5.379L-50.316-11.36s14.881-22.976 21.231-20.187z"/></g><g fill="#d8ae9c"><path d="M135.653-37.584l-5.039 13.787s-.401 2.411-4.333 2.325l-9.201.829s-2.905-1.183-.331-3.384l9.627-1.495-9.019-.474-7.151-1.373s-1.426-.538-.929-1.929c0 0 .152-1.636 1.946-1.35l5.905.946 9.492.246-13.751-2.484s-1.567-.033-1.463-1.731c0 0 .104-1.341 2.068-1.061l13.589 1.956-10.219-2.835s-1.618-1.466 1.066-2.631l8.083 1.421s-.232-6.141 5.634-6.958"/><path d="M228.498-27.897l-.75 7.03c-2.646 16.271-17.817 8.814-17.817 8.814l-75.357-22.583-2.944-9.143 87.191 6.817c0-.001 10.572.289 9.677 9.065z"/><path d="M202.846-32.567l-64.321 81.433c-12.583 19.91 2.049 27.88 2.049 27.88 7.841 7.905 18.551-5.379 18.551-5.379l64.953-83.745c0-.002-14.881-22.978-21.232-20.189z"/></g></g><use xlink:href="#a" overflow="visible" fill="none" stroke="#c6708b" stroke-width="5" stroke-miterlimit="10"/></svg>