<svg xmlns="http://www.w3.org/2000/svg" width="98" height="120"><g fill="#c6708b"><path d="M61.822 1.844c3.576 9.266 1.52 17.725-3.976 25.509-3.952 5.6-8.263 10.946-12.385 16.424-.998 1.328-1.885 2.739-3.139 4.576 2.807 0 5.109.227 7.346-.057 2.818-.363 4.067.998 4.825 3.825-3.595 0-7.11.238-10.577-.07-3.132-.278-4.594.963-5.048 3.879-.148.957-.406 1.896-.701 3.237h18.888v3.903H38.006c.71 2.294 1.18 4.27 1.972 6.103.24.559 1.363 1.014 2.095 1.029 4.004.1 8.012.05 12.248.05-.618 2.497-1.464 4.166-4.384 3.867-2.289-.234-4.616-.05-7.453-.05 1.112 1.682 1.837 3.211 2.953 4.364 1.931 1.997 1.887 3.613-.398 5.175-10.153-7.925-13.68-23.713-7.095-34.884 3.822-6.487 8.779-12.3 13.22-18.422 1.398-1.935 2.772-3.892 4.55-6.391-2.835 0-5.114-.194-7.348.048-2.743.295-4.142-.885-4.829-3.803 3.674 0 7.293-.28 10.845.085 3.058.312 4.179-1.075 4.687-3.656.203-1.035.43-2.069.71-3.405H40.914c-.065-1.391-.116-2.538-.181-3.923H59.85c-.638-2.672-1.208-5.043-1.772-7.414h3.744z"/><path d="M36.147 118.738c-4.408-11.522.109-20.948 6.927-29.895 4.482-5.874 9.091-11.673 13.152-17.831 4.897-7.425 4.886-15.255.282-22.944-1.324-2.215-2.831-4.314-4.264-6.459-.496-.738-1.029-1.448-1.579-2.219l2.39-2.995C58.178 43.2 63.161 49.846 63.558 58.73c.267 5.983-1.883 11.256-5.179 15.989-4.277 6.129-8.991 11.95-13.416 17.984-1.573 2.147-2.96 4.452-4.229 6.793-3.432 6.335-3.39 12.776-.308 19.242h-4.279z"/><path d="M57.543 120.582c.601-1.667 1.236-3.327 1.783-5.013.214-.655.231-1.38.378-2.331H40.973v-3.923h18.978c-.717-2.33-1.208-4.377-2.027-6.284-.227-.524-1.44-.852-2.21-.865-3.988-.085-7.977-.042-12.147-.042.605-2.638 1.719-3.978 4.439-3.718 2.348.223 4.733.044 7.676.044-1.857-2.678-3.353-4.843-4.982-7.195.671-.882 1.409-1.843 2.261-2.96 7.754 9.611 13.728 19.452 8.857 32.287h-4.275zM40.426 0c-4.854 11.271-1.689 17.734 6.82 29.235l-2.309 3.032c-5.513-7.372-11.123-14.489-10.459-24.252.187-2.696 1.094-5.344 1.669-8.015h4.279z"/></g></svg>