<svg xmlns="http://www.w3.org/2000/svg" width="93" height="120"><g fill="#cc6e8c"><path d="M69.859 64.149c-.325.225-.401.467-.401.829.008 8.019 0 16.039.01 24.056.002 2.718-.701 5.203-2.402 7.345-1.865 2.35-4.306 3.644-7.33 3.649-10.448.019-20.895.01-31.339.01-3.568 0-7.134.025-10.7-.006-5.023-.044-9.925-3.998-11.045-8.897a9.59 9.59 0 01-.231-2.09c-.014-9.743-.004-19.485-.004-29.228 0-10.044.002-20.089-.01-30.133-.004-3.986 2.028-7.004 5.838-8.6a14.135 14.135 0 015.521-1.129c11.618.002 23.237 0 34.855 0 2.441 0 4.885-.012 7.332.002 1.573.01 3.101.291 4.523.992 3.281 1.619 4.893 4.347 4.963 7.934.083 4.217.023 8.438.025 12.655v1.108c.509-.356.918-.633 1.317-.922 1.509-1.102 2.964-2.295 4.544-3.287 1.391-.876 2.925-.672 4.391-.033 1.108.484 2.028 1.234 2.832 2.123 1.827 2.011 3.264 4.25 3.845 6.942.3 1.379.281 2.76-.203 4.11-.238.666-.62 1.209-1.224 1.604L69.859 64.149zm-27.872 4.07c1.292-2.084 2.673-4.308 4.093-6.592-.209-.017-.337-.039-.461-.039-5.743 0-11.485 0-17.23.002-1.941 0-3.882.012-5.825-.002-1.319-.008-2.239-.899-2.247-2.127-.006-1.224.928-2.117 2.235-2.14.169-.002.335 0 .504 0 8.254 0 16.507-.002 24.759.004.544 0 1.063.041 1.377-.541.072-.135.25-.217.385-.312 4.356-3.029 8.713-6.057 13.077-9.075.298-.205.401-.42.399-.779-.01-3.816-.004-7.634-.006-11.45 0-2.077.004-4.151-.01-6.227-.012-1.364-.662-2.158-1.997-2.437a6.712 6.712 0 00-1.342-.141c-3.08-.012-6.162-.002-9.24-.002-6.028 0-12.054-.004-18.08-.002-4.872 0-9.745-.006-14.615.012-1.344.006-2.625.302-3.771 1.046-.788.511-1.182 1.201-1.178 2.179.027 5.724.019 11.45.017 17.176l-.002 41.886c0 .333-.002.674.056.999.372 2.024 2.876 3.963 5.114 3.963 4.353.002 8.705-.002 13.056-.002 9.46-.002 18.921-.01 28.378.008 1.358.002 2.292-.595 2.94-1.737.49-.866.674-1.807.672-2.797-.004-6.53-.002-13.058-.004-19.587 0-.159-.016-.318-.029-.537-.147.087-.25.135-.341.198-.91.626-1.803 1.273-2.735 1.869-.399.257-.846.486-1.306.6-3.115.783-6.237 1.53-9.362 2.292-2.534.616-5.069 1.244-7.605 1.854-.891.215-1.676-.012-2.249-.744-.581-.746-.631-1.559-.178-2.398.045-.085.085-.172.182-.362h-1.445c-5.054.002-10.111.013-15.167-.008a3.42 3.42 0 01-1.484-.341c-.825-.418-1.191-1.449-.945-2.336.266-.962 1.095-1.592 2.128-1.592l19.482.219zm29.873-22.02c-6.092 4.234-12.134 8.432-18.222 12.66l5.323 7.667c6.102-4.238 12.143-8.436 18.226-12.664-1.78-2.563-3.533-5.085-5.327-7.663M50.756 62.218c-1.697 2.733-3.353 5.391-5.087 8.182l9.216-2.237-4.129-5.945m30.013-11.333c.271-.182.484-.378.738-.492.815-.366.916-.999.752-1.782-.496-2.336-1.772-4.198-3.498-5.782-.279-.252-.647-.411-.992-.573-.134-.064-.36-.083-.475-.01-.599.385-1.174.806-1.784 1.234 1.772 2.496 3.506 4.933 5.259 7.405"/><path d="M37.904 50.916c-5.137 0-10.276 0-15.415-.002-.951 0-1.627-.449-2.011-1.317-.345-.785-.155-1.712.451-2.321.436-.44.97-.632 1.586-.632 3.967 0 7.932-.004 11.899-.004 6.04-.002 12.083-.002 18.123-.002.285 0 .569-.01.854.002 1.259.046 2.206.982 2.189 2.152-.017 1.214-.976 2.123-2.262 2.125-5.139.004-10.278.002-15.415.002v-.003zm0 32.2c-5.137 0-10.276.002-15.415 0-.951-.002-1.627-.451-2.011-1.319-.345-.785-.155-1.712.451-2.321.436-.438.97-.632 1.586-.632 3.967 0 7.932-.002 11.899-.004l18.123-.002c.285 0 .569-.008.854.002 1.259.046 2.206.982 2.189 2.152-.017 1.214-.976 2.125-2.262 2.125-5.139.004-10.278.002-15.415.002v-.003zm-9.946-41.809c-5.036 0-.05.002-5.087-.004-.333 0-.676-.004-.996-.085C20.86 40.96 20.23 40 20.331 38.93a2.072 2.072 0 012.015-1.881c1.521-.037 3.045-.017 4.566-.017h15.027c.451 0 .903.002 1.354.006 1.313.016 2.253.897 2.261 2.121.006 1.22-.934 2.136-2.235 2.138-3.632.009-7.262.006-10.892.008h-4.469v.002z"/></g><path d="M151.698 16.624c2.189.661 4.223 1.548 5.566 3.524.304.452.525.966.749 1.47 2.462 5.562 4.882 11.142 7.385 16.687 1.862 4.129 1.617 8.227.032 12.336-.908 2.35-2.122 4.533-3.713 6.505-2.209 2.736-4.37 5.509-6.587 8.309 3.022 3.728 6.01 7.431 9.013 11.124 3.58 4.4 7.176 8.789 10.76 13.187 1.111 1.365 1.012 2.174-.357 3.296l-12.401 10.173c-1.561 1.285-2.297 1.227-3.58-.357-5.373-6.636-10.743-13.281-16.114-19.922-.226-.276-.454-.549-.741-.896-.224.25-.424.452-.598.671-5.427 6.767-10.845 13.537-16.273 20.3-1.134 1.41-1.967 1.472-3.375.303-4.113-3.414-8.234-6.819-12.334-10.25-.439-.366-.753-.88-1.124-1.324v-.979l20.511-25.178c-1.263-1.604-2.493-3.162-3.717-4.723-2.208-2.82-4.49-5.588-5.978-8.898-2.101-4.671-2.566-9.336-.349-14.142 2.411-5.226 4.688-10.511 7.03-15.77.276-.62.508-1.276.885-1.832 4.689-6.89 25.31-3.614 25.31-3.614m-25.221 12.084c-.135.271-.179.359-.219.45-1.707 3.903-3.478 7.781-5.08 11.727-.439 1.076-.544 2.363-.499 3.539.155 3.976 1.748 7.454 4.126 10.565 2.747 3.593 5.562 7.136 8.388 10.668 7.118 8.879 14.256 17.743 21.39 26.606 2.023 2.512 4.066 5.005 6.122 7.538l10.606-8.698c-.185-.245-.28-.375-.381-.501-6.731-8.305-13.475-16.601-20.189-24.92-4.523-5.607-9.056-11.21-13.486-16.891-2.381-3.052-4.701-6.172-6.787-9.434-2.013-3.154-3.117-6.744-3.991-10.649M112.38 91.155c3.534 2.919 6.961 5.756 10.457 8.644l16.551-20.645c-2.874-3.576-5.715-7.11-8.589-10.689-6.167 7.593-12.258 15.099-18.419 22.69m45.036-62.268c-1.02 2.813-1.896 5.528-2.981 8.156-1.636 3.965-4.458 7.168-7.056 10.502-1.074 1.378-2.153 2.749-3.229 4.124 2.869 3.599 5.67 7.112 8.475 10.623.058.071.155.108.286.198 1.884-2.374 3.847-4.68 5.616-7.127 1.21-1.673 2.318-3.467 3.173-5.342 1.244-2.732 2.04-5.721.975-8.629-1.549-4.227-3.477-8.32-5.259-12.505m-4.729 2.979c.103-.303.299-.784.422-1.285.374-1.511.833-3.014 1.055-4.55.613-4.208.609-4.903-4.213-6.102-4.854-1.206-9.824-.951-14.753-.342-1.741.215-3.442.683-4.921 1.722-.659.463-.975 1.018-.988 1.873-.052 2.751.79 5.317 1.432 7.934.224.919.689 1.02 1.524.936 2.295-.232 4.6-.508 6.901-.504 4.45.01 8.9.199 13.541.318m-20.236 3.681c2.465 5.005 6.167 8.89 9.402 13.307 3.203-4.437 6.991-8.261 9.366-13.307a99.723 99.723 0 00-18.768 0m98.832 29.204c3.416-.485 5.89-2.251 7.789-4.902 2.363-3.296 3.715-7.061 4.581-10.956a309.28 309.28 0 003.327-17.089c.298-1.809.019-3.786-.353-5.614-.405-2.007-2.247-3.557-4.557-3.376-.695.054-1.397.015-2.096.007-1.061-.013-2.035.065-3.04.631-1.858 1.041-4.257.337-5.502-1.384-1.165-1.609-.988-3.861.415-5.308 1.49-1.539 3.94-1.758 5.771-.602.49.309 1.129.478 1.716.525 1.818.146 3.693-.041 5.453.341 4.666 1.007 7.887 4.949 8.499 9.806.407 3.227-.061 6.356-.617 9.505-.99 5.585-1.833 11.212-3.638 16.605-.902 2.694-1.974 5.371-3.306 7.874-2.801 5.253-7.082 9.239-14.379 10.085 0 0-2.592.887-2.592 2.648-.02.441-.049.763-.049 1.087-.002 5.49-.007 10.983 0 16.473.003 4.132 3.242 7.35 7.391 7.465 2.896.081 5.388-.677 7.201-3.065.931-1.228 1.414-2.614 1.411-4.167-.005-3.071-.007-6.139.002-9.212.02-6.792 5.007-12.616 11.743-13.504 4.347-.573 8.347.131 11.814 2.872 2.526 1.994 4.093 4.485 4.756 7.414a6.553 6.553 0 01-2.925 12.608c-3.293-.227-5.932-2.94-6.08-6.236a6.541 6.541 0 012.682-5.592c-.827-2.874-3.615-4.969-6.638-5.132-2.63-.141-5.041.273-6.958 2.26-1.328 1.373-2.053 2.998-2.051 4.927.003 3.062.007 6.124-.002 9.186-.02 7.328-5.587 13.169-12.904 13.643-5.015.326-9.33-1.043-12.667-4.939-2.119-2.475-3.098-5.39-3.108-8.627-.019-5.358-.005-10.717-.005-16.075v-1.299c0-2.224-2.782-2.63-2.782-2.63-1.082-.182-2.091-.3-3.077-.522-4.963-1.119-8.545-4.115-11.216-8.323-2.816-4.437-4.422-9.362-5.48-14.445a273.274 273.274 0 01-2.884-16.161c-.546-3.735.041-7.389 2.377-10.527 2.121-2.847 5.029-4.249 8.576-4.322a59.541 59.541 0 012.196 0c1.058.015 2.006-.065 2.989-.715 1.758-1.165 4.261-.59 5.581 1.026 1.248 1.526 1.26 3.737.027 5.246-1.35 1.657-3.689 2.087-5.607 1.149-.678-.332-1.473-.485-2.235-.566-.887-.095-1.792-.024-2.691-.022-2.189.003-3.64.983-4.427 3.033-.865 2.255-.773 4.598-.334 6.889 1.129 5.894 2.258 11.794 3.637 17.631.894 3.788 2.37 7.406 4.937 10.452 1.946 2.311 4.415 3.664 7.533 4.001-.001.003 7.13.748 11.796-.077" fill="#cc6e8c"/><g fill="#cc6e8c"><path d="M295.883 89.174c1.411-2.533 2.79-5.085 4.24-7.598 10.061-17.445 20.139-34.882 30.211-52.32.846-1.466 2.073-2.063 3.472-1.667.835.235 1.404.784 1.833 1.531 3.933 6.828 7.88 13.648 11.82 20.472 7.361 12.746 14.701 25.504 22.106 38.221 1.09 1.874.351 4.219-1.738 4.643-.03.005-.053.049-.079.074h-69.402c-.341-.143-.694-.263-1.017-.435-.818-.429-1.167-1.208-1.446-2.027v-.894zm66.464-2.385c-9.8-16.965-19.538-33.824-29.324-50.771l-29.321 50.771h58.645z"/><path d="M329.532 49.244h7.49l-1.323 23.081h-4.844l-1.323-23.081m8.092 29.349c.002 2.437-1.913 4.371-4.336 4.38a4.352 4.352 0 01-4.371-4.357c-.007-2.414 1.944-4.382 4.348-4.389a4.35 4.35 0 014.359 4.366"/></g></svg>