<svg xmlns="http://www.w3.org/2000/svg" width="98" height="120"><path d="M69.769 29.542c-3.626-5.448-8.785-8.539-14.924-8.937-.351-.023-.722-.031-1.079-.048a10.301 10.301 0 003.261-2.037c2.027-1.888 3.199-4.527 3.296-7.425.104-3.149-.824-5.857-2.682-7.831C55.726 1.227 52.95.098 49.619.003c-5.694-.141-10.507 4.458-10.736 10.252-.116 2.879.875 5.605 2.79 7.672 1.11 1.199 2.481 2.068 3.989 2.643-1.205.056-2.458.131-3.782.23-4.348.33-8.232 2.327-11.231 5.78-6.485 7.47-9.912 16.99-10.482 29.105-.133 2.788 1.631 4.877 4.39 5.203 1.591.193 2.981-.278 3.985-1.276-.641 4-1.191 7.628-1.664 11.015-.212 1.51-.286 3.222.753 4.425 1.019 1.184 2.624 1.361 4.203 1.377.774.008 1.545.006 2.369.002l.255 1.243c.228 1.247.448 2.493.666 3.74l.108.606c.566 3.244 1.209 6.918 1.977 10.433.763 3.5 3.083 5.674 6.049 5.674a6 6 0 00.639-.033c1.724-.17 4.668-1.245 5.126-6.51.033.434.073.867.11 1.301.255 2.854 2.004 4.782 4.672 5.155 2.645.392 4.921-.863 6.06-3.328a21.506 21.506 0 001.591-4.995c.62-3.319 1.166-6.555 1.813-10.443l.477-2.836h1.828c2.209-.008 3.736-.1 4.749-1.226.934-1.037.985-2.475.751-4.767a221.02 221.02 0 00-1.34-10.648c.904.799 2.05 1.17 3.44 1.128 1.216-.018 2.301-.504 3.141-1.406 1.083-1.162 1.62-2.888 1.512-4.856-.52-9.415-3.229-17.867-8.058-25.121m3.267 28.273c-1.099 0-1.772-.465-2.344-2.799-.848-3.438-1.842-6.887-2.809-10.255l-.071-.245a665.61 665.61 0 01-1.11-3.902l-.413-1.475-3.742.975.334 1.469c.295 1.311.608 2.62.921 3.927.674 2.827 1.371 5.746 1.867 8.64 1.029 5.964 1.784 11.395 2.311 16.627.176 1.774.085 2.247.056 2.328-.208.139-1.035.214-2.473.22h-4.446l-.919 5.437c-.564 3.398-1.149 6.916-1.803 10.379a18.279 18.279 0 01-1.353 4.261c-.56 1.209-1.519 1.749-2.805 1.554-1.205-.168-1.88-.958-2.006-2.35-.315-3.525-.533-7.078-.751-10.605-.089-1.44-.18-2.879-.276-4.325-.044-.641-.1-1.286-.155-1.925l-.201-2.38-3.666.195-.463 6.607c-.255 3.678-.51 7.358-.79 11.032-.278 3.585-1.724 3.732-2.342 3.792-2.249.209-3.056-1.915-3.34-3.209-.743-3.404-1.357-6.912-1.952-10.306a498.62 498.62 0 00-.774-4.367l-.689-3.799h-1.301l-1.371.004c-.803.004-1.552.008-2.296-.002-1.616-.016-1.863-.284-1.873-.297-.01-.012-.259-.324-.029-1.965 1.102-7.883 2.425-15.754 3.452-21.73.313-1.826.799-3.684 1.267-5.481.224-.857.446-1.712.658-2.572l.34-1.409-3.593-1.143-1.539 4.867c-.875 2.753-1.749 5.502-2.585 8.265-.276.915-.467 1.854-.635 2.684a43.69 43.69 0 01-.357 1.635c-.311 1.272-.927 1.755-2.048 1.627-1.133-.135-1.701-.815-1.647-1.969.537-11.391 3.717-20.291 9.725-27.207 2.452-2.824 5.601-4.456 9.111-4.72 4.927-.369 8.908-.429 12.532-.195 5.205.34 9.422 2.882 12.536 7.56 4.514 6.783 7.051 14.71 7.539 23.564.062 1.1-.187 2.035-.68 2.568a1.225 1.225 0 01-.915.413l-.087.002M49.327 3.111l.205.004c2.487.07 4.506.859 5.844 2.28 1.276 1.359 1.913 3.294 1.836 5.599-.069 2.06-.888 3.925-2.307 5.251-1.458 1.353-3.46 2.043-5.58 1.973-2.097-.075-4.004-.929-5.369-2.406-1.348-1.456-2.043-3.385-1.96-5.433.157-4.009 3.445-7.268 7.331-7.268" fill="#c6708b"/></svg>