<svg xmlns="http://www.w3.org/2000/svg" width="120" height="120"><g fill="none" stroke-miterlimit="10"><path d="M65.155 32.09c1.388-1.748 2.315-3.518 3.757-4.602 2.863-2.15 6.794-.699 8.063 2.839.61 1.7 1.257 3.13 2.628 4.5 1.204 1.203 1.766 3.351 1.992 5.159.323 2.583.082 5.237.082 7.926 6.212 1.13 7.135 2.002 8.179 8.097 2.121-.67 2.673.42 2.911 2.366 1.263 10.357-1.601 18.786-10.721 24.686-1.072.693-1.592 2.762-1.725 4.25-.162 1.81-.938 2.689-2.504 3.213-11.872 3.971-23.743 3.969-35.653.129-1.803-.581-2.484-1.787-2.647-3.454-.255-2.612-1.447-4.359-3.648-6.027-7.899-5.988-9.826-14.405-8.565-23.768.391-2.903 2.614-4.654 6.974-6.366-1.405-1.771-3.027-3.405-4.158-5.328-2.052-3.487-1.5-5.459 1.669-8.021.353-.285.531-.91.59-1.401.056-.472-.218-.973-.228-1.464-.05-2.427.403-4.697 2.704-6.018 2.233-1.283 4.43-.655 6.254.82 1.495 1.209 2.629 1.419 4.563.697 3.816-1.425 8.189 1.808 9.163 6.22.171.776.749 1.461 1.139 2.189.379-.651.858-1.264 1.12-1.959 1.344-3.577 3.394-4.754 8.061-4.683zM81.11 59.294c.648-.021 1.296-.032 1.943-.064 2.794-.138 4.211-1.956 3.803-4.872-.372-2.659-2.139-3.781-4.319-3.304-.486 2.941-.929 5.622-1.363 8.313l-8.404 5.317c6.259 1.041 8.518-.54 8.34-5.39zm8.848-.305c-.464.149-1.085.155-1.358.466-1.828 2.083-5.181 2.271-6.26 5.487-.374 1.115-2.443 2.181-3.833 2.322-2.571.261-5.215-.154-7.825-.334-.972-.067-1.934-.263-2.901-.402-2.989-.429-5.982-.832-8.964-1.304-1.048-.166-2.063-.692-3.105-.728-8.442-.292-16.616-1.857-24.503-4.904-.429-.166-.929-.15-1.509-.235-.096.704-.218 1.263-.243 1.827-.458 10.102 4.943 18.42 14.662 21.55 4.36 1.404 9.081 1.677 13.626 2.527 1.219.228 3.433-.723 3.309 1.402-.117 1.999-2.305 1.227-3.499 1.088-5.205-.604-10.384-1.435-16.234-2.278.928 1.113 1.534 2.583 2.517 2.906 10.724 3.53 21.499 3.427 32.257.026 1.587-.502 2.071-1.469 1.431-3.091-1.476.38-2.896.902-4.355 1.057-.757.08-1.583-.489-2.378-.765.58-.555 1.066-1.331 1.758-1.626 2.506-1.069 5.227-1.708 7.603-2.995 7.909-4.283 12.108-13.85 9.804-21.996zm-33.734 2.947c-4.049-4.984-3.866-7.482.274-11.353.375-.351.749-.967.722-1.437-.116-1.974-.217-3.979-.681-5.886-.184-.757-1.284-1.808-1.992-1.827-2.235-.06-2.551-.963-2.319-2.992.265-2.321-1.017-4.12-3.061-5.269-1.823-1.024-3.289-.365-4.677.982-1.447 1.405-2.284.171-3.225-.831-1.374-1.463-2.969-3.204-5.095-1.967-1.964 1.143-1.309 3.341-.943 5.219.032.162.087.32.144.476.616 1.707.474 2.89-1.749 3.08-1.879.161-2.551 1.53-1.63 2.988 1.244 1.968 2.974 3.623 4.416 5.475.58.744 1.5 1.804 1.32 2.462-1.015 3.723.661 6.064 3.571 7.914 4.443 2.827 9.542 2.127 14.925 2.966zm14.53.482c-4.184-4.143-5.113-7.185-3.496-10.792 1.594-3.557 4.338-4.72 9.789-4.305.51.039 1.535-.634 1.541-.989a92.24 92.24 0 00-.247-8.576c-.044-.57-.835-1.473-1.371-1.544-1.983-.263-2.015-1.628-2.126-3.079-.151-1.97-.797-3.815-3.086-3.792-2.194.022-2.996 1.78-3.255 3.753-.043.328-.026.663-.053.994-.123 1.513-.796 2.043-2.324 1.479-4.5-1.659-6.953.123-6.776 5.025.08 2.225.742 4.441.716 6.656-.028 2.39 1.071 3.184 3.254 3.293.187-.624.319-1.184.522-1.717 1.295-3.406 2.55-6.829 3.966-10.184.241-.571 1.201-.839 1.829-1.247.259.738.554 1.466.757 2.218.076.279-.063.616-.033.387l2.889 2.25c-.913.501-1.923.884-2.715 1.533-1.106.904-2.486 1.836-2.966 3.062-.864 2.206-1.576 4.64-1.58 6.98-.007 4.261-1.049 7.549-6.171 8.798 4.043 1.611 7.39 2.016 10.936-.203zm8.466-7.514c-.054-2.878-2.087-4.859-4.891-4.764-2.647.09-4.599 2.177-4.545 4.858.058 2.836 2.122 4.855 4.901 4.793 2.597-.058 4.585-2.201 4.535-4.887zm-19.689 4.563c1.837.043 3.309-1.38 3.361-3.249.052-1.859-1.334-3.395-3.153-3.497-1.922-.107-3.489 1.424-3.48 3.403.007 1.881 1.396 3.299 3.272 3.343zm-28.582-3.564l.199.737 4.762 1.672-1.708-4.527-3.253 2.118z" stroke="#cc6e8c"/><path d="M89.958 58.989c2.305 8.146-1.895 17.713-9.807 21.997-2.377 1.287-5.097 1.926-7.603 2.995-.691.295-1.177 1.071-1.758 1.626.795.276 1.621.845 2.378.765 1.459-.155 2.879-.677 4.355-1.057.64 1.622.156 2.589-1.431 3.091-10.757 3.401-21.533 3.504-32.257-.026-.983-.324-1.589-1.793-2.517-2.906 5.85.844 11.029 1.674 16.234 2.278 1.193.138 3.382.911 3.499-1.088.124-2.125-2.09-1.174-3.309-1.402-4.545-.85-9.265-1.123-13.626-2.527-9.719-3.13-15.12-11.447-14.662-21.55.026-.564.147-1.123.243-1.827.58.085 1.08.069 1.509.235 7.887 3.046 16.061 4.612 24.503 4.904 1.041.036 2.056.562 3.105.728 2.982.472 5.975.874 8.964 1.304.967.139 1.929.335 2.901.402 2.61.18 5.254.596 7.825.334 1.391-.141 3.459-1.207 3.833-2.322 1.079-3.216 4.432-3.404 6.26-5.487.276-.312.897-.318 1.361-.467z" stroke="#c6708b"/><path d="M56.224 61.936c-5.383-.839-10.482-.139-14.927-2.965-2.909-1.85-4.585-4.191-3.571-7.914.179-.658-.741-1.718-1.32-2.462-1.442-1.851-3.172-3.507-4.416-5.475-.921-1.458-.249-2.827 1.63-2.988 2.223-.191 2.365-1.374 1.749-3.08a3.34 3.34 0 01-.144-.476c-.366-1.878-1.022-4.077.943-5.219 2.126-1.237 3.722.505 5.095 1.967.941 1.002 1.778 2.236 3.225.831 1.388-1.348 2.854-2.007 4.677-.982 2.044 1.149 3.326 2.948 3.061 5.269-.232 2.03.084 2.932 2.319 2.992.707.019 1.807 1.069 1.992 1.827.464 1.907.565 3.912.681 5.886.028.469-.347 1.086-.722 1.437-4.138 3.87-4.321 6.368-.272 11.352zm-7.645-11.93l-.791.055c-.164-.904-.51-1.821-.451-2.711.097-1.479.55-2.933.655-4.412.043-.61-.427-1.257-.664-1.887-.66.328-1.489.51-1.935 1.025-.481.555-.602 1.42-.922 2.259-.359-.314-.517-.512-.723-.622-.832-.446-1.679-.864-2.52-1.293.064 1.013-.154 2.161.253 3.011.802 1.676 1.95 3.187 3.055 4.923-1.431.539-2.669.825-3.688 1.462-.533.333-.679 1.283-1 1.955.636.225 1.466.826 1.877.615 3.695-1.902 6.108-.571 7.818 2.841.073.146.168.356.293.39.707.194 1.426.344 2.141.509.09-.675.33-1.372.236-2.02-.173-1.188-.816-2.358-.767-3.515.076-1.801.68-3.576.826-5.381.059-.723-.501-1.495-.78-2.245-.653.502-1.565.874-1.9 1.537-.538 1.067-.695 2.326-1.013 3.504zm22.175 12.412c-3.546 2.219-6.893 1.815-10.936.204 5.122-1.249 6.163-4.537 6.171-8.798.004-2.34.716-4.773 1.58-6.98.48-1.226 1.861-2.158 2.966-3.062.793-.648 1.802-1.031 2.715-1.533l-2.889-2.25c-.03.229.108-.108.033-.387-.204-.753-.499-1.48-.757-2.218-.628.408-1.588.675-1.829 1.247-1.417 3.355-2.671 6.779-3.966 10.184-.203.533-.334 1.093-.522 1.717-2.183-.11-3.283-.903-3.254-3.293.026-2.215-.636-4.43-.716-6.656-.176-4.902 2.276-6.684 6.776-5.025 1.529.564 2.201.033 2.324-1.479.027-.331.01-.666.053-.994.259-1.973 1.061-3.731 3.255-3.753 2.29-.023 2.935 1.822 3.086 3.792.111 1.451.143 2.816 2.126 3.079.536.071 1.327.974 1.371 1.544a92.24 92.24 0 01.247 8.576c-.006.355-1.031 1.027-1.541.989-5.451-.415-8.195.748-9.789 4.305-1.617 3.606-.688 6.648 3.496 10.791z" stroke="#c6708b"/><path d="M79.22 54.904c.05 2.686-1.939 4.829-4.535 4.887-2.778.062-4.843-1.957-4.901-4.793-.055-2.681 1.898-4.769 4.545-4.858 2.804-.095 4.838 1.886 4.891 4.764zm-1.256-1.284c-1.01-.726-1.645-1.532-2.177-1.47-.566.066-1.401.935-1.434 1.494-.028.47.894 1.349 1.455 1.401.542.05 1.161-.724 2.156-1.425zm-18.433 5.847c-1.876-.044-3.265-1.462-3.273-3.343-.009-1.978 1.558-3.51 3.48-3.403 1.819.101 3.205 1.638 3.153 3.497-.051 1.868-1.524 3.292-3.36 3.249zm21.634-.11l1.372-8.303c2.18-.477 3.948.645 4.319 3.304.408 2.916-1.009 4.734-3.803 4.872-.647.032-1.295.043-1.943.064l.055.063z" stroke="#c6708b"/><path d="M81.11 59.294c.178 4.85-2.081 6.431-8.34 5.389 3.011-1.905 5.707-3.611 8.399-5.322l-.059-.067zm-50.161-3.391l3.253-2.117 1.708 4.527-4.762-1.672-.199-.738zm17.63-5.897c.318-1.178.475-2.437 1.013-3.504.335-.663 1.247-1.035 1.9-1.537.278.75.839 1.523.78 2.245-.147 1.805-.75 3.58-.826 5.381-.049 1.157.595 2.327.767 3.515.094.648-.146 1.345-.236 2.02-.715-.165-1.434-.314-2.141-.509-.125-.034-.22-.244-.293-.39-1.71-3.412-4.123-4.743-7.818-2.841-.411.212-1.241-.39-1.877-.615.321-.672.468-1.622 1-1.955 1.019-.637 2.257-.924 3.688-1.462-1.105-1.736-2.253-3.247-3.055-4.923-.406-.849-.189-1.998-.253-3.011.841.429 1.688.847 2.52 1.293.205.11.364.308.723.622.32-.838.441-1.704.922-2.259.446-.514 1.275-.696 1.935-1.025.237.63.707 1.277.664 1.887-.105 1.479-.558 2.934-.655 4.412-.059.89.287 1.806.451 2.711l.791-.055zm29.385 3.614c-.995.701-1.614 1.475-2.157 1.426-.561-.052-1.483-.931-1.455-1.401.034-.559.868-1.428 1.434-1.494.533-.063 1.168.743 2.178 1.469z" stroke="#c6708b"/></g><path d="M193.168 39.901s-5.417-2.337-12.526 2.217c-7.55 4.833-6.109 18.002-2.03 21.117-2.585-5.355-3.506-15.477 5.549-13.582 0 0-2.858 27.863-24.566 41.027 6.397.746 21.164-9.72 28.565-21.772 8.666 2.916 6.839 4.066 6.839 4.066L184.922 88.74s22.393-14.429 21.108-17.945c-1.578-4.619-12.866-9.515-12.866-9.515l3.139-7.502s3.59.841 5.216-.286c4.005-2.776 3.634-4.775 3.634-4.775s-6.998 3.662-7.76-3.542c-.442-4.173-4.225-5.274-4.225-5.274zm6.858-5.703a4.789 4.789 0 00-9.576-.136 4.788 4.788 0 009.576.136z" fill="none" stroke="#cc6e8c" stroke-width="2" stroke-miterlimit="10"/><path d="M334.558 36.434c-4.466-5.069-12.618-3.096-18.661-3.165-1.991-2.89-5.413-4.465-9.75-4.951-4.06-.154-7.918 1.951-10.199 5.191-4.261-.035-8.612-.345-12.857-.009-2.32.184-4.601.664-6.174 2.48-1.604 1.851-2.212 4.54-2.375 6.921-.249 3.647-.231 7.375-.369 11.036-.154 4.083.166 8.161.068 12.247-.115 4.764-.472 9.538-.216 14.304.212 3.946.724 9.264 5.278 10.251 7.621 1.653 16.403.671 24.151.552 8.256-.127 16.535.463 24.781-.099 6.183-.421 8.842-2.038 8.868-8.565.035-8.605-.033-17.211.105-25.817.1-6.201 1.816-15.306-2.65-20.376zm-28.411-6.457c5.464.611 9.747 3.416 10.005 9.307.261 5.975-3.957 11.256-10.17 11.222-5.515-.03-10.457-4.776-10.469-10.401-.013-5.682 5.071-10.339 10.634-10.128zm29.463 23.634c-.126 6.487-.153 12.974-.168 19.462-.007 2.984-.001 5.968.002 8.952.001 1.353.201 3.207-.314 4.466-1.275 3.112-4.922 2.931-7.589 3.091-6.197.371-12.411.089-18.612.031-6.216-.059-12.431.275-18.647.117-2.926-.074-6.056-.028-8.95-.462-3.893-.583-4.969-3.2-5.459-6.583-.963-6.653.135-13.609.065-20.301-.066-6.346-.044-12.686.254-19.029.249-5.293 2.924-8.007 8.327-8.245 3.471-.152 6.971-.003 10.451.046a11.09 11.09 0 00-1.115 4.326c-.312 6.653 5.505 12.859 12.219 12.83 6.724-.029 11.867-5.863 11.753-12.344-.034-1.946-.396-3.62-1.027-5.054 2.024-.013 4.047-.118 6.071-.074 2.634.057 6.214-.428 8.507.982 5.642 3.469 4.343 12.106 4.232 17.789z" fill="#cc6e8c"/><path d="M304.191 39.309c1.124.846 2.469.951 3.352-.284.667-.933.635-2.017.024-2.85a.76.76 0 00-.101-.297c.5-1.37.988-2.744 1.474-4.118.399-1.128-1.392-1.613-1.789-.493a460.89 460.89 0 01-1.409 3.937c-2.063.059-3.692 2.495-1.551 4.105zm1.604-2.274c.074.041.149.082.233.105.016.013.022.03.039.042.565.411-.433 1.452-.931.48-.239-.465.23-.655.659-.627zm27.257 24.821c.103-2.933.713-7.027-.299-9.841-.695-1.932-2.22-3.057-4.182-3.348-2.203-.327-6.752-.484-8.855.593-1.036.531-1.809 2-2.639 2.749-1.851 1.669-4.257 2.79-6.645 3.454-6.079 1.69-11.923-.353-16.552-4.357-2.687-2.398-10.097-2.462-13.18-.952-4.129 2.022-2.725 7.718-2.623 11.392.193 6.936-.716 14.517.485 21.361.552 3.149 2.06 4.869 5.218 5.467 4.054.768 8.788.639 12.93.828 4.276.195 8.56.01 12.831-.21 3.928-.202 7.856-.463 11.79-.507 3.135-.036 6.134.669 8.874-1.08 4.539-2.896 2.983-8.737 2.788-13.401-.17-4.064-.084-8.086.059-12.148zm-2.114 21.775c-1.261 3.196-4.085 2.886-7.148 2.994-7.588.267-15.22.771-22.813.796-3.728.012-7.375-.412-11.085-.643-3.362-.209-7.956.888-9.305-3.124-.995-2.96-.517-6.793-.48-9.88.042-3.544-.023-7.075-.126-10.618-.103-3.514-1.718-9.782 2.432-11.531 2.182-.92 8.352-.817 10.155.793 4.148 3.587 9.325 6.049 14.957 5.508 2.621-.252 5.319-1.11 7.639-2.351 2.387-1.276 4.186-4.074 6.735-4.878 1.121-.353 3.485-.299 4.592-.156 2.341-.483 3.902.731 4.683 3.642.06.85.093 1.702.098 2.554.071 3.689-.244 7.368-.28 11.055-.034 3.527.234 7.041.323 10.565.047 1.767.283 3.601-.377 5.274zM298.07 36.914c.19-2.217 1.309-4.571 3.308-5.68 1.044-.579.11-2.182-.936-1.602-2.595 1.439-3.982 4.417-4.227 7.281-.102 1.191 1.753 1.184 1.855.001z" fill="#c6708b"/><path d="M296.96 38.816c-1.193 0-1.196 1.855 0 1.855 1.194 0 1.196-1.855 0-1.855z" fill="none" stroke="#c6708b" stroke-width="3" stroke-miterlimit="10"/><path d="M449.806 45.903c-3.674-4.292-7.529-4.036-11.87-1.755.004-.975-.055-1.911-.261-2.726a3.965 3.965 0 00-.793-1.598c4.664-3.738.387-11.944-5.256-10.072-.72-1.904-2.811-3.349-4.753-3.696-2.527-.451-4.324.838-6.117 2.342-3.753-5.527-13.889-1.804-13.57 4.75-3.288.006-4.557 3.38-2.169 5.393-.6.451-1.027 1.088-1.161 2.013-.003.018.004.033.003.05-.01.051-.03.094-.03.152.094 14.488-.268 29.007.291 43.488.045 1.17-.162 2.649.779 3.538 1.474 1.393 5.017 1.184 6.922 1.386a92.519 92.519 0 0021.486-.239c4.789-.612 3.7-3.334 3.825-7.769.006-.228.014-.455.021-.683 2.641 1.492 6.72 1.637 9.172.196 5.459-3.21 5.96-10.891 6.305-16.515.33-5.393.986-13.804-2.824-18.255zm-44.454-5.037c.688-2.731 13.229-1.503 15.723-1.494 3.826.015 9.635-.93 13.205.574 2.295.967 2.169 3.893 1.966 6.466-5.98-.614-11.937-.75-17.944-.46-4.304.208-8.654-.381-12.937.087-.004-1.724-.002-3.449-.013-5.173zm32.288 13.182c.153.026.32.008.492-.106 1.998-1.323 5.357-1.132 6.229 1.27.536 1.477.486 3.802.515 5.388.039 2.112-.343 4.559-.637 6.683-.264 1.908-.495 4.261-2.634 4.877-1.328.383-2.988.221-4.185-.438.118-3.958.218-7.916.233-11.873.007-1.934-.003-3.868-.013-5.801zm-29.796-19.335c.584.117 1.061-.347.936-.936-1.237-5.853 8.484-9.142 11.122-3.832.234.471.849.449 1.195.154 1.293-1.099 2.742-2.561 4.566-2.642 1.939-.086 4.412 1.535 4.713 3.528.078.515.73.655 1.118.455 4.709-2.429 7.762 4.753 4.115 7.398-1.234-.605-2.808-.711-4.281-.814-5.633-.395-11.358-.19-16.999-.132-1.867.019-5.176-.618-7.586-.093-1.061-.905-1.156-3.536 1.101-3.086zm26.732 52.52c-.942.744-5.057.593-6.441.692a91.825 91.825 0 01-15.576-.199c-1.704-.168-4.271.109-5.688-.744-1.805-1.088-1.245-3.211-1.289-4.99-.281-11.478-.199-22.96-.214-34.44 4.703-.596 9.655.059 14.39-.15 5.473-.241 10.93-.035 16.376.521-.016.269-.028.531-.029.775-.016 3.245.027 6.49.026 9.734-.002 6.59-.254 13.179-.44 19.766-.064 2.329.861 7.474-1.115 9.035zm16.602-24.483c-.174 4.435-.346 9.729-2.725 13.612-2.14 3.494-7.79 5.299-11.247 2.329l.162-5.325c2.08.807 5.081.779 6.755-.65.949-.81 1.295-2.133 1.501-3.297.459-2.591.784-5.529.806-8.182.018-2.236.227-6.751-1.52-8.442-1.721-1.667-5.29-1.45-7.276-.313-.003-.802-.009-1.605-.009-2.407.001-1.233.155-2.696.249-4.159 2.304-1.35 4.578-2.616 7.27-1.598 2.196.831 3.908 2.742 4.763 4.858 1.615 3.992 1.438 9.324 1.271 13.574z" fill="#cc6e8c"/><path d="M420.314 50.521c-2.098.814-1.946 5.1-2.086 6.771-.343 4.079-.608 8.173-.635 12.268.001 1.891-.953 15.856 3.698 14.037 1.773-.693 1.408-3.602 1.483-5.062.246-4.806.495-9.613.695-14.421.064-1.547 1.088-15.238-3.155-13.593zm1.602 14.278c-.216 4.882.173 10.37-.732 15.166.102.595-.054 1.104-.468 1.527-.354.913-.584.838-.69-.226-.641-.976-.639-3.423-.723-4.366-.219-2.438-.185-4.895-.186-7.34.029-4.459.276-8.95.732-13.386.099-.961-.229-3.633 1.464-3.245.542.124.64 3.274.688 3.852.218 2.651.032 5.366-.085 8.018zm-10.805-14.278c-2.098.814-1.946 5.1-2.086 6.771-.343 4.079-.608 8.173-.635 12.268.001 1.891-.953 15.856 3.698 14.037 1.773-.693 1.408-3.602 1.483-5.062.246-4.806.494-9.613.695-14.421.064-1.547 1.088-15.238-3.155-13.593zm1.601 14.278c-.216 4.882.173 10.37-.732 15.166.102.595-.054 1.104-.468 1.527-.354.913-.584.838-.69-.226-.641-.976-.639-3.423-.723-4.366-.219-2.438-.185-4.895-.186-7.34.029-4.459.276-8.95.732-13.386.099-.961-.229-3.633 1.464-3.245.542.124.64 3.274.688 3.852.219 2.651.033 5.366-.085 8.018zm16.806-13.72c-2.098.814-1.946 5.1-2.086 6.771-.344 4.079-.608 8.173-.635 12.268.001 1.891-.953 15.856 3.698 14.037 1.773-.693 1.408-3.602 1.483-5.062.246-4.806.494-9.613.694-14.421.065-1.547 1.089-15.238-3.154-13.593zm1.601 14.278c-.216 4.882.173 10.37-.732 15.166.102.595-.054 1.104-.468 1.527-.354.913-.584.838-.69-.226-.641-.976-.639-3.423-.723-4.366-.219-2.438-.185-4.895-.186-7.34.029-4.459.276-8.95.732-13.386.099-.961-.229-3.633 1.464-3.245.542.124.64 3.274.688 3.852.219 2.651.033 5.366-.085 8.018zm12.955-19.705c-.943-.274-1.345 1.194-.405 1.468 2.434.708 3.285 2.921 3.718 5.178.184.961 1.652.554 1.468-.405-.54-2.819-1.814-5.379-4.781-6.241zm-2.996.049c-.98 0-.981 1.522 0 1.522.979 0 .981-1.522 0-1.522z" fill="none" stroke="#c6708b" stroke-miterlimit="10"/><path d="M437.649 69.659c1.268-2.197 4.439-2.197 5.707 0l5.682 9.841 5.682 9.841c1.268 2.197-.317 4.942-2.853 4.942h-22.726c-2.536 0-4.122-2.746-2.853-4.942l5.682-9.841 5.679-9.841z" fill="#faf3f8" stroke="#cc6e8c" stroke-miterlimit="10"/><path d="M439.17 88.281c0-.485.175-.898.524-1.241a1.725 1.725 0 011.251-.513c.485 0 .902.173 1.251.519.349.346.524.758.524 1.235 0 .492-.175.911-.524 1.257-.35.346-.767.519-1.251.519-.492 0-.911-.173-1.257-.519a1.715 1.715 0 01-.518-1.257zm.204-12.878h3.113V85.65h-3.113V75.403z" fill="#c6708b"/></svg>