<svg xmlns="http://www.w3.org/2000/svg" width="98" height="120"><g fill="#c6708b"><path d="M89.17 5.715C88.534 2.851 86.686.947 83.679.057L80.947 0l-.609.198c-.695.114-1.393.222-2.092.33-1.362.205-2.902.438-4.376.772-8.503 1.914-16.007 5.896-22.305 11.84-3.647 3.441-6.371 7.568-9.015 11.571l-.935 1.417c-3.79 5.7-7.297 12.113-11.371 20.787-.759 1.617-1.452 3.282-2.136 4.924-.821 1.975-1.751 4.211-2.792 6.254-4.796 9.396-9.26 19.898-13.646 32.108l-.343.946c-.898 2.49-1.826 5.064-2.475 7.7-.724 2.946.398 5.7 3.157 7.761 1.639 1.221 3.322 1.841 4.998 1.841 1.082 0 2.171-.258 3.24-.768 2.27-1.089 3.133-3.141 3.76-4.983 3.357-9.869 6.699-18.541 10.201-26.463l1.553 3.405c1.793 3.949 3.59 7.896 5.425 11.825 2.068 4.413 3.949 8.382 6.019 12.274 1.762 3.311 5.383 4.464 9.02 2.873 2.257-.994 3.865-2.62 4.651-4.699.783-2.088.631-4.497-.436-6.778a13110.51 13110.51 0 01-13.409-28.804c.392.002.856-.018 1.3-.099a2190.387 2190.387 0 0020.789-3.903c2.196-.422 3.773-1.841 4.332-3.896.42-1.54.543-2.915.363-4.083-.464-3.058-1.58-6.129-3.315-9.134-2.253-3.903-5.218-6.994-7.825-9.506-.18-.172-.337-.405-.508-.651l-.134-.194c-.299-.422-.585-.856-.889-1.316-.64-.966-1.302-1.96-2.092-2.875-.768-.886-1.643-1.652-2.541-2.433l-.275-.242c3.335-4.998 7.821-8.822 13.34-11.374 4.14-1.914 8.813-3.102 14.282-3.63 1.98-.189 3.535-.99 4.501-2.314.958-1.318 1.238-3.038.811-4.966M78.452 2.644l.293.511a100.51 100.51 0 002.044-.321c.185-.033.343-.084.517-.156h1.793c1.951.625 3.051 1.775 3.461 3.615.257 1.166.13 2.138-.365 2.818-.499.686-1.393 1.109-2.592 1.223-5.775.559-10.729 1.824-15.149 3.867-6.349 2.933-11.426 7.418-15.096 13.332l-.583.939.814.748c.383.354.774.695 1.208 1.074.814.713 1.584 1.384 2.233 2.134.682.788 1.272 1.678 1.899 2.625l.101.152c.268.403.537.808.818 1.21l.125.174c.229.332.488.708.849 1.054 2.466 2.376 5.273 5.291 7.361 8.912 1.571 2.717 2.574 5.476 2.985 8.201.123.794.022 1.797-.297 2.981-.293 1.078-1.054 1.74-2.257 1.969-7.66 1.472-14.451 2.75-20.767 3.898-.418.079-.917.059-1.542.033a21.923 21.923 0 00-1.126-.033h-1.74l.552 2.121c.079.367.169.783.363 1.197a15174.53 15174.53 0 0013.664 29.35c.77 1.645.891 3.271.352 4.703-.521 1.39-1.637 2.493-3.223 3.19-2.343 1.032-4.479.387-5.581-1.677-2.068-3.894-3.92-7.81-5.955-12.157a1140.203 1140.203 0 01-5.416-11.794l-2.398-5.26-1.608-3.39-1.683 3.606c-3.815 8.465-7.425 17.738-11.028 28.348-.592 1.731-1.173 2.849-2.385 3.427-1.83.875-3.573.625-5.487-.801-1.894-1.417-2.62-3.093-2.156-4.978.607-2.475 1.503-4.959 2.393-7.432l.343-.95c4.34-12.087 8.76-22.49 13.512-31.796 1.074-2.105 1.989-4.303 2.926-6.556.647-1.555 1.316-3.163 2.042-4.699 4.019-8.56 7.467-14.867 11.178-20.449l.961-1.456c2.548-3.857 5.183-7.845 8.595-11.068 5.944-5.61 13.03-9.37 21.06-11.176 1.327-.302 2.723-.513 4.076-.719l-.084-.544z"/><path d="M50.285 55.215l12.837-2.413-6.798-9.196-7.702 10.146 1.663 1.463zm3.089-3.302l2.919-3.847 2.143 2.897-5.062.95zm17.363-34.178a10.27 10.27 0 00-7.297 3.06 10.254 10.254 0 00-3.005 7.308c.024 5.685 4.655 10.311 10.322 10.311h.042c2.735-.009 5.322-1.102 7.293-3.075 1.962-1.98 3.04-4.571 3.029-7.299-.025-5.682-4.669-10.305-10.384-10.305m7.711 10.316c.007 2.013-.794 3.932-2.253 5.399-1.465 1.472-3.386 2.283-5.438 2.29-4.2 0-7.632-3.43-7.649-7.645a7.594 7.594 0 012.233-5.416 7.609 7.609 0 015.403-2.271c4.23.005 7.686 3.434 7.704 7.643"/></g></svg>