<svg xmlns="http://www.w3.org/2000/svg" width="127" height="164"><path d="M76.154 26.362c2.808.848 5.417 1.986 7.139 4.52.391.58.673 1.239.961 1.886 3.158 7.134 6.262 14.292 9.472 21.405 2.388 5.297 2.075 10.553.041 15.823-1.164 3.014-2.721 5.814-4.763 8.344-2.834 3.51-5.606 7.067-8.449 10.658 3.876 4.782 7.709 9.532 11.561 14.269 4.592 5.644 9.204 11.274 13.801 16.915 1.425 1.751 1.298 2.789-.458 4.228-5.302 4.348-10.603 8.699-15.907 13.049-2.003 1.648-2.947 1.574-4.592-.458-6.892-8.512-13.78-17.035-20.67-25.554-.29-.354-.582-.704-.951-1.15-.287.321-.544.58-.767.86-6.962 8.68-13.911 17.364-20.873 26.038-1.454 1.809-2.523 1.888-4.329.388-5.275-4.379-10.562-8.746-15.821-13.147-.563-.469-.965-1.128-1.442-1.698v-1.255l26.309-32.296c-1.62-2.058-3.198-4.056-4.767-6.058-2.832-3.617-5.759-7.168-7.668-11.413-2.695-5.991-3.292-11.976-.448-18.14 3.093-6.703 6.013-13.482 9.017-20.229.355-.795.652-1.636 1.136-2.35 6.018-8.837 32.468-4.635 32.468-4.635M43.803 41.861c-.173.347-.23.46-.28.578-2.19 5.007-4.461 9.98-6.516 15.042-.563 1.38-.697 3.031-.64 4.54.199 5.1 2.242 9.561 5.292 13.552 3.524 4.609 7.134 9.154 10.759 13.684 9.13 11.389 18.286 22.759 27.437 34.128 2.594 3.222 5.215 6.42 7.853 9.669l13.605-11.156c-.237-.314-.359-.482-.489-.642-8.633-10.654-17.284-21.295-25.896-31.966-5.802-7.192-11.617-14.379-17.299-21.666-3.054-3.915-6.03-7.917-8.706-12.1-2.583-4.049-3.998-8.653-5.12-13.663m-18.082 80.101c4.533 3.744 8.929 7.383 13.413 11.087l21.23-26.482c-3.687-4.587-7.331-9.12-11.018-13.71-7.909 9.741-15.722 19.369-23.625 29.105M83.49 42.091c-1.308 3.608-2.432 7.091-3.823 10.462-2.099 5.086-5.718 9.194-9.051 13.471-1.377 1.768-2.762 3.526-4.142 5.29 3.68 4.616 7.273 9.123 10.871 13.626.074.091.199.139.367.254 2.417-3.045 4.935-6.003 7.204-9.142 1.552-2.146 2.973-4.446 4.07-6.852 1.596-3.505 2.616-7.338 1.251-11.068-1.99-5.423-4.462-10.672-6.747-16.041m-6.066 3.821c.132-.388.383-1.006.541-1.648.479-1.938 1.068-3.867 1.354-5.836.786-5.397.781-6.289-5.405-7.826-6.226-1.548-12.601-1.219-18.923-.438-2.233.275-4.415.877-6.312 2.209-.846.594-1.251 1.306-1.267 2.403-.067 3.529 1.013 6.82 1.837 10.177.287 1.179.884 1.308 1.955 1.2 2.944-.297 5.9-.652 8.852-.647 5.706.011 11.415.253 17.368.406m-25.957 4.722c3.162 6.42 7.91 11.403 12.06 17.069 4.109-5.692 8.967-10.596 12.014-17.069-8.071-.762-15.962-.752-24.074 0" fill="#c6708b"/></svg>