<svg xmlns="http://www.w3.org/2000/svg" width="93" height="120"><g fill="#cc6e8c"><path d="M-25.473 64.149c-.325.225-.401.467-.401.829.008 8.019 0 16.039.01 24.056.002 2.718-.701 5.203-2.402 7.345-1.865 2.35-4.306 3.644-7.33 3.649-10.448.019-20.895.01-31.339.01-3.568 0-7.134.025-10.7-.006-5.023-.044-9.925-3.998-11.045-8.897a9.59 9.59 0 01-.231-2.09c-.014-9.743-.004-19.485-.004-29.228 0-10.044.002-20.089-.01-30.133-.004-3.986 2.028-7.004 5.838-8.6a14.135 14.135 0 015.521-1.129c11.618.002 23.237 0 34.855 0 2.441 0 4.885-.012 7.332.002 1.573.01 3.101.291 4.523.992 3.281 1.619 4.893 4.347 4.963 7.934.083 4.217.023 8.438.025 12.655v1.108c.509-.356.918-.633 1.317-.922 1.509-1.102 2.964-2.295 4.544-3.287 1.391-.876 2.925-.672 4.391-.033 1.108.484 2.028 1.234 2.832 2.123 1.827 2.011 3.264 4.25 3.845 6.942.3 1.379.281 2.76-.203 4.11-.238.666-.62 1.209-1.224 1.604l-15.107 10.966zm-27.872 4.07c1.292-2.084 2.673-4.308 4.093-6.592-.209-.017-.337-.039-.461-.039-5.743 0-11.485 0-17.23.002-1.941 0-3.882.012-5.825-.002-1.319-.008-2.239-.899-2.247-2.127-.006-1.224.928-2.117 2.235-2.14.169-.002.335 0 .504 0 8.254 0 16.507-.002 24.759.004.544 0 1.063.041 1.377-.541.072-.135.25-.217.385-.312 4.356-3.029 8.713-6.057 13.077-9.075.298-.205.401-.42.399-.779-.01-3.816-.004-7.634-.006-11.45 0-2.077.004-4.151-.01-6.227-.012-1.364-.662-2.158-1.997-2.437a6.712 6.712 0 00-1.342-.141c-3.08-.012-6.162-.002-9.24-.002-6.028 0-12.054-.004-18.08-.002-4.872 0-9.745-.006-14.615.012-1.344.006-2.625.302-3.771 1.046-.788.511-1.182 1.201-1.178 2.179.027 5.724.019 11.45.017 17.176l-.002 41.886c0 .333-.002.674.056.999.372 2.024 2.876 3.963 5.114 3.963 4.353.002 8.705-.002 13.056-.002 9.46-.002 18.921-.01 28.378.008 1.358.002 2.292-.595 2.94-1.737.49-.866.674-1.807.672-2.797-.004-6.53-.002-13.058-.004-19.587 0-.159-.016-.318-.029-.537-.147.087-.25.135-.341.198-.91.626-1.803 1.273-2.735 1.869-.399.257-.846.486-1.306.6-3.115.783-6.237 1.53-9.362 2.292-2.534.616-5.069 1.244-7.605 1.854-.891.215-1.676-.012-2.249-.744-.581-.746-.631-1.559-.178-2.398.045-.085.085-.172.182-.362h-1.445c-5.054.002-10.111.013-15.167-.008a3.42 3.42 0 01-1.484-.341c-.825-.418-1.191-1.449-.945-2.336.266-.962 1.095-1.592 2.127-1.592l19.483.219zm29.873-22.02c-6.092 4.234-12.134 8.432-18.222 12.66l5.323 7.667c6.102-4.238 12.143-8.436 18.226-12.664l-5.327-7.663m-21.104 16.019c-1.697 2.733-3.353 5.391-5.087 8.182l9.216-2.237-4.129-5.945m30.012-11.333c.271-.182.484-.378.738-.492.815-.366.916-.999.752-1.782-.496-2.336-1.772-4.198-3.498-5.782-.279-.252-.647-.411-.992-.573-.134-.064-.36-.083-.475-.01-.599.385-1.174.806-1.784 1.234 1.772 2.496 3.506 4.933 5.259 7.405"/><path d="M-57.428 50.916c-5.137 0-10.276 0-15.415-.002-.951 0-1.627-.449-2.011-1.317-.345-.785-.155-1.712.451-2.321.436-.44.97-.632 1.586-.632 3.967 0 7.932-.004 11.899-.004 6.04-.002 12.083-.002 18.123-.002.285 0 .569-.01.854.002 1.259.046 2.206.982 2.189 2.152-.017 1.214-.976 2.123-2.262 2.125-5.139.004-10.278.002-15.415.002v-.003zm0 32.2c-5.137 0-10.276.002-15.415 0-.951-.002-1.627-.451-2.011-1.319-.345-.785-.155-1.712.451-2.321.436-.438.97-.632 1.586-.632 3.967 0 7.932-.002 11.899-.004l18.123-.002c.285 0 .569-.008.854.002 1.259.046 2.206.982 2.189 2.152-.017 1.214-.976 2.125-2.262 2.125-5.139.004-10.278.002-15.415.002v-.003zm-9.946-41.809c-5.036 0-.05.002-5.087-.004-.333 0-.676-.004-.996-.085-1.015-.258-1.645-1.218-1.544-2.288a2.072 2.072 0 012.015-1.881c1.521-.037 3.045-.017 4.566-.017h15.027c.451 0 .903.002 1.354.006 1.313.016 2.253.897 2.261 2.121.006 1.22-.934 2.136-2.235 2.138-3.632.009-7.262.006-10.892.008h-4.469v.002z"/></g><path d="M55.448 20.657c1.985.6 3.83 1.404 5.048 3.196.276.41.476.876.679 1.333 2.233 5.045 4.428 10.106 6.698 15.136 1.689 3.745 1.467 7.462.029 11.189-.823 2.131-1.924 4.111-3.368 5.9-2.004 2.482-3.964 4.997-5.975 7.536 2.741 3.381 5.451 6.74 8.175 10.089 3.247 3.991 6.508 7.972 9.759 11.961 1.008 1.238.918 1.972-.324 2.99l-11.248 9.227c-1.416 1.165-2.084 1.113-3.247-.324-4.874-6.019-9.744-12.046-14.616-18.07-.205-.251-.412-.498-.673-.813-.203.227-.385.41-.542.608-4.923 6.137-9.837 12.278-14.76 18.412-1.028 1.279-1.784 1.335-3.061.274-3.73-3.097-7.469-6.185-11.187-9.297-.398-.332-.683-.798-1.02-1.201v-.888l18.603-22.837c-1.145-1.455-2.262-2.868-3.371-4.284-2.002-2.558-4.072-5.069-5.422-8.07-1.906-4.237-2.328-8.468-.317-12.827 2.187-4.74 4.252-9.534 6.376-14.304.251-.562.461-1.157.803-1.662 4.258-6.245 22.961-3.274 22.961-3.274m-22.876 10.96c-.122.246-.163.325-.198.408-1.548 3.54-3.154 7.057-4.608 10.636-.398.976-.493 2.143-.452 3.21.141 3.607 1.586 6.761 3.742 9.583 2.492 3.259 5.045 6.473 7.608 9.676 6.456 8.053 12.93 16.093 19.401 24.132 1.835 2.278 3.688 4.54 5.553 6.837 3.232-2.649 6.419-5.263 9.62-7.889-.168-.222-.254-.341-.346-.454C66.787 80.225 60.67 72.7 54.581 65.155c-4.103-5.085-8.214-10.167-12.232-15.321-2.16-2.768-4.264-5.599-6.156-8.556-1.827-2.862-2.828-6.118-3.621-9.661M19.786 88.258c3.205 2.648 6.313 5.221 9.485 7.84 5.012-6.253 9.994-12.468 15.012-18.725-2.607-3.244-5.184-6.449-7.791-9.695-5.593 6.887-11.117 13.695-16.706 20.58M60.635 31.78c-.925 2.551-1.719 5.014-2.704 7.398-1.484 3.596-4.044 6.502-6.4 9.525-.974 1.25-1.953 2.494-2.929 3.74 2.602 3.264 5.143 6.451 7.687 9.635.053.064.141.098.259.179 1.709-2.153 3.49-4.245 5.094-6.464 1.098-1.518 2.102-3.144 2.878-4.845 1.128-2.478 1.85-5.189.884-7.826-1.405-3.834-3.153-7.546-4.769-11.342m-4.289 2.702c.093-.274.271-.712.383-1.165.339-1.37.756-2.734.957-4.127.556-3.816.552-4.447-3.822-5.534-4.403-1.094-8.91-.862-13.381-.31-1.579.195-3.122.62-4.464 1.562-.598.42-.884.923-.896 1.699-.047 2.495.717 4.823 1.299 7.196.203.834.625.925 1.382.849 2.082-.21 4.172-.461 6.259-.457 4.036.007 8.073.179 12.283.287m-18.355 3.339c2.236 4.54 5.593 8.063 8.528 12.07 2.905-4.025 6.341-7.492 8.495-12.07a90.391 90.391 0 00-17.023 0m97.96 26.93c3.416-.485 5.89-2.251 7.789-4.902 2.363-3.296 3.715-7.061 4.581-10.956a309.28 309.28 0 003.327-17.089c.298-1.809.019-3.786-.353-5.614-.405-2.007-2.247-3.557-4.557-3.376-.695.054-1.397.015-2.096.007-1.061-.013-2.035.065-3.04.631-1.858 1.041-4.257.337-5.502-1.384-1.165-1.609-.988-3.861.415-5.308 1.49-1.539 3.94-1.758 5.771-.602.49.309 1.129.478 1.716.525 1.818.146 3.693-.041 5.453.341 4.666 1.007 7.887 4.949 8.499 9.806.407 3.227-.061 6.356-.617 9.505-.99 5.585-1.833 11.212-3.638 16.605-.902 2.694-1.974 5.371-3.306 7.874-2.801 5.253-7.082 9.239-14.379 10.085 0 0-2.592.887-2.592 2.648-.02.441-.049.763-.049 1.087-.002 5.49-.007 10.983 0 16.473.003 4.132 3.242 7.35 7.391 7.465 2.896.081 5.388-.677 7.201-3.065.931-1.228 1.414-2.614 1.411-4.167-.005-3.071-.007-6.139.002-9.212.02-6.792 5.007-12.616 11.743-13.504 4.347-.573 8.347.131 11.814 2.872 2.526 1.994 4.093 4.485 4.756 7.414a6.553 6.553 0 01-2.925 12.608c-3.293-.227-5.932-2.94-6.08-6.236a6.541 6.541 0 012.682-5.592c-.827-2.874-3.615-4.969-6.638-5.132-2.63-.141-5.041.273-6.958 2.26-1.328 1.373-2.053 2.998-2.051 4.927.003 3.062.007 6.124-.002 9.186-.02 7.328-5.587 13.169-12.904 13.643-5.015.326-9.33-1.043-12.667-4.939-2.119-2.475-3.098-5.39-3.108-8.627-.019-5.358-.005-10.717-.005-16.075v-1.299c0-2.224-2.782-2.63-2.782-2.63-1.082-.182-2.091-.3-3.077-.522-4.963-1.119-8.545-4.115-11.216-8.323-2.816-4.437-4.422-9.362-5.48-14.445a273.274 273.274 0 01-2.884-16.161c-.546-3.735.041-7.389 2.377-10.527 2.121-2.847 5.029-4.249 8.576-4.322a59.541 59.541 0 012.196 0c1.058.015 2.006-.065 2.989-.715 1.758-1.165 4.261-.59 5.581 1.026 1.248 1.526 1.26 3.737.027 5.246-1.35 1.657-3.689 2.087-5.607 1.149-.678-.332-1.473-.485-2.235-.566-.887-.095-1.792-.024-2.691-.022-2.189.003-3.64.983-4.427 3.033-.865 2.255-.773 4.598-.334 6.889 1.129 5.894 2.258 11.794 3.637 17.631.894 3.788 2.37 7.406 4.937 10.452 1.946 2.311 4.415 3.664 7.533 4.001-.001.003 7.13.748 11.796-.077" fill="#cc6e8c"/><g fill="#cc6e8c"><path d="M200.55 89.174c1.411-2.533 2.79-5.085 4.24-7.598 10.061-17.445 20.139-34.882 30.211-52.32.846-1.466 2.073-2.063 3.472-1.667.835.235 1.404.784 1.833 1.531 3.933 6.828 7.88 13.648 11.82 20.472 7.361 12.746 14.701 25.504 22.106 38.221 1.09 1.874.351 4.219-1.738 4.643-.03.005-.053.049-.079.074h-69.402c-.341-.143-.694-.263-1.017-.435-.818-.429-1.167-1.208-1.446-2.027v-.894zm66.465-2.385c-9.8-16.965-19.538-33.824-29.324-50.771L208.37 86.789h58.645z"/><path d="M234.199 49.244h7.49l-1.323 23.081h-4.844c-.44-7.682-.879-15.354-1.323-23.081m8.093 29.349c.002 2.437-1.913 4.371-4.336 4.38a4.352 4.352 0 01-4.371-4.357c-.007-2.414 1.944-4.382 4.348-4.389a4.35 4.35 0 014.359 4.366"/></g></svg>