<svg xmlns="http://www.w3.org/2000/svg" width="98" height="98"><g opacity=".56"><path d="M97.545 49.023c0 26.789-21.745 48.534-48.534 48.534C22.176 97.557.454 75.812.454 49.023.454 22.165 22.176.443 49.011.443c26.789 0 48.534 21.722 48.534 48.58z" fill="#fff"/><path d="M19.618 68.775c4.618.294 9.096-.408 13.306-2.308a23.125 23.125 0 005.338-3.19c-2.013-.067-3.846-.519-5.521-1.381-2.85-1.425-4.863-3.733-6.087-6.786-.271-.679-.271-.679.477-.635 2.034.181 3.529.137 4.683-.315-1.108-.385-2.15-.589-3.01-1.177-4.254-2.331-6.515-5.996-6.9-10.862-.046-.565.114-.633.633-.385 1.494.816 3.123 1.2 5 1.381-.813-.746-1.515-1.335-2.148-1.969-3.531-3.8-4.367-9.842-2.016-14.458.317-.612.431-.612.862-.134 5.95 6.856 13.348 11.017 22.264 12.421.906.181 1.9.204 2.829.361.633.114.7-.181.609-.679-.927-5.361 1.585-10.656 6.337-13.35 4.842-2.827 11.131-1.923 15.023 1.879.452.385.883.498 1.404.338 2.398-.519 4.636-1.425 6.742-2.623.181-.046.315-.16.542-.341-.906 3.01-2.715 5.227-5.385 7.037 2.465-.248 4.683-.95 6.879-1.81.044.317-.183.498-.317.746-1.494 2.037-3.237 3.869-5.294 5.408-.385.317-.475.544-.475 1.043.158 9.344-2.829 17.669-8.802 24.91-5.612 6.608-12.785 10.568-21.314 11.969-9.052 1.404-17.56-.134-25.387-4.954-.088-.066-.202-.136-.272-.136z" fill-rule="evenodd" clip-rule="evenodd" fill="#6385bb"/></g></svg>