<svg xmlns="http://www.w3.org/2000/svg" width="98" height="98"><g opacity=".56"><path d="M97.546 48.943c0 25.433-19.538 46.339-44.348 48.332-1.369.248-2.76.248-4.129.248-3.632 0-7.15-.361-10.522-1.11C16.746 91.504.454 72.09.454 48.943.454 22.131 22.266.453 49.068.453c26.812.001 48.478 21.678 48.478 48.49z" fill="#fff"/><path d="M55.38 38.992c.777-.854 2.303-1.436 4.44-1.361 1.99.069 4.366.424 6.594 1.137l2.243-10.111c-3.831-1.492-7.82-2.016-11.958-2.161-4.138-.144-7.417.376-10.092 1.776-2.687 1.402-4.497 2.991-5.575 5.353-1.08 2.067-1.704 5.69-1.861 10.192l-.14 4.001-8.028-.28-.406 11.645 8.028.28-1.276 36.565c3.343.865 6.847 1.349 10.477 1.476 1.368.048 2.759.096 4.135-.104l1.306-37.426 10.639.371.406-11.645-10.639-.371.131-3.754c.1-2.871.546-4.622 1.576-5.583z" fill="#6385bb"/></g></svg>