<svg xmlns="http://www.w3.org/2000/svg" width="93" height="120"><g fill="#cc6e8c"><path d="M-216.615 64.149c-.325.225-.401.467-.401.829.008 8.019 0 16.039.01 24.056.002 2.718-.701 5.203-2.402 7.345-1.865 2.35-4.306 3.644-7.33 3.649-10.448.019-20.895.01-31.339.01-3.568 0-7.134.025-10.7-.006-5.023-.044-9.925-3.998-11.045-8.897a9.527 9.527 0 01-.23-2.09c-.014-9.743-.004-19.485-.004-29.228 0-10.044.002-20.089-.01-30.133-.004-3.986 2.028-7.004 5.838-8.6a14.135 14.135 0 015.521-1.129c11.618.002 23.237 0 34.855 0 2.441 0 4.885-.012 7.332.002 1.573.01 3.101.291 4.523.992 3.281 1.619 4.893 4.347 4.963 7.934.083 4.217.023 8.438.025 12.655v1.108c.509-.356.918-.633 1.317-.922 1.509-1.102 2.964-2.295 4.544-3.287 1.391-.876 2.925-.672 4.391-.033 1.108.484 2.028 1.234 2.832 2.123 1.827 2.011 3.264 4.25 3.845 6.942.3 1.379.281 2.76-.203 4.11-.238.666-.62 1.209-1.224 1.604l-15.108 10.966zm-27.872 4.07c1.292-2.084 2.673-4.308 4.093-6.592-.209-.017-.337-.039-.461-.039-5.743 0-11.485 0-17.23.002-1.941 0-3.882.012-5.825-.002-1.319-.008-2.239-.899-2.247-2.127-.006-1.224.928-2.117 2.235-2.14.169-.002.335 0 .504 0 8.254 0 16.507-.002 24.759.004.544 0 1.063.041 1.377-.541.072-.135.25-.217.385-.312 4.356-3.029 8.713-6.057 13.077-9.075.298-.205.401-.42.399-.779-.01-3.816-.004-7.634-.006-11.45 0-2.077.004-4.151-.01-6.227-.012-1.364-.662-2.158-1.997-2.437a6.712 6.712 0 00-1.342-.141c-3.08-.012-6.162-.002-9.24-.002-6.028 0-12.054-.004-18.08-.002-4.872 0-9.745-.006-14.615.012-1.344.006-2.625.302-3.771 1.046-.788.511-1.182 1.201-1.178 2.179.027 5.724.019 11.45.017 17.176l-.002 41.886c0 .333-.002.674.056.999.372 2.024 2.876 3.963 5.114 3.963 4.353.002 8.705-.002 13.056-.002 9.46-.002 18.921-.01 28.378.008 1.358.002 2.292-.595 2.94-1.737.49-.866.674-1.807.672-2.797-.004-6.53-.002-13.058-.004-19.587 0-.159-.016-.318-.029-.537-.147.087-.25.135-.341.198-.91.626-1.803 1.273-2.735 1.869-.399.257-.846.486-1.306.6-3.115.783-6.237 1.53-9.362 2.292-2.534.616-5.069 1.244-7.605 1.854-.891.215-1.676-.012-2.249-.744-.581-.746-.631-1.559-.178-2.398.045-.085.085-.172.182-.362h-1.445c-5.054.002-10.111.013-15.167-.008a3.42 3.42 0 01-1.484-.341c-.825-.418-1.191-1.449-.945-2.336.263-.963 1.092-1.592 2.125-1.592l19.485.219zm29.873-22.02c-6.092 4.234-12.134 8.432-18.222 12.66l5.323 7.667c6.102-4.238 12.143-8.436 18.226-12.664-1.78-2.563-3.533-5.085-5.327-7.663m-21.104 16.019c-1.697 2.733-3.353 5.391-5.087 8.182l9.216-2.237-4.129-5.945m30.012-11.333c.271-.182.484-.378.738-.492.815-.366.916-.999.752-1.782-.496-2.336-1.772-4.198-3.498-5.782-.279-.252-.647-.411-.992-.573-.134-.064-.36-.083-.475-.01-.599.385-1.174.806-1.784 1.234 1.773 2.496 3.506 4.933 5.259 7.405"/><path d="M-248.57 50.916c-5.137 0-10.276 0-15.415-.002-.951 0-1.627-.449-2.011-1.317-.345-.785-.155-1.712.451-2.321.436-.44.97-.632 1.586-.632 3.967 0 7.932-.004 11.899-.004 6.04-.002 12.083-.002 18.123-.002.285 0 .57-.01.854.002 1.259.046 2.206.982 2.189 2.152-.017 1.214-.976 2.123-2.262 2.125-5.139.004-10.278.002-15.415.002v-.003zm0 32.2c-5.137 0-10.276.002-15.415 0-.951-.002-1.627-.451-2.011-1.319-.345-.785-.155-1.712.451-2.321.436-.438.97-.632 1.586-.632 3.967 0 7.932-.002 11.899-.004l18.123-.002c.285 0 .57-.008.854.002 1.259.046 2.206.982 2.189 2.152-.017 1.214-.976 2.125-2.262 2.125-5.139.004-10.278.002-15.415.002v-.003zm-9.946-41.809c-5.036 0-.05.002-5.087-.004-.333 0-.676-.004-.996-.085-1.015-.258-1.645-1.218-1.544-2.288a2.072 2.072 0 012.014-1.881c1.521-.037 3.045-.017 4.566-.017h15.027c.451 0 .903.002 1.354.006 1.313.016 2.253.897 2.261 2.121.006 1.22-.934 2.136-2.235 2.138-3.632.009-7.262.006-10.892.008h-4.469v.002z"/></g><path d="M-135.694 20.657c1.985.6 3.83 1.404 5.048 3.196.276.41.476.876.679 1.333 2.233 5.045 4.428 10.106 6.698 15.136 1.689 3.745 1.467 7.462.029 11.189-.823 2.131-1.924 4.111-3.368 5.9-2.004 2.482-3.964 4.997-5.975 7.536 2.741 3.381 5.451 6.74 8.175 10.089 3.247 3.991 6.508 7.972 9.759 11.961 1.008 1.238.918 1.972-.324 2.99l-11.248 9.227c-1.416 1.165-2.084 1.113-3.247-.324-4.874-6.019-9.744-12.046-14.616-18.07-.205-.251-.412-.498-.673-.813-.203.227-.385.41-.542.608-4.923 6.137-9.837 12.278-14.76 18.412-1.028 1.279-1.784 1.335-3.061.274-3.73-3.097-7.469-6.185-11.187-9.297-.398-.332-.683-.798-1.02-1.201v-.888l18.603-22.837c-1.145-1.455-2.262-2.868-3.371-4.284-2.002-2.558-4.072-5.069-5.422-8.07-1.906-4.237-2.328-8.468-.317-12.827 2.187-4.74 4.252-9.534 6.376-14.304.251-.562.461-1.157.803-1.662 4.258-6.245 22.961-3.274 22.961-3.274m-22.876 10.96c-.122.246-.163.325-.198.408-1.548 3.54-3.154 7.057-4.608 10.636-.398.976-.493 2.143-.452 3.21.141 3.607 1.586 6.761 3.742 9.583 2.492 3.259 5.045 6.473 7.608 9.676 6.456 8.053 12.93 16.093 19.401 24.132 1.835 2.278 3.688 4.54 5.553 6.837 3.232-2.649 6.419-5.263 9.62-7.889-.168-.222-.254-.341-.346-.454-6.105-7.533-12.222-15.058-18.312-22.603-4.103-5.085-8.214-10.167-12.232-15.321-2.16-2.768-4.264-5.599-6.156-8.556-1.826-2.86-2.827-6.116-3.62-9.659m-12.786 56.641c3.205 2.648 6.313 5.221 9.485 7.84l15.012-18.725c-2.607-3.244-5.184-6.449-7.791-9.695-5.593 6.887-11.117 13.695-16.706 20.58m40.849-56.478c-.925 2.551-1.719 5.014-2.704 7.398-1.484 3.596-4.044 6.502-6.4 9.525-.974 1.25-1.953 2.494-2.929 3.74 2.602 3.264 5.143 6.451 7.687 9.635.053.064.141.098.259.179 1.709-2.153 3.49-4.245 5.094-6.464 1.098-1.518 2.102-3.144 2.878-4.845 1.128-2.478 1.85-5.189.884-7.826-1.405-3.834-3.153-7.546-4.769-11.342m-4.289 2.702c.093-.274.271-.712.383-1.165.339-1.37.756-2.734.957-4.127.556-3.816.552-4.447-3.822-5.534-4.403-1.094-8.91-.862-13.381-.31-1.579.195-3.122.62-4.464 1.562-.598.42-.884.923-.896 1.699-.047 2.495.717 4.823 1.299 7.196.203.834.625.925 1.382.849 2.082-.21 4.172-.461 6.259-.457 4.037.007 8.073.179 12.283.287m-18.354 3.339c2.236 4.54 5.593 8.063 8.527 12.07 2.905-4.025 6.341-7.492 8.495-12.07a90.38 90.38 0 00-17.022 0m98.801 26.221c2.907-.412 5.011-1.915 6.627-4.17 2.011-2.804 3.16-6.008 3.897-9.321a261.499 261.499 0 002.83-14.538c.254-1.539.016-3.221-.3-4.776-.345-1.708-1.911-3.026-3.877-2.872-.591.046-1.189.013-1.783.006-.903-.011-1.731.055-2.586.537-1.581.886-3.622.287-4.681-1.177-.991-1.369-.841-3.284.353-4.516 1.268-1.31 3.352-1.496 4.91-.512.417.263.961.407 1.46.447 1.546.124 3.142-.035 4.639.29 3.97.857 6.71 4.21 7.231 8.343.346 2.745-.052 5.408-.525 8.087-.842 4.751-1.559 9.539-3.096 14.127-.767 2.292-1.679 4.57-2.813 6.699-2.383 4.469-6.025 7.86-12.233 8.58 0 0-2.205.754-2.205 2.253-.017.375-.042.649-.042.925-.001 4.671-.006 9.344 0 14.015.003 3.515 2.758 6.253 6.288 6.351 2.464.069 4.584-.576 6.126-2.608.792-1.044 1.203-2.224 1.2-3.546-.004-2.612-.006-5.223.001-7.837.017-5.778 4.26-10.733 9.99-11.489 3.698-.488 7.101.111 10.051 2.443 2.149 1.696 3.482 3.815 4.046 6.308a5.575 5.575 0 013.481 5.165 5.578 5.578 0 01-5.969 5.561c-2.801-.193-5.047-2.501-5.173-5.305a5.562 5.562 0 012.282-4.757c-.704-2.445-3.075-4.228-5.647-4.366-2.237-.12-4.288.232-5.92 1.923-1.129 1.168-1.747 2.55-1.745 4.192.003 2.605.006 5.21-.001 7.815-.017 6.234-4.753 11.204-10.978 11.607-4.267.277-7.938-.887-10.777-4.202-1.803-2.106-2.635-4.585-2.644-7.339-.016-4.558-.004-9.118-.004-13.676v-1.105c0-1.893-2.367-2.237-2.367-2.237-.92-.154-1.779-.255-2.618-.444-4.222-.952-7.27-3.501-9.542-7.081-2.396-3.775-3.762-7.965-4.662-12.29a233.112 233.112 0 01-2.454-13.749c-.465-3.178.035-6.286 2.022-8.956 1.804-2.422 4.278-3.615 7.296-3.677.622-.013 1.246-.01 1.868 0 .9.013 1.706-.055 2.543-.609 1.496-.991 3.625-.502 4.749.873 1.062 1.298 1.072 3.179.023 4.463-1.148 1.409-3.139 1.776-4.77.978-.577-.283-1.253-.413-1.901-.482-.754-.081-1.525-.02-2.289-.019-1.862.003-3.097.837-3.766 2.58-.736 1.918-.658 3.912-.284 5.861.961 5.014 1.921 10.034 3.094 15 .76 3.222 2.017 6.301 4.2 8.893 1.656 1.966 3.756 3.117 6.409 3.404-.001-.002 6.066.632 10.036-.07" fill="#cc6e8c"/><g fill="#cc6e8c"><path d="M9.408 89.174c1.411-2.533 2.79-5.085 4.24-7.598C23.71 64.13 33.787 46.694 43.859 29.256c.846-1.466 2.073-2.063 3.472-1.667.835.235 1.404.784 1.833 1.531 3.933 6.828 7.88 13.648 11.82 20.472 7.361 12.746 14.701 25.504 22.106 38.221 1.09 1.874.351 4.219-1.738 4.643-.03.005-.053.049-.079.074H11.872c-.341-.143-.694-.263-1.017-.435-.818-.429-1.167-1.208-1.446-2.027v-.894zm66.465-2.385c-9.8-16.965-19.538-33.824-29.324-50.771L17.228 86.789h58.645z"/><path d="M43.058 49.244h7.49l-1.323 23.081H44.38l-1.322-23.081m8.092 29.349c.002 2.437-1.913 4.371-4.336 4.38a4.352 4.352 0 01-4.371-4.357c-.007-2.414 1.944-4.382 4.348-4.389a4.35 4.35 0 014.359 4.366"/></g></svg>