<svg xmlns="http://www.w3.org/2000/svg" width="98" height="98"><g opacity=".56"><path d="M97.551 49c0 26.835-21.756 48.557-48.569 48.557C22.17 97.557.449 75.835.449 49 .449 22.186 22.171.443 48.983.443 75.795.443 97.551 22.186 97.551 49z" fill="#fff"/><path d="M82.157 41.914a54.542 54.542 0 00-.124-2.285c-.247-3.226-.607-6.921-2.738-9.502-1.824-2.208-4.65-2.708-7.332-3.011-3.397-.384-6.81-.616-10.225-.747-6.918-.264-13.842-.111-20.761.043-3.554.079-7.111.158-10.655.44-4.352.347-8.828.984-10.855 5.333-1.82 3.904-1.594 8.86-1.617 13.059-.021 3.766-.033 7.533.118 11.296.196 4.884.486 11.245 5.757 13.387 2.814 1.143 6.212 1.399 9.218 1.594 3.186.207 6.38.182 9.571.23 6.692.099 13.382-.13 20.071-.263 4.646-.092 9.415-.145 13.862-1.662 3.838-1.31 4.839-5.469 5.358-9.077.516-3.585.384-7.222.378-10.832-.005-2.666.065-5.338-.026-8.003zm-38.66 16.808V39.139l16.667 9.789-16.667 9.794z" fill="#6385bb"/></g></svg>