<svg xmlns="http://www.w3.org/2000/svg" width="127" height="164"><path d="M55.529 88.714c4.827-.685 8.322-3.181 11.006-6.926 3.339-4.657 5.249-9.978 6.473-15.48a434.77 434.77 0 004.7-24.146c.422-2.556.026-5.35-.498-7.932-.573-2.836-3.174-5.026-6.439-4.77-.982.077-1.974.021-2.961.009-1.5-.019-2.875.091-4.295.891-2.626 1.471-6.015.477-7.774-1.955-1.646-2.273-1.397-5.455.587-7.501 2.106-2.175 5.567-2.484 8.155-.85.692.436 1.595.676 2.424.742 2.568.206 5.218-.057 7.704.482 6.593 1.423 11.144 6.993 12.009 13.856.575 4.559-.086 8.981-.872 13.43-1.399 7.891-2.59 15.842-5.141 23.463-1.275 3.807-2.789 7.589-4.672 11.125-3.958 7.422-10.007 13.054-20.317 14.249 0 0-3.663 1.253-3.663 3.742-.029.623-.07 1.078-.07 1.536-.002 7.757-.01 15.519 0 23.276.005 5.838 4.58 10.385 10.443 10.548 4.092.115 7.613-.956 10.174-4.331 1.315-1.734 1.998-3.694 1.993-5.889-.007-4.339-.01-8.675.002-13.016.029-9.597 7.074-17.826 16.592-19.081 6.142-.81 11.794.185 16.693 4.058 3.569 2.817 5.783 6.337 6.72 10.476a9.258 9.258 0 015.781 8.579c0 5.33-4.509 9.607-9.913 9.235-4.652-.321-8.382-4.154-8.591-8.811a9.24 9.24 0 013.79-7.901c-1.169-4.06-5.108-7.021-9.379-7.252-3.716-.199-7.122.386-9.832 3.193-1.876 1.941-2.901 4.236-2.899 6.962.005 4.327.01 8.653-.002 12.979-.029 10.354-7.894 18.607-18.233 19.278-7.086.46-13.183-1.473-17.898-6.978-2.995-3.498-4.377-7.616-4.391-12.189-.026-7.57-.007-15.143-.007-22.713v-1.835c0-3.143-3.931-3.716-3.931-3.716-1.528-.256-2.954-.424-4.348-.738-7.012-1.581-12.074-5.814-15.847-11.76-3.979-6.269-6.248-13.229-7.743-20.411-1.574-7.565-2.958-15.186-4.075-22.832-.771-5.278.057-10.44 3.359-14.874 2.997-4.022 7.105-6.003 12.117-6.106a82.25 82.25 0 013.102 0c1.495.022 2.834-.091 4.224-1.011 2.484-1.646 6.02-.834 7.886 1.449 1.763 2.156 1.78 5.28.038 7.412-1.907 2.341-5.213 2.949-7.922 1.624-.958-.469-2.082-.685-3.157-.8-1.253-.134-2.532-.034-3.802-.031-3.093.005-5.143 1.389-6.255 4.286-1.222 3.186-1.092 6.497-.472 9.733 1.595 8.327 3.191 16.664 5.139 24.912 1.263 5.352 3.349 10.464 6.976 14.769 2.75 3.265 6.238 5.177 10.644 5.654 0 0 10.076 1.051 16.668-.113" fill="#c6708b"/></svg>