<svg xmlns="http://www.w3.org/2000/svg" width="127" height="164"><g fill="#c6708b"><path d="M13.186 121.573c1.914-3.436 3.785-6.897 5.752-10.306 13.648-23.664 27.317-47.316 40.98-70.971 1.148-1.989 2.813-2.798 4.71-2.262 1.133.319 1.904 1.064 2.487 2.077 5.335 9.261 10.689 18.514 16.034 27.77 9.985 17.289 19.941 34.595 29.986 51.846 1.478 2.542.477 5.723-2.357 6.298-.041.007-.072.067-.108.101H16.528c-.462-.194-.941-.357-1.38-.59-1.109-.582-1.584-1.639-1.962-2.75v-1.213zm90.158-3.234a396655.385 396655.385 0 01-39.777-68.87l-39.772 68.87h79.549z"/><path d="M58.83 67.41h10.16l-1.794 31.309h-6.571c-.597-10.421-1.193-20.828-1.795-31.309m10.977 39.81c.002 3.306-2.594 5.929-5.881 5.941a5.903 5.903 0 01-5.929-5.91c-.01-3.275 2.638-5.943 5.898-5.953 3.268-.009 5.912 2.636 5.912 5.922"/></g></svg>