<svg xmlns="http://www.w3.org/2000/svg" width="98" height="98"><g opacity=".56"><path d="M97.545 49.012c0 26.812-21.722 48.557-48.557 48.557C22.199 97.569.454 75.824.454 49.012S22.2.432 48.988.432c26.836 0 48.557 21.768 48.557 48.58z" fill="#fff"/><path d="M68.312 22.809H29.711c-4.595 0-6.969 2.398-6.969 7.016v38.511c0 4.435 2.444 6.877 6.742 6.877h38.828c4.481 0 6.946-2.442 6.946-6.946V29.666c0-4.459-2.465-6.857-6.946-6.857zm-4.254 5.906c5.204 0 5.204 0 5.204 5.204 0 5.09 0 5.09-5.114 5.09-5.158 0-5.158 0-5.158-5.158.001-5.136.001-5.136 5.068-5.136zM49.035 38.828c5.475 0 10.181 4.729 10.09 10.183-.044 5.589-4.706 10.227-10.271 10.137-5.521-.137-10.183-4.775-10.046-10.273.134-5.498 4.749-10.047 10.227-10.047zm20.227 27.29c-.044 2.442-.679 3.144-3.121 3.144H31.838c-2.398 0-3.077-.702-3.077-3.144 0-6.291.023-12.718-.09-19.096 0-1.812.498-2.22 2.171-2.15 2.398.158 2.444.067 2.173 2.398-.929 8.123 4.683 15.973 12.669 17.535 8.237 1.585 16.474-3.348 18.735-11.244.679-2.468.883-5.09.364-7.535-.181-.906.044-1.087.86-1.087 3.619-.271 3.619-.338 3.619 3.418v17.761z" fill-rule="evenodd" clip-rule="evenodd" fill="#6385bb"/></g></svg>