<svg xmlns="http://www.w3.org/2000/svg" width="98" height="120"><path d="M61.202 2.561c1.072.737 2.204 1.395 3.201 2.22 7.221 5.98 9.931 13.602 8.119 22.796-.256 1.302-.731 2.573-1.217 3.816-1.17 2.987-2.408 5.947-3.673 9.049.664.27 1.302.517 1.929.789 9.957 4.343 16.361 14.936 15.614 25.813-1.074 15.624-14.837 26.859-30.338 24.686-6.452-.903-11.837-3.915-16.176-8.774-.355-.398-.69-.531-1.221-.48-15.192 1.471-27.384-12.238-24.151-27.17a21.948 21.948 0 011.094-3.588c5.18-12.748 10.238-25.547 15.642-38.199C33.595 5.164 40.342.853 49.34.068c2.428-.21 4.835.071 7.184.753.153.046.327.024.49.034 1.399.567 2.793 1.137 4.188 1.706m1.568 36.427c.912-2.236 1.903-4.571 2.817-6.936.733-1.895 1.54-3.784 2.022-5.748C69.837 17.245 63.74 7.54 54.651 5.53 45.975 3.61 37.66 7.961 34.294 16.193c-1.909 4.676-3.812 9.352-5.719 14.026-.111.276-.224.551-.341.837.182.101.272.168.371.206 7.128 2.908 14.258 5.822 21.394 8.71.272.111.64.054.95-.002 1.943-.337 3.873-.842 5.83-1.009 1.954-.167 3.936.002 5.991.027M37.374 68.266c13.764-3.522 27.523-7.041 41.292-10.565-3.481-9.606-14.587-16.232-25.987-12.954-11.241 3.229-16.877 14.415-15.305 23.519m1.213 4.908c3.746 10.103 15.416 16.532 26.926 12.658 11.19-3.768 15.897-15.128 14.355-23.216-13.744 3.513-27.485 7.031-41.281 10.558m-3.837 4.341c-5.57-13.818-2.47-25.256 9.154-34.433-5.828-2.375-11.703-4.771-17.632-7.189l-.307.749c-2.309 5.657-4.621 11.311-6.924 16.968a16.768 16.768 0 00-1.227 5.935c-.19 7.255 4.03 13.844 10.722 16.659 2.009.847 4.113 1.327 6.214 1.311" fill="#c6708b"/></svg>