<svg xmlns="http://www.w3.org/2000/svg" width="98" height="98"><path d="M49.45.558C22.664.558.95 22.272.95 49.058s21.714 48.5 48.5 48.5 48.5-21.714 48.5-48.5S76.236.558 49.45.558zM36.908 71.726h-9.431V41.44h9.431v30.286zm-4.712-34.419a5.464 5.464 0 01-5.465-5.462 5.46 5.46 0 015.465-5.455 5.46 5.46 0 015.459 5.455 5.463 5.463 0 01-5.459 5.462zM72.17 71.726h-9.409V57.002c0-3.515-.066-8.031-4.888-8.031-4.905 0-5.652 3.826-5.652 7.774v14.981h-9.409V41.44h9.03v4.143h.126c1.258-2.384 4.328-4.893 8.914-4.893 9.53 0 11.287 6.269 11.287 14.425v16.611z" opacity=".56" fill="#fff"/></svg>