<svg xmlns="http://www.w3.org/2000/svg" width="98" height="120"><path d="M48.976 0c14.922 20.826 29.866 41.076 35.869 66.065 5.247 21.837-7.587 41.645-29.217 45.965-19.419 3.889-39.152-9.517-42.944-29.046-1.579-8.144-.343-15.932 2.232-23.648 5.121-15.346 13.207-29.15 22.217-42.454C40.866 11.369 44.776 5.971 48.976 0m.418 67.41c-1.739-1.225-3.275-2.637-5.081-3.473-1.458-.681-3.321-1.137-4.867-.869-7.255 1.233-10.787 9.329-6.909 15.646 4.226 6.872 10.948 11.21 16.761 16.697 5.762-5.224 11.91-9.675 15.799-16.228 1.174-1.983 1.922-4.583 1.83-6.858-.174-4.184-2.439-7.418-6.507-8.93-3.819-1.423-7.003-.113-9.688 2.739-.44.469-.933.89-1.338 1.276" fill="#c6708b"/></svg>