<svg xmlns="http://www.w3.org/2000/svg" width="127" height="164"><g fill="#c6708b"><path d="M92.39 87.132c-.402.278-.496.578-.496 1.025.01 9.918 0 19.836.012 29.752.002 3.361-.867 6.435-2.971 9.084-2.307 2.906-5.326 4.506-9.065 4.513-12.922.024-25.842.012-38.759.012-4.413 0-8.823.031-13.233-.007-6.212-.055-12.275-4.945-13.66-11.003a11.81 11.81 0 01-.285-2.585c-.017-12.05-.005-24.098-.005-36.148 0-12.422.002-24.845-.012-37.267-.005-4.93 2.508-8.663 7.22-10.636 2.182-.915 4.451-1.397 6.828-1.397 14.369.002 28.738 0 43.107 0 3.019 0 6.042-.014 9.067.002 1.945.012 3.835.359 5.594 1.226 4.058 2.003 6.051 5.376 6.138 9.813.103 5.215.029 10.435.031 15.651v1.37c.63-.441 1.136-.783 1.629-1.14 1.866-1.363 3.665-2.839 5.62-4.065 1.72-1.083 3.617-.831 5.431-.041 1.37.599 2.508 1.526 3.502 2.626 2.259 2.487 4.037 5.256 4.755 8.586.371 1.706.347 3.414-.252 5.083-.295.824-.767 1.495-1.514 1.984L92.39 87.132zm-34.471 5.033c1.598-2.578 3.306-5.328 5.062-8.153-.259-.021-.417-.048-.57-.048-7.103 0-14.204 0-21.309.003-2.4 0-4.801.014-7.204-.003-1.631-.009-2.769-1.112-2.779-2.63-.007-1.514 1.148-2.618 2.765-2.647.208-.003.414 0 .623 0 10.208 0 20.416-.003 30.621.005.673 0 1.315.05 1.703-.669.089-.168.309-.268.477-.386a7400.605 7400.605 0 0116.173-11.223c.369-.254.496-.52.494-.963-.012-4.72-.005-9.441-.007-14.161 0-2.568.005-5.134-.012-7.702-.014-1.687-.819-2.669-2.47-3.014a8.324 8.324 0 00-1.66-.175c-3.809-.014-7.621-.002-11.427-.002-7.455 0-14.908-.005-22.361-.002-6.025 0-12.052-.007-18.075.014-1.663.007-3.246.374-4.664 1.293-.975.633-1.461 1.485-1.457 2.695.034 7.079.024 14.161.022 21.242l-.002 51.803c0 .412-.002.834.069 1.236.46 2.503 3.558 4.902 6.324 4.902 5.383.002 10.766-.003 16.147-.003 11.7-.002 23.401-.012 35.096.01 1.679.002 2.834-.735 3.637-2.149.606-1.071.834-2.235.831-3.459-.005-8.076-.002-16.149-.005-24.225 0-.197-.019-.393-.036-.664-.182.108-.309.168-.422.244-1.126.774-2.23 1.574-3.383 2.312-.494.318-1.047.601-1.615.742-3.852.968-7.714 1.893-11.578 2.834-3.133.762-6.269 1.538-9.405 2.292-1.102.266-2.072-.014-2.781-.92-.719-.922-.781-1.929-.22-2.966.055-.106.105-.213.225-.448h-1.787c-6.25.002-12.505.017-18.758-.01-.618-.002-1.291-.146-1.835-.422-1.021-.517-1.473-1.792-1.169-2.889.326-1.191 1.351-1.969 2.628-1.969l24.094.275zm36.945-27.233a86675.197 86675.197 0 01-22.535 15.657c2.214 3.189 4.386 6.32 6.583 9.482 7.546-5.242 15.018-10.433 22.541-15.663-2.202-3.169-4.37-6.288-6.589-9.476m-26.1 19.812c-2.099 3.38-4.147 6.667-6.291 10.119 3.891-.944 7.592-1.842 11.398-2.767-1.727-2.485-3.392-4.885-5.107-7.352m37.118-14.018c.335-.225.599-.467.913-.608 1.009-.453 1.133-1.236.93-2.204-.613-2.889-2.192-5.191-4.327-7.151-.345-.311-.8-.508-1.227-.709-.165-.079-.446-.103-.587-.012-.74.477-1.452.997-2.206 1.526 2.192 3.088 4.336 6.102 6.504 9.158"/><path d="M52.869 70.765c-6.353 0-12.709 0-19.064-.002-1.176 0-2.012-.556-2.487-1.629-.426-.97-.192-2.118.558-2.87.539-.544 1.2-.781 1.962-.781 4.906 0 9.81-.005 14.716-.005 7.47-.002 14.944-.002 22.414-.002.352 0 .704-.012 1.056.002 1.557.057 2.729 1.214 2.707 2.661-.022 1.502-1.207 2.625-2.798 2.628-6.356.005-12.711.002-19.064.002v-.004zm0 39.824c-6.353 0-12.709.003-19.064 0-1.176-.002-2.012-.558-2.487-1.631-.426-.97-.192-2.118.558-2.87.539-.542 1.2-.781 1.962-.781 4.906 0 9.81-.002 14.716-.005l22.414-.002c.352 0 .704-.01 1.056.002 1.557.057 2.729 1.214 2.707 2.661-.022 1.502-1.207 2.628-2.798 2.628-6.356.005-12.711.002-19.064.002v-.004zM40.568 58.882c-6.229 0-.062.003-6.291-.005-.412 0-.836-.005-1.231-.105-1.255-.319-2.034-1.507-1.909-2.829a2.563 2.563 0 012.491-2.326c1.881-.045 3.766-.021 5.647-.021H57.86c.558 0 1.116.002 1.675.007 1.624.019 2.786 1.109 2.796 2.623.007 1.509-1.155 2.642-2.765 2.645-4.492.012-8.981.007-13.471.009h-5.527v.002z"/></g></svg>