<svg xmlns="http://www.w3.org/2000/svg" width="93" height="120"><path d="M260.565 29.849h-2.319v-2.53c0-3.204-2.528-5.808-5.639-5.808-3.113 0-5.639 2.604-5.639 5.808v2.528h-5.787v-2.528c0-3.204-2.528-5.808-5.639-5.808s-5.639 2.604-5.639 5.808v2.528h-5.787v-2.528c0-3.204-2.528-5.808-5.639-5.808s-5.639 2.604-5.639 5.808v2.528h-2.961c-4.949 0-8.976 4.028-8.976 8.976v50.69c0 4.949 4.028 8.976 8.976 8.976h50.69c4.951 0 8.976-4.028 8.976-8.976v-50.69c-.001-4.946-4.029-8.974-8.978-8.974zm-10.429-2.53c0-1.455 1.109-2.64 2.471-2.64 1.364 0 2.471 1.185 2.471 2.64V37.66c0 1.455-1.107 2.64-2.471 2.64-1.362 0-2.471-1.185-2.471-2.64V27.319zm-17.066 0c0-1.455 1.109-2.64 2.471-2.64s2.471 1.185 2.471 2.64V37.66c0 1.455-1.109 2.64-2.471 2.64s-2.471-1.185-2.471-2.64V27.319zm-17.067 0c0-1.455 1.109-2.64 2.471-2.64s2.471 1.185 2.471 2.64V37.66c0 1.455-1.109 2.64-2.471 2.64s-2.471-1.185-2.471-2.64V27.319zm48.259 62.196a3.7 3.7 0 01-3.696 3.696h-50.69a3.7 3.7 0 01-3.696-3.696V43.049h58.082v46.466z" fill="#5986c1"/><path fill="#5986c1" d="M210.931 52.402h9.705v8.636h-9.705zm12.954 0h9.707v8.636h-9.707zm12.964 0h9.705v8.636h-9.705zm12.953 0h9.707v8.636h-9.707zM210.931 63.93h9.705v8.63h-9.705zm12.954 0h9.707v8.63h-9.707z"/><path fill="#b78eb8" d="M236.849 63.93h9.705v8.63h-9.705z"/><path fill="#5986c1" d="M249.802 63.93h9.707v8.63h-9.707zm-38.871 11.523h9.705v8.63h-9.705zm12.954 0h9.707v8.63h-9.707zm12.964 0h9.705v8.63h-9.705zm12.953 0h9.707v8.63h-9.707z"/><path d="M55.12 22.101c1.912.578 3.69 1.353 4.863 3.079.266.395.459.844.654 1.284 2.151 4.859 4.266 9.735 6.452 14.58 1.627 3.608 1.413 7.188.028 10.778-.793 2.053-1.854 3.96-3.244 5.684-1.93 2.391-3.818 4.814-5.755 7.26 2.64 3.257 5.251 6.493 7.875 9.719 3.128 3.845 6.269 7.679 9.401 11.522.971 1.193.884 1.9-.312 2.88l-10.835 8.889c-1.364 1.123-2.007 1.072-3.128-.312-4.695-5.798-9.386-11.604-14.079-17.407-.197-.241-.397-.48-.648-.783-.196.219-.37.395-.522.586-4.742 5.912-9.476 11.828-14.218 17.736-.991 1.232-1.718 1.286-2.949.264-3.593-2.983-7.195-5.958-10.777-8.956-.383-.32-.658-.769-.982-1.157v-.855l17.921-21.999c-1.103-1.402-2.179-2.763-3.247-4.127-1.929-2.464-3.923-4.883-5.223-7.774-1.836-4.081-2.242-8.158-.305-12.356 2.107-4.566 4.096-9.184 6.142-13.779.242-.542.444-1.115.773-1.601 4.098-6.017 22.115-3.155 22.115-3.155M33.083 32.659c-.118.237-.157.313-.191.393-1.491 3.41-3.038 6.798-4.439 10.246-.384.94-.475 2.064-.436 3.092.135 3.474 1.527 6.513 3.605 9.231 2.4 3.14 4.86 6.235 7.329 9.321C45.17 72.7 51.407 80.444 57.64 88.189c1.767 2.195 3.552 4.373 5.349 6.586 3.114-2.552 6.183-5.07 9.267-7.599-.162-.214-.245-.328-.333-.437-5.881-7.257-11.774-14.505-17.64-21.773-3.952-4.899-7.913-9.794-11.783-14.758-2.081-2.666-4.107-5.393-5.93-8.242-1.759-2.758-2.723-5.895-3.487-9.307M20.766 87.221c3.087 2.551 6.082 5.029 9.137 7.552l14.461-18.038-7.505-9.339c-5.388 6.635-10.709 13.193-16.093 19.825m39.35-54.405c-.891 2.457-1.656 4.83-2.604 7.126-1.429 3.464-3.895 6.263-6.165 9.176-.938 1.204-1.881 2.402-2.821 3.603 2.507 3.145 4.954 6.214 7.405 9.282.051.062.135.095.25.173 1.647-2.074 3.362-4.089 4.907-6.227 1.057-1.462 2.025-3.029 2.772-4.667 1.087-2.387 1.782-4.998.852-7.539-1.355-3.695-3.039-7.27-4.596-10.927m-4.132 2.602c.09-.264.261-.685.369-1.123.326-1.32.728-2.634.922-3.975.535-3.676.532-4.284-3.681-5.331-4.241-1.054-8.583-.831-12.89-.299-1.521.188-3.007.597-4.3 1.505-.576.405-.852.889-.863 1.637-.046 2.404.69 4.646 1.252 6.932.196.803.602.891 1.332.818 2.006-.202 4.019-.444 6.03-.441 3.886.008 7.774.173 11.829.277m-17.68 3.217c2.154 4.373 5.388 7.767 8.215 11.627 2.799-3.877 6.108-7.218 8.184-11.627a87.056 87.056 0 00-16.399 0m97.69 25.463c2.947-.418 5.081-1.942 6.718-4.228 2.039-2.843 3.204-6.091 3.952-9.45a264.914 264.914 0 002.869-14.74c.257-1.56.016-3.266-.304-4.842-.35-1.731-1.938-3.068-3.931-2.912-.6.047-1.205.013-1.808.006-.915-.012-1.755.056-2.622.544-1.603.898-3.672.291-4.746-1.193-1.005-1.388-.853-3.33.358-4.579 1.285-1.328 3.399-1.517 4.978-.519.423.266.974.412 1.48.453 1.568.126 3.185-.035 4.703.294 4.025.869 6.803 4.269 7.331 8.459.351 2.783-.053 5.483-.532 8.199-.854 4.817-1.581 9.671-3.138 14.323-.778 2.324-1.702 4.633-2.852 6.792-2.416 4.531-6.109 7.969-12.403 8.699 0 0-2.236.765-2.236 2.284-.018.38-.042.658-.042.937-.001 4.735-.006 9.474 0 14.209.003 3.564 2.796 6.34 6.375 6.439 2.498.07 4.648-.584 6.211-2.644.803-1.059 1.22-2.255 1.217-3.595-.004-2.649-.006-5.296.001-7.946.018-5.859 4.319-10.882 10.129-11.648 3.75-.494 7.2.113 10.19 2.477 2.179 1.72 3.53 3.868 4.102 6.395a5.652 5.652 0 01-2.523 10.875c-2.84-.196-5.117-2.536-5.244-5.379a5.64 5.64 0 012.314-4.823c-.714-2.479-3.118-4.286-5.725-4.427-2.268-.121-4.348.235-6.002 1.949-1.145 1.185-1.771 2.586-1.77 4.25.003 2.641.006 5.282-.001 7.923-.018 6.321-4.819 11.359-11.131 11.768-4.326.281-8.048-.899-10.926-4.26-1.828-2.135-2.672-4.649-2.681-7.441-.016-4.621-.004-9.244-.004-13.865v-1.12c0-1.919-2.4-2.268-2.4-2.268-.933-.157-1.803-.259-2.654-.45-4.281-.965-7.371-3.549-9.674-7.179-2.429-3.827-3.814-8.076-4.727-12.46a236.152 236.152 0 01-2.488-13.94c-.471-3.222.035-6.373 2.05-9.08 1.829-2.455 4.338-3.665 7.397-3.728.63-.013 1.264-.01 1.894 0 .913.013 1.73-.056 2.578-.617 1.517-1.005 3.675-.509 4.814.885 1.076 1.316 1.087 3.223.023 4.525-1.164 1.429-3.182 1.8-4.836.992-.585-.287-1.271-.418-1.927-.488-.765-.082-1.546-.021-2.321-.019-1.888.003-3.14.848-3.818 2.616-.746 1.945-.667 3.966-.288 5.942.974 5.084 1.948 10.173 3.137 15.208.771 3.267 2.045 6.388 4.259 9.016 1.679 1.993 3.808 3.16 6.498 3.452.001-.002 6.152.64 10.176-.071" fill="#c58eb9"/><g fill="#c58eb9"><path d="M309.246 71.217h-13.88a3.61 3.61 0 01-3.61-3.61v-3.675c0-.69.198-1.366.57-1.947l18.343-28.642a3.612 3.612 0 013.04-1.663h3.949a3.61 3.61 0 013.61 3.61v24.746a3.61 3.61 0 003.61 3.61 3.61 3.61 0 013.61 3.61v.35a3.61 3.61 0 01-3.61 3.61 3.61 3.61 0 00-3.61 3.61V77.7a3.61 3.61 0 01-3.61 3.61h-1.192a3.61 3.61 0 01-3.61-3.61v-2.874a3.61 3.61 0 00-3.61-3.609zm3.61-27.62h-.14l-8.998 14.539c-1.488 2.405.241 5.51 3.07 5.51h2.458a3.61 3.61 0 003.61-3.61V43.597z"/><path d="M346.276 30.839c5.538 0 17.946 2.173 17.946 25.657s-12.408 25.657-17.946 25.657c-5.538 0-17.946-2.173-17.946-25.657s12.408-25.657 17.946-25.657zm0 43.322c8.412 0 9.534-11.496 9.534-17.665s-1.122-17.666-9.534-17.666-9.534 11.497-9.534 17.666 1.122 17.665 9.534 17.665z"/></g><linearGradient id="a" gradientUnits="userSpaceOnUse" x1="348.129" y1="77.805" x2="370.841" y2="77.805"><stop offset="0" stop-color="#33588c"/><stop offset="0" stop-color="#365d94"/><stop offset=".139" stop-color="#406eae"/><stop offset=".267" stop-color="#4777b4"/><stop offset=".492" stop-color="#5085bc"/><stop offset=".698" stop-color="#568ec2"/><stop offset=".865" stop-color="#5890c3"/></linearGradient><circle cx="359.485" cy="77.805" r="11.356" fill="url(#a)"/><path d="M357.978 75.41v-3.488a1.507 1.507 0 013.014 0v3.488c0 .832.675 1.507 1.507 1.507h3.488a1.507 1.507 0 110 3.014H362.5c-.832 0-1.507.675-1.507 1.507v3.488a1.507 1.507 0 11-3.014 0v-3.488c0-.833-.675-1.507-1.507-1.507h-3.488a1.507 1.507 0 110-3.014h3.488c.831 0 1.506-.675 1.506-1.507z" fill="#fff"/><g fill="#c58eb9"><path d="M424.172 95.321c-19.477 0-35.321-15.845-35.321-35.321s15.845-35.321 35.321-35.321S459.494 40.523 459.494 60a2.268 2.268 0 01-4.536 0c0-16.975-13.81-30.785-30.785-30.785S393.388 43.025 393.388 60s13.81 30.785 30.785 30.785a2.268 2.268 0 11-.001 4.536z"/><path d="M449.114 51.987l8.409 14.528 8.379-14.545zm-25.526 14.076c-.346 0-.694-.085-1.011-.259l-16.436-9.013a2.104 2.104 0 112.024-3.69l15.108 8.285 17.489-16.166a2.104 2.104 0 112.856 3.091l-18.602 17.194a2.106 2.106 0 01-1.428.558z"/></g></svg>