<svg xmlns="http://www.w3.org/2000/svg" width="98" height="120"><path d="M94.247 107.935l-.136-11.477c-.125-10.972-9.884-12.687-9.973-12.702-.071-.013-4.685-.812-9.871-2.158 8.685-3.713 14.128-9.254 14.38-9.517l.387-.398-.009-.554c-.011-1.206-.327-29.69-4.641-42.071C79.205 14.178 66.985-1.212 48.29.076 28.537 1.475 21.407 11.019 14.473 29.302c-6.536 17.254-4.062 42.721-3.953 43.793l.044.432.285.327c3.255 3.724 8.76 6.322 12.549 7.795a132.496 132.496 0 01-9.824 2.26c-.1.018-9.839 1.846-9.839 12.816l.027 11.23c-.053.274-.458 2.728 1.146 4.663 1.139 1.375 2.921 2.071 5.31 2.071l10.856-.029c.027.002.04.029.067.029.024 0 .042-.027.067-.029l55.41-.142c.14.053.245.171.4.171.16 0 .265-.12.405-.174l10.422-.022c2.38-.031 4.16-.743 5.279-2.125 1.586-1.964 1.152-4.413 1.123-4.433M13.185 72.386c-.298-3.475-2.024-26.673 3.835-42.118C23.683 12.687 30.09 4.095 48.485 2.79c21.656-1.537 30.98 20.404 33.335 27.169 3.84 11.018 4.409 36.463 4.48 40.621-1.559 1.484-7.679 6.934-16.346 9.782-1.29-.41-2.556-.83-3.72-1.293-4.425-1.76-4.431-6.507-4.414-7.074 1.566-.77 3.068-1.666 4.422-2.832 9.515-8.191 10.307-23.056 10.335-23.69a1.362 1.362 0 00-.983-1.364c-.412-.122-10.084-3.11-8.705-16.538a1.365 1.365 0 00-1.201-1.491c-1.086-.125-26.644-2.81-43.086 11.39a1.358 1.358 0 00-.472 1.017c0 .263.038 21.406 13.708 31.083.291 1.58.928 7.221-4.431 9.443-1.121.465-2.34.895-3.584 1.304-1.847-.561-10.36-3.35-14.638-7.931m35.482-.939c-22.175-2.302-23.71-27.881-23.81-32.321C38.359 27.89 58.754 28.348 64.073 28.684c-.643 11.899 6.861 16.368 9.708 17.628-.34 3.328-2.004 14.504-9.323 20.798-4.118 3.539-9.426 5.018-15.791 4.337m-9.926-.146c2.752 1.419 5.906 2.465 9.644 2.854 1.095.111 2.16.167 3.203.167 2.716 0 5.234-.416 7.57-1.188.271 2.723 1.724 6.729 6.073 8.46.941.374 1.935.73 2.952 1.066-8.106 10.507-16.827 14.46-18.831 15.245-10.754-4.058-17.176-12.189-19.405-15.43a52.032 52.032 0 002.503-.95c5.112-2.123 6.367-6.708 6.291-10.224m52.258 39.368c-.592.71-1.662 1.081-3.174 1.101l-9.446.024v-10.916c0-.752-.607-1.364-1.361-1.364-.752 0-1.359.612-1.359 1.364v10.923l-53.159.129v-11.052c0-.752-.607-1.364-1.359-1.364s-1.361.612-1.361 1.364v11.058l-9.564.029c-1.526 0-2.603-.36-3.199-1.068-.825-.979-.587-2.434-.561-2.687V96.725c0-8.645 7.283-10.08 7.595-10.135.347-.067 6.861-1.259 13.212-3.228 1.906 2.974 8.878 12.656 21.632 17.274l.44.16.445-.147c.467-.151 11.316-3.846 21.198-17.13 6.198 1.797 12.364 2.861 12.705 2.914.314.06 7.613 1.406 7.713 10.062l.158 11.717c.001.012.257 1.467-.555 2.457" fill="#c6708b"/></svg>