<svg xmlns="http://www.w3.org/2000/svg" xmlns:xlink="http://www.w3.org/1999/xlink" width="180.821" height="96"><defs><path id="a" d="M-312.127 0H16.476v96h-328.603z"/></defs><clipPath id="b"><use xlink:href="#a" overflow="visible"/></clipPath><g clip-path="url(#b)"><defs><path id="c" d="M-255.735 37.032s-1.692 2.749-2.018 5.221c0 0 7.256-3.442 11.386 4.103 0 0 2.031-2.487 1.941-5.37 0 0-1.941-5.064-6.952-5.064-1.254-.001-2.7.317-4.357 1.11"/></defs><clipPath id="d"><use xlink:href="#c" overflow="visible"/></clipPath><linearGradient id="e" gradientUnits="userSpaceOnUse" x1="-553.717" y1="855.488" x2="-552.842" y2="855.488" gradientTransform="scale(7.8637 -7.8637) rotate(4.192 11467.14 7543.63)"><stop offset="0" stop-color="#f4e6ef"/><stop offset=".178" stop-color="#e7cbdd"/><stop offset=".443" stop-color="#d9a6c3"/><stop offset=".678" stop-color="#cf8cb1"/><stop offset=".872" stop-color="#ca7da6"/><stop offset="1" stop-color="#c877a2"/></linearGradient><path clip-path="url(#d)" fill="url(#e)" d="M-258.514 35.977l14.106-1.034.833 11.357-14.106 1.034z"/><defs><path id="f" d="M-257.381 54.598l-13.384 5.834 2.999 6.337s8.591-3.835 13.466-6.302c0 0 14.919-7.206 9.874-19.482 0 0 .529 7.623-12.955 13.613"/></defs><clipPath id="g"><use xlink:href="#f" overflow="visible"/></clipPath><linearGradient id="h" gradientUnits="userSpaceOnUse" x1="-491.142" y1="957.192" x2="-490.267" y2="957.192" gradientTransform="scale(-27.7463 27.7463) rotate(38.38 1131.634 1197.583)"><stop offset="0" stop-color="#f4e6ef"/><stop offset=".178" stop-color="#e7cbdd"/><stop offset=".443" stop-color="#d9a6c3"/><stop offset=".678" stop-color="#cf8cb1"/><stop offset=".872" stop-color="#ca7da6"/><stop offset="1" stop-color="#c877a2"/></linearGradient><path clip-path="url(#g)" fill="url(#h)" d="M-226.831 56.831l-31.836 25.214-24.647-31.12 31.835-25.214z"/><defs><path id="i" d="M-263.185 57.13l5.06-2.208c-1.998-10.523 2.352-17.826 2.39-17.89-.107.048-9.903 4.471-7.45 20.098"/></defs><clipPath id="j"><use xlink:href="#i" overflow="visible"/></clipPath><linearGradient id="k" gradientUnits="userSpaceOnUse" x1="-560.649" y1="930.418" x2="-559.774" y2="930.418" gradientTransform="rotate(-85.163 -12431.325 2682.386) scale(15.6784)"><stop offset="0" stop-color="#f4e6ef"/><stop offset=".178" stop-color="#e7cbdd"/><stop offset=".443" stop-color="#d9a6c3"/><stop offset=".678" stop-color="#cf8cb1"/><stop offset=".872" stop-color="#ca7da6"/><stop offset="1" stop-color="#c877a2"/></linearGradient><path clip-path="url(#j)" fill="url(#k)" d="M-255.806 57.962l1.759-20.787-11.521-.974-1.759 20.786z"/><defs><path id="l" d="M-261.422 63.88c1.804 4.489 7.338 9.829 16.981 13.59 2.132 0 6.127-.804 6.127-.804-10.677-6.078-15.277-9.363-17.847-15.275-1.663.81-3.524 1.683-5.261 2.489"/></defs><clipPath id="m"><use xlink:href="#l" overflow="visible"/></clipPath><linearGradient id="n" gradientUnits="userSpaceOnUse" x1="-458.279" y1="1012.151" x2="-457.404" y2="1012.151" gradientTransform="rotate(59.153 5416.852 7491.83) scale(8.4485)"><stop offset="0" stop-color="#f4e6ef"/><stop offset=".178" stop-color="#e7cbdd"/><stop offset=".443" stop-color="#d9a6c3"/><stop offset=".678" stop-color="#cf8cb1"/><stop offset=".872" stop-color="#ca7da6"/><stop offset="1" stop-color="#c877a2"/></linearGradient><path clip-path="url(#m)" fill="url(#n)" d="M-268.5 65.618l13.153 22.024 24.111-14.399-13.153-22.024z"/><defs><path id="o" d="M-708.358-115.827H13.186V1450.82h-721.544z"/></defs><clipPath id="p"><use xlink:href="#o" overflow="visible"/></clipPath><path d="M-283.179 49.274h2.302v.72c0 1.815.949 2.56 3.481 2.56h5.298c3.712 0 4.894-.142 4.894-2.33v-.116c0-1.412-.403-2.188-3.368-2.188h-7.628c-3.482 0-4.779-1.123-4.779-3.915v-.863c0-2.39 1.352-3.713 7.456-3.713h3.8c5.584 0 6.361 1.613 6.361 3.683v.778h-2.302v-.144c0-2.247-1.496-2.303-4.203-2.303h-4.318c-3.54 0-4.317.346-4.317 2.014v.547c0 1.21.403 1.901 2.994 1.901h6.533c3.714 0 6.248.374 6.248 4.346v.059c0 4.115-3.801 4.26-6.822 4.26h-4.547c-3.657 0-7.081 0-7.081-4.403v-.893zm41.958-9.615h2.303v2.533h.057c.922-2.274 2.85-2.764 5.931-2.764h3.713c4.635 0 6.102 2.332 6.102 4.979v9.931h-2.476v-9.325c0-2.161-.604-3.571-5.41-3.571h-.635c-5.784 0-7.108 1.095-7.108 4.548v8.348h-2.477V39.659zm20.459 5.729c0-4.835 3.426-5.959 8.118-5.959h3.541c4.691 0 8.117 1.124 8.117 5.959v3.225c0 4.835-3.426 5.959-8.117 5.959h-3.541c-4.692 0-8.118-1.124-8.118-5.959v-3.225zm17.301.144c0-3.427-2.017-4.087-4.894-4.087h-5.038c-2.879 0-4.891.661-4.891 4.087v2.936c0 3.426 2.012 4.087 4.891 4.087h5.038c2.877 0 4.894-.661 4.894-4.087v-2.936zm3.411-5.873h6.016l4.49 10.362 4.492-10.362h6.016l-7.054 14.681h-6.908zm27.856-1.841h-5.531v-4.32h5.531v4.32zm0 16.523h-5.531V39.66h5.531v14.681zm1.968-8.666c0-3.743.864-6.245 7.858-6.245h1.642c2.272 0 4.606.631 4.95 2.936h.059v-8.868h5.526V54.34h-5.182v-2.705h-.058c-.605 1.812-1.986 2.936-5.323 2.936h-1.615c-6.994 0-7.858-2.504-7.858-6.245v-2.651zm5.353 2.188c0 1.641.26 2.561 2.907 2.561h3.252c2.186 0 3.34-.488 3.34-2.704v-1.44c0-2.215-1.154-2.705-3.34-2.705h-3.252c-2.647 0-2.907.92-2.907 2.561v1.727zm16.418 1.324c0-4.001 2.762-4.231 8.117-4.231 3.022 0 4.691.088 5.756 1.181v-1.295c0-1.44-.431-1.958-2.589-1.958h-3.253c-1.614 0-2.072.145-2.13 1.181h-5.354c0-3.973 1.957-4.635 6.619-4.635h6.42c3.796 0 5.816 1.813 5.816 5.267v9.644h-5.238v-1.67c-1.525 1.581-2.105 1.9-4.865 1.9h-3.774c-3.366.029-5.524-.72-5.524-4.174v-1.21zm9.845 1.928c3.8 0 4.144-.574 4.144-1.552 0-1.095-.317-1.497-3.368-1.497h-2.444c-2.332 0-2.822.516-2.822 1.726 0 .951.746 1.323 2.906 1.323h1.584z" clip-path="url(#p)" fill="#6385bb"/><path d="M-126.511 40.066h-.866v2.385h-.338v-2.385h-.886v-.254h2.09v.254zm2.018 1.937l.805-2.19h.51v2.638h-.297v-2.385l-.896 2.385h-.245l-.948-2.385v2.385h-.295v-2.638h.499l.867 2.19z" clip-path="url(#p)" fill="#232221"/><path d="M-23.221 37.279c-2.299 0-4.046.01-6.513.525-10.115 2.109-17.573 8.05-17.575 13.697-.001.431.043.862.131 1.287.732 3.508 4.398 6.001 9.489 7.012 1.075-4.151 3.551-13.652 3.551-13.652.486-1.88.756-2.605 1.237-3.423.626-1.057 1.629-1.93 3.034-2.057.764-.069 1.902.026 2.539.473.602.422.678.864.659 1.265-.042.832-.55 1.388-1.363 1.388-.832 0-1.093-.612-1.096-1.014-.004-.549.321-.634.317-1.039-.003-.208-.192-.533-.712-.452-.643.101-1.177.61-1.525 1.5a7.937 7.937 0 00-.307.956l-.64 2.484h4.161c-.547 1.977-1.471 5.491-1.731 6.455h-2.121l1.465-5.462h-1.818l-3.227 12.42a28.65 28.65 0 003.263.176 33.83 33.83 0 006.824-.73c9.819-2.049 17.33-7.857 17.338-13.342 0-.405-.04-.81-.125-1.209-.937-4.495-7.036-7.098-14.629-7.246h-.108m-18.619 5.711h2.59c3.788 0 4.055 1.933 3.734 3.31-.397 1.703-1.418 2.918-5.766 2.925l-.933 3.448h-2.124l2.621-9.682m19.071 7.475c0-2.339 2.106-4.334 4.357-4.334 1.119 0 2.087.52 2.087 1.405 0 .919-.732 1.864-1.838 2.222-.688.231-1.383.367-2.55.367-.028.245-.017.34-.017.472 0 .624.53 1.157 1.269 1.157.991 0 1.925-.909 2.036-1.019l.368.984a3.888 3.888 0 01-1.003.768 4.305 4.305 0 01-2.011.474c-1.608.002-2.698-1.004-2.698-2.496m11.786-4.361c1.172 0 1.347.697 1.347 1.238 0 .634-.447 1.069-.96 1.069-.39 0-.561-.156-.63-.225-.179-.179-.208-.362-.229-.514-.025-.18-.084-.354-.289-.386-.298-.048-.54.072-.792.296-.341.303-.632.782-.843 1.243a5.946 5.946 0 00-.317.833l-.819 3.012H-16l1.743-6.455h2.06l-.37 1.293c.485-.585 1.391-1.404 2.224-1.404m-16.539.112h5.319c-.615 2.029-3.507 3.676-4.306 5.213h3.346l-.333 1.242h-5.442c0-2.064 3.454-4.45 4.111-5.462h-2.964l.269-.993zm-12.456-2.235l-1.148 4.246c1.687-.004 2.746-.297 3.266-1.966.425-1.367.258-2.28-1.747-2.28h-.371zm20.509 3.531c-.529.406-.934 1.043-1.094 1.756.963-.032 1.506-.177 2.006-.568.449-.352.65-.749.65-1.082 0-.184-.114-.472-.63-.472-.234 0-.617.123-.932.366" clip-path="url(#p)" fill="#669ccd"/><defs><path id="q" d="M-18.829 47.526c-.529.405-.935 1.043-1.093 1.756.962-.033 1.504-.177 2.005-.569.448-.352.649-.749.649-1.082 0-.185-.112-.472-.629-.472-.235.001-.619.124-.932.367m-20.51-3.53c-.305 1.126-.734 2.719-1.148 4.246 1.686-.004 2.746-.297 3.267-1.965.424-1.367.258-2.281-1.747-2.281h-.372zm12.456 2.235h5.32c-.613 2.029-3.506 3.677-4.305 5.213h3.346l-.333 1.242H-28.3c0-2.065 3.456-4.449 4.112-5.462h-2.964l.269-.993zm4.755 4.248c0-2.339 2.105-4.335 4.356-4.335 1.119 0 2.086.52 2.086 1.406 0 .918-.731 1.862-1.836 2.222-.688.23-1.384.366-2.551.366-.029.246-.018.341-.018.473 0 .624.531 1.156 1.27 1.156.991 0 1.925-.907 2.034-1.019l.37.985a3.878 3.878 0 01-1.002.768 4.313 4.313 0 01-2.013.474c-1.608.002-2.696-1.004-2.696-2.496m11.785-4.36c1.172 0 1.348.697 1.348 1.237 0 .634-.448 1.07-.961 1.07-.39 0-.562-.157-.63-.225-.179-.179-.208-.363-.229-.514-.025-.18-.084-.353-.29-.387-.297-.047-.539.073-.792.297-.34.303-.63.782-.843 1.242-.145.318-.254.62-.315.833l-.82 3.013H-16l1.742-6.455h2.061l-.37 1.292c.486-.585 1.39-1.403 2.224-1.403m-30.858-3.116h2.469c3.787 0 4.054 1.933 3.733 3.31-.396 1.703-1.418 2.918-5.765 2.925-.43 1.584-.8 2.954-.933 3.447h-2.125l2.621-9.682h-.122.122zm11.466-5.199c-10.114 2.11-17.572 8.05-17.575 13.698 0 .431.043.862.131 1.287.732 3.508 4.398 6 9.489 7.012 1.077-4.151 3.551-13.652 3.551-13.652.486-1.88.756-2.605 1.237-3.423.626-1.057 1.629-1.931 3.034-2.058.765-.068 1.902.027 2.54.475.602.422.678.863.658 1.265-.041.83-.549 1.388-1.362 1.388-.833 0-1.093-.613-1.096-1.015-.005-.549.321-.633.316-1.04-.001-.207-.19-.532-.711-.451-.642.101-1.178.61-1.527 1.499-.08.207-.18.483-.305.956l-.64 2.484h4.16c-.544 1.977-1.47 5.49-1.729 6.455h-2.121l1.464-5.462h-1.818l-3.228 12.421c1.046.118 2.136.179 3.264.177a33.923 33.923 0 006.825-.731c9.818-2.049 17.33-7.857 17.337-13.341 0-.407-.04-.811-.124-1.21-.938-4.495-7.036-7.098-14.629-7.246h-.109l-.515-.014c-2.302.001-4.049.012-6.517.526"/></defs><clipPath id="r"><use xlink:href="#q" overflow="visible"/></clipPath><path clip-path="url(#r)" fill="#669ccd" d="M-47.28 37.292h39.719v23.086H-47.28z"/><defs><path id="s" d="M-18.826 47.514c-.528.406-.934 1.044-1.093 1.757.963-.032 1.505-.178 2.006-.569.449-.352.649-.748.649-1.082 0-.185-.113-.472-.629-.472-.234.001-.62.125-.933.366m-20.509-3.529l-1.149 4.246c1.687-.004 2.746-.297 3.266-1.966.426-1.367.259-2.28-1.746-2.28h-.371zm12.456 2.235h5.319c-.615 2.029-3.507 3.677-4.306 5.212h3.346l-.332 1.242h-5.444c0-2.064 3.455-4.448 4.113-5.461h-2.964l.268-.993zm4.754 4.248c0-2.338 2.105-4.334 4.355-4.334 1.12 0 2.087.52 2.087 1.405 0 .92-.732 1.864-1.838 2.223-.686.229-1.382.366-2.55.366-.028.246-.017.34-.017.474 0 .623.531 1.155 1.269 1.155.992 0 1.927-.908 2.036-1.019l.368.985a3.899 3.899 0 01-1.001.769 4.328 4.328 0 01-2.013.473c-1.608 0-2.696-1.005-2.696-2.497m11.785-4.36c1.173 0 1.348.697 1.348 1.237 0 .635-.448 1.07-.961 1.07-.39 0-.561-.157-.629-.224-.181-.181-.21-.363-.23-.515-.025-.179-.084-.353-.29-.387-.297-.047-.54.073-.792.296-.34.303-.63.782-.843 1.243a6.242 6.242 0 00-.316.834l-.82 3.011h-2.124l1.741-6.454h2.061l-.369 1.293c.486-.587 1.39-1.404 2.224-1.404m-30.857-3.115h2.468c3.787 0 4.055 1.932 3.735 3.309-.397 1.704-1.419 2.919-5.766 2.925l-.933 3.447h-2.125l2.621-9.681h-.123.123zm18.495-5.71h-2.367c-1.496.032-2.894.143-4.662.512-9.748 2.033-17.027 7.623-17.546 13.079v1.232c.021.226.055.449.102.673.732 3.508 4.396 5.999 9.489 7.013 1.075-4.151 3.55-13.654 3.55-13.654.487-1.879.756-2.604 1.237-3.423.627-1.057 1.629-1.931 3.034-2.058.764-.067 1.902.029 2.539.475.602.422.679.863.66 1.265-.042.832-.55 1.388-1.362 1.388-.833 0-1.094-.612-1.097-1.013-.005-.55.32-.634.315-1.04-.001-.209-.191-.534-.711-.453-.641.102-1.178.612-1.526 1.5a8.324 8.324 0 00-.307.956l-.64 2.485h4.162c-.546 1.977-1.471 5.491-1.731 6.454h-2.121l1.465-5.461h-1.818l-3.228 12.422c1.045.118 2.135.178 3.264.175a33.927 33.927 0 006.825-.73c9.818-2.05 17.33-7.857 17.337-13.342 0-.405-.04-.81-.123-1.209-.939-4.496-7.037-7.098-14.63-7.246h-.11z"/></defs><clipPath id="t"><use xlink:href="#s" overflow="visible"/></clipPath><path d="M-22.703 37.039h.172a35.494 35.494 0 00-7.201.76c-10.115 2.11-17.573 8.05-17.575 13.697-.001.432.044.862.131 1.287.732 3.509 4.398 6.001 9.489 7.012 1.076-4.151 3.551-13.652 3.551-13.652.486-1.879.756-2.605 1.237-3.422.626-1.058 1.629-1.931 3.034-2.058.765-.069 1.902.026 2.539.473.602.423.678.864.659 1.266-.042.831-.55 1.387-1.363 1.387-.833 0-1.093-.611-1.096-1.014-.004-.548.321-.634.318-1.039-.003-.208-.192-.533-.713-.452-.642.101-1.177.611-1.525 1.5a7.799 7.799 0 00-.306.956l-.64 2.484h4.16c-.546 1.978-1.471 5.491-1.73 6.455h-2.121l1.464-5.462h-1.818l-3.227 12.421c1.045.117 2.135.178 3.263.176 2.17-.004 4.474-.24 6.825-.731 9.819-2.049 17.33-7.856 17.337-13.342 0-.404-.04-.81-.124-1.209-.937-4.495-7.038-7.245-14.63-7.245h-.108m-18.619 5.71h2.59c3.789 0 4.055 1.933 3.734 3.31-.397 1.703-1.418 2.918-5.765 2.925l-.933 3.447h-2.125l2.621-9.682m19.071 7.476c0-2.339 2.107-4.334 4.358-4.334 1.118 0 2.086.521 2.086 1.405 0 .919-.731 1.864-1.837 2.222-.689.231-1.384.367-2.551.367-.027.245-.017.34-.017.473 0 .624.531 1.157 1.27 1.157.991 0 1.925-.909 2.035-1.02l.368.984a3.882 3.882 0 01-1.003.768 4.312 4.312 0 01-2.012.474c-1.607.002-2.697-1.003-2.697-2.496m11.787-4.36c1.172 0 1.347.697 1.347 1.238 0 .635-.447 1.069-.961 1.069-.39 0-.56-.156-.629-.225-.179-.179-.209-.361-.23-.514-.025-.179-.083-.353-.289-.386-.297-.048-.54.073-.792.296-.34.303-.631.782-.843 1.243a6.017 6.017 0 00-.316.833l-.819 3.012h-2.126l1.743-6.455h2.06l-.37 1.293c.485-.586 1.392-1.404 2.225-1.404m-16.54.112h5.319c-.614 2.029-3.506 3.677-4.306 5.213h3.346l-.333 1.242h-5.443c0-2.064 3.454-4.449 4.111-5.462h-2.964l.27-.993zm-12.457-2.235c-.305 1.126-.734 2.719-1.148 4.246 1.687-.004 2.746-.297 3.266-1.966.425-1.367.259-2.28-1.747-2.28h-.371zm20.51 3.53c-.529.406-.934 1.043-1.093 1.757.963-.033 1.505-.177 2.005-.569.449-.351.651-.748.651-1.082 0-.183-.114-.471-.631-.471-.234 0-.618.122-.932.365" clip-path="url(#t)" fill="#669ccd"/><path d="M-110.574 49.746c-.067 0-.444-.017-.503-.024v1.859c0 .126-.05.201-.209.201h-.67c-.134 0-.201-.059-.201-.227v-5.344c0-.167.05-.226.209-.226h1.215c.888 0 1.541.167 1.952.637.268.31.419.737.419 1.189 0 1.298-.98 1.935-2.212 1.935zm-.067-2.923h-.436V48.9c.067 0 .444.008.494.008.713 0 1.131-.335 1.131-1.055.001-.762-.468-1.03-1.189-1.03zm6.833 4.959h-.402c-.436 0-.628-.21-.687-.494h-.017c-.21.31-.754.595-1.215.595-1.182 0-1.717-.972-1.717-2.062 0-1.449.871-2.211 1.809-2.211.444 0 .863.201 1.072.486l.018-.226c.008-.092.075-.151.176-.151h.586c.109 0 .176.059.176.185v2.907c0 .117.017.201.051.242.024.025.059.034.101.034h.066c.101 0 .151.033.151.143v.394c0 .1-.067.158-.168.158zm-1.215-2.915a1.07 1.07 0 00-.829-.427c-.511 0-.946.436-.946 1.315 0 .703.268 1.298.888 1.298.41 0 .763-.31.888-.569v-1.617zm4.513 2.822c-.26.109-.603.193-.938.193-.428 0-.796-.109-1.006-.353-.26-.293-.268-.637-.268-1.248v-1.868h-.394c-.159 0-.185-.033-.185-.209v-.318c0-.101.05-.167.15-.167h.428v-.913c0-.142.075-.184.209-.201l.604-.075h.042c.108 0 .159.059.159.184v1.005h.946c.101 0 .159.034.159.143v.394c0 .101-.067.159-.168.159h-.938v1.918c0 .251.017.436.108.569.075.109.192.176.394.176.21 0 .386-.05.536-.101.034-.008.059-.017.084-.017.059 0 .092.033.109.101l.083.419a.115.115 0 01.009.05c.003.084-.039.126-.123.159zm3.064-3.861l-.092.595c-.009.076-.051.109-.117.109h-.034a.96.96 0 00-.226-.025c-.285 0-.595.151-.805.402v2.664c0 .135-.059.21-.2.21h-.612c-.134 0-.201-.067-.201-.21V47.93c0-.167.084-.209.21-.209h.536c.134 0 .209.042.209.159l.009.268c.26-.327.544-.536 1.014-.536.066 0 .159.017.234.034.059.017.084.042.084.109 0 .023 0 .048-.009.073zm2.353 4.055c-1.365 0-1.993-.922-1.993-2.145 0-1.207.737-2.128 2.044-2.128 1.365 0 1.993.905 1.993 2.136 0 1.207-.737 2.137-2.044 2.137zm.042-3.477c-.745 0-.988.645-.988 1.315 0 .687.209 1.365.955 1.365.737 0 .988-.653.988-1.341 0-.685-.218-1.339-.955-1.339zm5.752 3.225a2.737 2.737 0 01-1.214.252c-1.291 0-2.003-.805-2.003-2.095 0-1.298.779-2.178 2.078-2.178.377 0 .771.076 1.122.235.067.033.101.05.101.117a.403.403 0 01-.017.101l-.109.444c-.017.075-.05.117-.1.117a.247.247 0 01-.093-.034 2.107 2.107 0 00-.804-.184c-.721 0-1.131.511-1.131 1.332 0 .804.368 1.356 1.089 1.356.36 0 .586-.066.879-.184.025-.009.06-.025.084-.025.051 0 .084.042.101.101l.109.368a.546.546 0 01.024.143c.001.067-.04.101-.116.134zm1.373-4.448c-.276 0-.57-.184-.57-.519s.276-.536.57-.536c.284 0 .561.192.561.527-.001.327-.285.528-.561.528zm.302 4.599h-.587c-.15 0-.218-.059-.218-.21v-3.66c0-.143.084-.193.218-.193h.587c.134 0 .209.042.209.193v3.66c0 .152-.068.21-.209.21zm4.756 0h-.604c-.15 0-.2-.075-.2-.218v-2.279c0-.46-.126-.787-.637-.787-.327 0-.729.176-.989.402v2.672c0 .143-.059.21-.201.21h-.611c-.125 0-.201-.067-.201-.201v-3.652c0-.134.059-.209.21-.209h.544c.118 0 .193.034.201.159l.009.218c.386-.31.871-.486 1.357-.486.938 0 1.323.586 1.323 1.499v2.455c0 .142-.051.217-.201.217zm5.032 0h-.402c-.436 0-.628-.21-.687-.494h-.017c-.21.31-.754.595-1.215.595-1.181 0-1.718-.972-1.718-2.062 0-1.449.872-2.211 1.81-2.211.444 0 .863.201 1.072.486l.018-.226c.008-.092.075-.151.176-.151h.586c.109 0 .176.059.176.185v2.907c0 .117.017.201.051.242.024.025.059.034.101.034h.066c.101 0 .151.033.151.143v.394c0 .1-.068.158-.168.158zm-1.215-2.915a1.07 1.07 0 00-.829-.427c-.511 0-.946.436-.946 1.315 0 .703.268 1.298.888 1.298.41 0 .763-.31.888-.569v-1.617zm5.535 2.915h-.545c-.134 0-.192-.067-.201-.168l-.017-.226c-.234.268-.703.494-1.139.494-1.215 0-1.768-.964-1.768-2.086 0-1.173.653-2.195 1.834-2.195.377 0 .771.151 1.006.394V46.11c0-.151.042-.209.176-.226l.62-.084.083-.008c.101 0 .135.042.135.167v5.612c.001.144-.083.211-.184.211zm-.829-2.957a1.059 1.059 0 00-.805-.411c-.679 0-.98.636-.98 1.324 0 .687.252 1.323.931 1.323.31 0 .687-.209.854-.419v-1.817zm3.816 3.058c-1.365 0-1.993-.922-1.993-2.145 0-1.207.737-2.128 2.044-2.128 1.365 0 1.993.905 1.993 2.136 0 1.207-.737 2.137-2.044 2.137zm.042-3.477c-.745 0-.988.645-.988 1.315 0 .687.209 1.365.955 1.365.737 0 .988-.653.988-1.341 0-.685-.217-1.339-.955-1.339zm8.148 2.915a1.668 1.668 0 01-1.29.569c-.386 0-.771-.143-1.014-.394v1.877c0 .167-.075.218-.218.218h-.587c-.134 0-.201-.076-.201-.218v-5.462c0-.143.067-.193.201-.193h.503c.143 0 .218.034.227.159l.008.226c.243-.276.721-.486 1.173-.486.553 0 .938.209 1.215.511.36.394.527.979.527 1.566 0 .639-.193 1.217-.544 1.627zm-.754-2.546a.8.8 0 00-.688-.344c-.31 0-.695.201-.862.411v1.826c.167.226.502.41.82.41a.855.855 0 00.671-.31c.209-.26.302-.611.302-1.022 0-.393-.076-.737-.243-.971zm3.859 3.108c-1.365 0-1.993-.922-1.993-2.145 0-1.207.737-2.128 2.044-2.128 1.365 0 1.993.905 1.993 2.136 0 1.207-.737 2.137-2.044 2.137zm.042-3.477c-.745 0-.988.645-.988 1.315 0 .687.209 1.365.955 1.365.737 0 .988-.653.988-1.341 0-.685-.217-1.339-.955-1.339zm5.099-.578l-.092.595c-.009.076-.051.109-.117.109h-.034a.96.96 0 00-.226-.025c-.285 0-.595.151-.805.402v2.664c0 .135-.059.21-.201.21h-.611c-.134 0-.201-.067-.201-.21V47.93c0-.167.084-.209.21-.209h.536c.134 0 .209.042.209.159l.009.268c.26-.327.544-.536 1.014-.536.066 0 .159.017.234.034.059.017.084.042.084.109 0 .023 0 .048-.009.073z" fill="#669ccd"/></g><path d="M162.742 32.96c.09 0 .098 0 .16-.021a7.01 7.01 0 00.117-.041l.71-.245c.2-.06.305-.19.305-.378 0-.181-.182-.401-.405-.401a.822.822 0 00-.264.059l-.756.271-.052.024c-.129.06-.21.166-.21.271-.002.219.16.461.395.461M44.063 26.923H33.511c-2.979 0-4.652 1.7-4.652 4.282v30.783c0 2.743 1.912 4.364 4.475 4.364 2.565 0 4.47-1.538 4.47-4.284v-9.007h6.617c8.168 0 14.907-4.998 14.907-13.014-.001-7.854-6.501-13.124-15.265-13.124m6.641 11.452c0 .941-.371 1.842-.911 2.478-.535.634-6.502 5.965-6.502 5.965s-6.01-5.341-6.563-6.038a3.75 3.75 0 01-.85-2.404v-.006c.003-2.137 1.769-3.871 3.944-3.871 1.498 0 2.8.823 3.468 2.033a3.958 3.958 0 013.469-2.033c2.176 0 3.942 1.733 3.945 3.871v.005z" fill="#b9323b"/><path d="M14.67 27.664H4.487C1.611 27.664 0 29.305 0 31.797v30.086c0 2.649 1.839 4.215 4.315 4.215 2.474 0 4.312-1.487 4.312-4.136v-9.021h9.194c2.791 0 4.64-1.812 4.64-3.856 0-2.049-1.85-3.528-4.64-3.528H8.6V35.119h12.764c2.791 0 4.707-1.651 4.707-3.699 0-2.046-1.917-3.744-4.707-3.744l-6.694-.012z" fill="#b1a9a7"/><path d="M102.997 71.781c-.515 0-.928-.382-.928-.855V25.074c0-.476.413-.855.928-.855.507 0 .923.379.923.855v45.852c0 .473-.416.855-.923.855" fill="#b9323b"/><path d="M81.345 27.444c4.188 0 12.332 1.262 12.332 5.913 0 1.903-1.429 3.538-3.553 3.538-2.351 0-3.962-1.845-8.779-1.845-7.116 0-10.784 5.543-10.784 11.995 0 6.284 3.729 11.673 10.784 11.673 4.818 0 6.769-2.221 9.116-2.221 2.588 0 3.787 2.382 3.787 3.599 0 5.071-8.656 6.235-12.903 6.235-11.645 0-19.735-8.508-19.735-19.445.001-10.991 8.028-19.442 19.735-19.442" fill="#b1a9a7"/><path d="M153.689 39.22c-.201 0-.385.075-.591.161-.285.121-.609.255-1.122.255-1.326 0-1.92-1.055-1.92-2.097 0-1.074.594-2.157 1.92-2.157.516 0 .817.112 1.084.213.195.07.362.134.564.134.44 0 .771-.327.771-.759 0-.953-1.578-1.205-2.419-1.205-2.209 0-3.809 1.574-3.809 3.744 0 2.173 1.6 3.747 3.809 3.747.938 0 2.527-.267 2.527-1.266.001-.278-.271-.77-.814-.77m8.7-5.561c-2.354 0-4.063 1.603-4.063 3.811s1.709 3.811 4.063 3.811c2.354 0 4.062-1.604 4.062-3.811 0-2.173-1.747-3.811-4.062-3.811m0 1.584c1.423 0 2.06 1.119 2.06 2.227 0 1.026-.538 2.227-2.06 2.227-1.521 0-2.057-1.201-2.057-2.227.001-1.108.637-2.227 2.057-2.227m-45.769-1.648h-3.793a1.69 1.69 0 00-.649.111.837.837 0 00-.422.383 1.373 1.373 0 00-.121.604v5.629c0 .351.089.621.279.808.191.188.439.286.737.286.291 0 .532-.098.728-.285.183-.182.279-.455.279-.81V38.1h2.442c.289 0 .521-.066.683-.197a.677.677 0 00.254-.547.682.682 0 00-.246-.544c-.16-.136-.391-.203-.691-.203h-2.442v-1.49h2.962c.309 0 .549-.07.714-.21.158-.137.249-.33.249-.555s-.087-.41-.254-.552c-.16-.137-.4-.207-.709-.207m7.411.02c-.298 0-.54.096-.722.282-.179.18-.266.447-.266.789v3.559c0 .565-.115.989-.34 1.253-.213.255-.598.382-1.144.382-.403 0-.714-.066-.929-.192a.96.96 0 01-.434-.528c-.091-.246-.134-.565-.134-.946v-3.528c0-.338-.089-.604-.27-.789-.182-.186-.428-.282-.735-.282a.979.979 0 00-.719.282c-.175.185-.266.45-.266.789v3.45c0 .554.066 1.044.197 1.451.14.421.359.771.655 1.041.292.269.679.471 1.147.598.444.124.983.188 1.602.188.516 0 .981-.061 1.381-.176a2.987 2.987 0 001.065-.571c.354-.304.598-.667.726-1.074.124-.388.188-.88.188-1.457v-3.45c0-.343-.094-.613-.279-.793a.99.99 0 00-.723-.278m7.831 0c-.28 0-.509.092-.676.276-.163.169-.251.422-.251.744v3.636l-2.651-3.696-.248-.361a2.359 2.359 0 00-.259-.309 1.011 1.011 0 00-.327-.209c-.288-.124-.731-.113-1.065.09a.987.987 0 00-.415.447c-.069.158-.101.363-.101.623v5.534c0 .318.084.568.255.746a.915.915 0 00.689.277.93.93 0 00.685-.273c.175-.173.261-.427.261-.75v-3.563l2.583 3.648c.086.116.173.227.258.337.094.121.194.228.306.318.116.097.246.17.385.215.142.046.289.068.452.068.397 0 1.057-.151 1.057-1.133v-5.646c0-.322-.084-.576-.251-.744-.165-.182-.399-.275-.687-.275m9.037 3.881c0-1.356-.434-2.387-1.287-3.058a2.82 2.82 0 00-1.126-.556 6.421 6.421 0 00-1.429-.142H135c-.392 0-.689.086-.884.265-.191.175-.289.449-.289.813v5.262c0 .255.028.454.078.618a.773.773 0 00.374.447c.183.1.43.148.761.148h2.051c.373 0 .706-.022.998-.066.3-.046.585-.125.85-.234.273-.113.518-.265.74-.45.283-.237.516-.512.694-.814.179-.301.316-.64.404-1.014.078-.369.122-.776.122-1.219m-2.012-.01c0 .94-.239 1.608-.722 1.984-.098.078-.21.137-.349.182a1.816 1.816 0 01-.412.086 6.937 6.937 0 01-.597.017h-.99v-4.487h.837c.459 0 .855.046 1.172.136.288.082.537.281.744.591.211.319.317.823.317 1.491m7.004-2.393a15.676 15.676 0 00-.237-.561 2.566 2.566 0 00-.248-.425 1.31 1.31 0 00-.427-.354c-.355-.182-.932-.186-1.299.003a1.212 1.212 0 00-.421.358c-.101.14-.191.307-.276.503l-2.197 5.14a5.283 5.283 0 00-.18.45 1.079 1.079 0 00-.063.359c0 .228.097.425.289.591a.971.971 0 00.67.258c.298 0 .525-.089.671-.264.115-.145.249-.395.398-.777l.322-.795h2.879l.325.783c.051.112.112.243.182.386.078.164.148.283.218.364a.844.844 0 00.294.221c.116.052.255.082.413.082.266 0 .5-.089.694-.264.186-.177.283-.376.283-.594 0-.189-.084-.455-.26-.841l-2.03-4.623zm-.694 3.015h-1.736l.859-2.212.877 2.212zm11.282-4.493a.969.969 0 00-.716.282c-.183.183-.271.447-.271.789v5.655c0 .339.088.604.271.789a.976.976 0 00.716.285 1 1 0 00.728-.283c.183-.182.274-.449.274-.791v-5.655c0-.343-.091-.608-.279-.793a.993.993 0 00-.723-.278m17.255.277c-.169-.183-.403-.276-.691-.276-.28 0-.509.092-.679.276-.167.169-.243.422-.243.746v3.635l-2.655-3.696-.248-.361a2.133 2.133 0 00-.257-.309 1.148 1.148 0 00-.33-.209 1.256 1.256 0 00-1.069.088 1.038 1.038 0 00-.413.449c-.07.157-.097.362-.097.623v5.534c0 .318.082.568.254.744a.909.909 0 00.685.279c.28 0 .516-.097.688-.273.175-.173.261-.427.261-.75v-3.563l2.586 3.648c.084.113.167.227.254.339.098.121.201.227.309.316.121.097.248.17.385.215.136.046.289.069.452.069.397 0 1.058-.148 1.058-1.134v-5.644c-.001-.324-.088-.578-.25-.746M125.45 48.731c.121-.112.189-.295.189-.576 0-.799-.371-1.684-1.032-2.363a3.734 3.734 0 00-2.719-1.151 3.667 3.667 0 00-2.688 1.134 3.8 3.8 0 00-1.047 2.616c0 1.074.397 2.002 1.077 2.665.68.658 1.659 1.053 2.837 1.056 1.172.002 2.536-.47 3.102-1.029.191-.185.289-.371.289-.54a.762.762 0 00-.23-.506.768.768 0 00-.515-.227c-.216-.006-.553.18-.959.388-.404.201-.896.421-1.489.421-.525 0-1.031-.121-1.424-.379a1.647 1.647 0 01-.761-1.178l-.022-.148h4.772c.313-.003.504-.07.62-.183m-5.411-1.038c.103-.898.813-1.644 1.85-1.644.537 0 .978.176 1.295.473.319.301.51.71.571 1.171h-3.716zm10.343 2.346c-.349-.318-.532-.68-.582-1.053.115-.016.189-.033.189-.033 1.135-.163 2.06-.806 2.06-1.935 0-1.606-1.059-2.313-2.77-2.313h-1.96c-.556 0-.855.306-.855.797v5.756c0 .515.356.801.832.801.479 0 .837-.286.837-.801v-2.221h.013c.094.737.452 1.451 1.104 2.048.577.527 1.884 1.381 2.573.738.283-.258.328-.665.037-.934-.322-.297-.817-.246-1.478-.85m-2.247-2.108V46.12h1.145c.609 0 1.031.316 1.031.898 0 .576-.422.913-1.031.913h-1.145zM117.249 45.2a2.29 2.29 0 00-.895-.44c-.337-.091-.804-.134-1.423-.134h-2.002c-.397 0-.689.085-.889.255-.198.172-.303.448-.303.813v5.465c0 .33.094.592.268.774a.98.98 0 00.72.279.964.964 0 00.711-.282c.18-.186.271-.448.271-.782v-1.815h1.222c1.004 0 1.771-.204 2.288-.606.532-.404.799-1.007.799-1.785 0-.361-.064-.691-.192-.986a2.054 2.054 0 00-.575-.756m-1.222 1.772c0 .218-.052.395-.155.521-.104.131-.252.219-.458.282a3.373 3.373 0 01-.861.097h-.844v-1.788h.844c.791 0 1.108.14 1.229.254.165.16.245.367.245.634m22.54-2.469c-.292 0-.528.094-.707.276-.174.174-.26.437-.26.774v3.472c0 .553-.113.965-.331 1.223-.207.245-.582.371-1.114.371-.391 0-.698-.064-.904-.189a.972.972 0 01-.424-.51c-.088-.245-.131-.555-.131-.923v-3.444c0-.336-.087-.594-.261-.77-.183-.186-.422-.281-.72-.281-.289 0-.531.094-.707.281-.175.176-.26.434-.26.77v3.368c0 .549.061 1.023.192 1.419.133.407.349.752.635 1.014.289.266.667.462 1.12.589.438.118.968.182 1.568.182a4.9 4.9 0 001.351-.172 2.79 2.79 0 001.038-.559c.348-.3.589-.653.714-1.05.121-.382.18-.859.18-1.423v-3.368c0-.342-.091-.6-.267-.776-.183-.182-.42-.274-.712-.274m6.423 1.445c-.094-.227-.167-.409-.231-.547a2.055 2.055 0 00-.243-.413 1.178 1.178 0 00-.416-.347c-.346-.179-.914-.185-1.272 0-.17.091-.312.209-.416.352a2.73 2.73 0 00-.271.494L140 50.502c-.082.188-.14.336-.176.44-.042.121-.066.24-.066.353 0 .218.098.413.288.58a.98.98 0 00.659.248c.292 0 .515-.086.658-.258.112-.14.242-.388.389-.759l.309-.773h2.81l.315.762.028.067.148.31c.075.157.145.276.215.357a.803.803 0 00.288.213c.116.055.251.08.403.08a.963.963 0 00.677-.258c.189-.172.283-.367.283-.579 0-.185-.084-.453-.251-.823l-1.987-4.514zm-.687 2.94h-1.684l.837-2.143.847 2.143zm9.316-4.385c-.28 0-.503.092-.671.271-.16.167-.239.416-.239.732v3.534l-2.579-3.601-.086-.122c-.055-.076-.103-.152-.158-.227a1.84 1.84 0 00-.251-.298 1.05 1.05 0 00-.321-.21 1.228 1.228 0 00-1.044.086.976.976 0 00-.409.443 1.588 1.588 0 00-.098.608v5.403c0 .312.082.555.246.729a.91.91 0 00.682.273.907.907 0 00.67-.269c.172-.173.254-.419.254-.734v-3.467l2.518 3.547c.076.107.152.212.251.333.089.118.191.222.301.31.109.094.237.166.377.213.131.043.285.066.443.066.386 0 1.034-.146 1.034-1.113v-5.505c0-.321-.081-.565-.242-.737a.918.918 0 00-.678-.265m8.527 5.96l-1.988-4.515c-.094-.227-.17-.409-.233-.547a2.027 2.027 0 00-.242-.415 1.204 1.204 0 00-.421-.346c-.348-.181-.916-.185-1.269 0a1.156 1.156 0 00-.415.352 2.456 2.456 0 00-.27.494l-2.143 5.017c-.084.186-.14.334-.178.439a1.13 1.13 0 00-.061.353c0 .218.098.413.285.58.186.164.41.248.656.248.295 0 .516-.086.659-.259.112-.139.239-.386.388-.758l.312-.773h2.809l.319.762c.043.107.104.236.173.377.072.16.146.277.215.357.073.09.172.161.285.216a.957.957 0 00.407.078.96.96 0 00.674-.258c.188-.172.28-.367.28-.579.001-.186-.079-.453-.242-.823m-2.677-1.575h-1.681l.831-2.143.85 2.143zm20.603.916c-.218-.004-.552.184-.956.391-.407.206-.902.421-1.493.421-.531 0-1.032-.119-1.427-.379a1.656 1.656 0 01-.761-1.183l-.024-.148h4.785c.31 0 .5-.069.622-.179.121-.116.182-.3.182-.583 0-.799-.368-1.685-1.031-2.364a3.742 3.742 0 00-2.725-1.156 3.66 3.66 0 00-2.694 1.137 3.81 3.81 0 00-1.049 2.621c0 1.078.394 2.011 1.075 2.67.691.665 1.663 1.059 2.846 1.061 1.171.003 2.539-.468 3.114-1.031.191-.186.283-.37.283-.54a.72.72 0 00-.233-.507.74.74 0 00-.514-.231m-2.828-3.768c.537-.001.983.176 1.298.479.319.295.512.707.574 1.168h-3.727c.107-.898.814-1.649 1.855-1.647m-5.597-.72a2.782 2.782 0 00-1.111-.55c-.395-.094-.865-.14-1.417-.14h-2.029c-.391 0-.685.092-.874.265-.186.176-.286.446-.286.804v5.195c0 .249.025.45.076.612.057.191.182.34.373.443.172.097.422.146.743.146h2.033c.359 0 .686-.019.986-.063.301-.048.58-.125.841-.234.266-.112.512-.261.731-.443.279-.237.51-.507.688-.805.173-.297.307-.634.395-1.004.081-.365.122-.77.122-1.205 0-1.339-.428-2.356-1.271-3.021m-.72 3.014c0 .928-.237 1.584-.712 1.954-.092.076-.21.136-.34.182-.14.045-.274.075-.412.085a5.872 5.872 0 01-.583.021h-.977v-4.43h.819c.456 0 .843.043 1.159.134.288.079.525.271.735.58.208.318.311.813.311 1.474m-23.656 12.118c.113-.109.18-.291.18-.568 0-.786-.367-1.656-1.014-2.325a3.695 3.695 0 00-2.677-1.135 3.632 3.632 0 00-2.649 1.119 3.76 3.76 0 00-1.031 2.571c0 1.06.391 1.978 1.064 2.627.667.646 1.63 1.04 2.795 1.041 1.144 0 2.491-.462 3.056-1.014.186-.185.28-.364.28-.532a.707.707 0 00-.228-.494.735.735 0 00-.504-.227c-.218-.005-.543.178-.943.383-.403.2-.886.41-1.471.41-.519 0-1.01-.115-1.401-.37a1.647 1.647 0 01-.747-1.162l-.022-.145h4.7c.303-.001.491-.067.612-.179m-5.335-1.023c.107-.881.802-1.62 1.824-1.617.525-.003.962.173 1.274.465.31.297.501.698.565 1.151h-3.663zm-25.437 2.552c-.206 0-.386.073-.591.163-.289.121-.619.255-1.129.255-1.333 0-1.935-1.059-1.935-2.106 0-1.081.601-2.167 1.935-2.167.515 0 .819.112 1.09.21.195.072.364.134.565.134.444 0 .776-.328.776-.762 0-.956-1.592-1.211-2.431-1.211-2.224 0-3.83 1.584-3.83 3.765 0 2.184 1.606 3.768 3.83 3.768.943 0 2.54-.268 2.54-1.274.001-.278-.275-.775-.82-.775m22.647 0c-.209 0-.391.076-.595.163-.289.121-.615.255-1.126.255-1.338 0-1.938-1.059-1.938-2.106 0-1.081.6-2.167 1.938-2.167.516 0 .82.112 1.087.21.194.072.365.134.568.134a.761.761 0 00.777-.762c0-.956-1.592-1.211-2.433-1.211-2.219 0-3.832 1.584-3.832 3.765 0 2.184 1.612 3.768 3.832 3.768.941 0 2.54-.268 2.54-1.274.001-.278-.275-.775-.818-.775m14.587.743c-.327-.3-.823-.246-1.484-.849-.348-.319-.527-.683-.577-1.056l.189-.031c1.134-.161 2.057-.807 2.057-1.936 0-1.606-1.056-2.315-2.767-2.315h-1.961c-.553 0-.856.306-.856.801v5.754c0 .513.358.798.832.798.483 0 .84-.285.84-.798v-2.219h.012c.091.737.452 1.45 1.105 2.047.577.528 1.885 1.378 2.573.74.283-.264.328-.671.037-.936m-3.728-2.961v-1.811h1.145c.609 0 1.029.318 1.029.899 0 .574-.421.911-1.029.911h-1.145zm-28.232-3.658c.179 0 .207 0 .328-.045l.209-.07 1.277-.442c.403-.122.615-.392.615-.776 0-.379-.359-.814-.826-.814-.157 0-.31.045-.515.115l-1.372.489-.097.045c-.263.124-.433.347-.433.57 0 .442.336.928.814.928m1.398 1.712a24.828 24.828 0 00-.24-.561 2.07 2.07 0 00-.248-.427 1.282 1.282 0 00-.425-.349 1.364 1.364 0 00-.65-.14c-.251 0-.473.045-.647.14a1.236 1.236 0 00-.43.358c-.092.14-.188.309-.27.504l-2.197 5.139a6.544 6.544 0 00-.18.45 1.116 1.116 0 00-.064.359c0 .225.101.424.292.592.189.17.418.255.668.255.303 0 .527-.089.671-.265.115-.142.246-.394.398-.776l.324-.793h2.882l.321.78c.049.112.112.242.182.389.079.168.149.283.219.364a.864.864 0 00.294.221c.119.052.255.08.41.08a.991.991 0 00.691-.263c.191-.179.288-.376.288-.594 0-.189-.082-.456-.255-.838l-2.034-4.625zm-.697 3.014h-1.736l.858-2.212.878 2.212zm9.445-4.492c-.283 0-.51.092-.679.275-.163.172-.246.424-.246.749v3.635l-2.653-3.699c-.082-.122-.169-.245-.248-.359a2.26 2.26 0 00-.257-.307 1.159 1.159 0 00-.33-.212 1.27 1.27 0 00-1.069.089 1.007 1.007 0 00-.412.45c-.069.157-.098.363-.098.621v5.535c0 .316.082.568.249.744.18.185.41.277.695.277a.92.92 0 00.682-.271c.174-.176.261-.428.261-.75v-3.565l2.583 3.645c.084.116.17.228.261.342.085.116.191.222.306.316.115.097.248.168.383.216.14.043.288.067.455.067.394 0 1.053-.148 1.053-1.134v-5.641c0-.325-.084-.577-.243-.749-.171-.182-.405-.274-.693-.274" fill="#b9323b"/></svg>