<?xml version="1.0" encoding="utf-8"?>
<!-- Generator: Adobe Illustrator 23.1.1, SVG Export Plug-In . SVG Version: 6.00 Build 0)  -->
<svg version="1.1" id="Capa_1" xmlns="http://www.w3.org/2000/svg" xmlns:xlink="http://www.w3.org/1999/xlink" x="0px" y="0px"
	 width="267.2px" height="50px" viewBox="0 0 267.2 50" style="enable-background:new 0 0 267.2 50;" xml:space="preserve">
<style type="text/css">
	.st0{clip-path:url(#SVGID_2_);fill:url(#SVGID_3_);}
	.st1{clip-path:url(#SVGID_5_);fill:url(#SVGID_6_);}
	.st2{clip-path:url(#SVGID_8_);fill:url(#SVGID_9_);}
	.st3{clip-path:url(#SVGID_11_);fill:url(#SVGID_12_);}
	.st4{fill:#6385BB;}
	.st5{fill:#232221;}
	.st6{fill:none;}
	.st7{clip-path:url(#SVGID_14_);fill:#669CCD;}
	.st8{fill:#669CCD;}
	.st9{font-family:'FSAlbert-Bold';}
	.st10{font-size:9.1151px;}
</style>
<g>
	<defs>
		<path id="SVGID_1_" d="M25.5,8.6c0,0-1.5,2.5-1.8,4.8c0,0,6.6-3.1,10.4,3.7c0,0,1.8-2.3,1.8-4.9c0,0-1.8-4.6-6.3-4.6
			C28.3,7.6,27,7.9,25.5,8.6"/>
	</defs>
	<clipPath id="SVGID_2_">
		<use xlink:href="#SVGID_1_"  style="overflow:visible;"/>
	</clipPath>
	
		<linearGradient id="SVGID_3_" gradientUnits="userSpaceOnUse" x1="-322.9655" y1="831.7343" x2="-322.1685" y2="831.7343" gradientTransform="matrix(7.8427 -0.5748 -0.5748 -7.8427 3035.2598 6350.1826)">
		<stop  offset="0" style="stop-color:#F4E6EF"/>
		<stop  offset="0.1781" style="stop-color:#E7CBDD"/>
		<stop  offset="0.443" style="stop-color:#D9A6C3"/>
		<stop  offset="0.6779" style="stop-color:#CF8CB1"/>
		<stop  offset="0.8716" style="stop-color:#CA7DA6"/>
		<stop  offset="1" style="stop-color:#C877A2"/>
	</linearGradient>
	<polygon class="st0" points="22.9,7.7 35.8,6.7 36.5,17.1 23.7,18 	"/>
</g>
<g>
	<defs>
		<path id="SVGID_4_" d="M24,24.6L11.8,30l2.7,5.8c0,0,7.8-3.5,12.3-5.7c0,0,13.6-6.6,9-17.7C35.8,12.2,36.3,19.2,24,24.6"/>
	</defs>
	<clipPath id="SVGID_5_">
		<use xlink:href="#SVGID_4_"  style="overflow:visible;"/>
	</clipPath>
	
		<linearGradient id="SVGID_6_" gradientUnits="userSpaceOnUse" x1="-269.5086" y1="934.4724" x2="-268.7116" y2="934.4724" gradientTransform="matrix(-21.7507 17.2268 17.2268 21.7507 -21923.1621 -15667.1494)">
		<stop  offset="0" style="stop-color:#F4E6EF"/>
		<stop  offset="0.1781" style="stop-color:#E7CBDD"/>
		<stop  offset="0.443" style="stop-color:#D9A6C3"/>
		<stop  offset="0.6779" style="stop-color:#CF8CB1"/>
		<stop  offset="0.8716" style="stop-color:#CA7DA6"/>
		<stop  offset="1" style="stop-color:#C877A2"/>
	</linearGradient>
	<polygon class="st1" points="51.8,26.7 22.8,49.6 0.4,21.3 29.3,-1.7 	"/>
</g>
<g>
	<defs>
		<path id="SVGID_7_" d="M18.7,27l4.6-2c-1.8-9.6,2.1-16.2,2.2-16.3C25.4,8.7,16.5,12.7,18.7,27"/>
	</defs>
	<clipPath id="SVGID_8_">
		<use xlink:href="#SVGID_7_"  style="overflow:visible;"/>
	</clipPath>
	
		<linearGradient id="SVGID_9_" gradientUnits="userSpaceOnUse" x1="-336.576" y1="910.2518" x2="-335.779" y2="910.2518" gradientTransform="matrix(1.3219 -15.6226 15.6226 1.3219 -13755.4717 -6433.8354)">
		<stop  offset="0" style="stop-color:#F4E6EF"/>
		<stop  offset="0.1781" style="stop-color:#E7CBDD"/>
		<stop  offset="0.443" style="stop-color:#D9A6C3"/>
		<stop  offset="0.6779" style="stop-color:#CF8CB1"/>
		<stop  offset="0.8716" style="stop-color:#CA7DA6"/>
		<stop  offset="1" style="stop-color:#C877A2"/>
	</linearGradient>
	<polygon class="st2" points="25.4,27.7 27,8.8 16.5,7.9 14.9,26.8 	"/>
</g>
<g>
	<defs>
		<path id="SVGID_10_" d="M20.3,33.1c1.6,4.1,6.7,9,15.5,12.4c1.9,0,5.6-0.7,5.6-0.7c-9.7-5.5-13.9-8.5-16.3-13.9
			C23.6,31.6,21.9,32.4,20.3,33.1"/>
	</defs>
	<clipPath id="SVGID_11_">
		<use xlink:href="#SVGID_10_"  style="overflow:visible;"/>
	</clipPath>
	
		<linearGradient id="SVGID_12_" gradientUnits="userSpaceOnUse" x1="-232.0907" y1="982.0319" x2="-231.2937" y2="982.0319" gradientTransform="matrix(4.3319 7.2534 -7.2534 4.3319 8154.3311 -2540.7683)">
		<stop  offset="0" style="stop-color:#F4E6EF"/>
		<stop  offset="0.1781" style="stop-color:#E7CBDD"/>
		<stop  offset="0.443" style="stop-color:#D9A6C3"/>
		<stop  offset="0.6779" style="stop-color:#CF8CB1"/>
		<stop  offset="0.8716" style="stop-color:#CA7DA6"/>
		<stop  offset="1" style="stop-color:#C877A2"/>
	</linearGradient>
	<polygon class="st3" points="13.8,34.7 25.8,54.7 47.8,41.6 35.8,21.6 	"/>
</g>
<path class="st4" d="M0.5,19.8h2.1v0.7c0,1.7,0.9,2.3,3.2,2.3h4.8c3.4,0,4.5-0.1,4.5-2.1v-0.1c0-1.3-0.4-2-3.1-2H5
	c-3.2,0-4.4-1-4.4-3.6v-0.8c0-2.2,1.2-3.4,6.8-3.4h3.5c5.1,0,5.8,1.5,5.8,3.4v0.7h-2.1v-0.1c0-2-1.4-2.1-3.8-2.1H6.8
	c-3.2,0-3.9,0.3-3.9,1.8V15c0,1.1,0.4,1.7,2.7,1.7h5.9c3.4,0,5.7,0.3,5.7,4v0.1c0,3.7-3.5,3.9-6.2,3.9H6.9c-3.3,0-6.4,0-6.4-4V19.8z
	"/>
<path class="st4" d="M38.7,11h2.1v2.3h0.1c0.8-2.1,2.6-2.5,5.4-2.5h3.4c4.2,0,5.6,2.1,5.6,4.5v9h-2.3v-8.5c0-2-0.5-3.3-4.9-3.3h-0.6
	c-5.3,0-6.5,1-6.5,4.1v7.6h-2.3V11z"/>
<path class="st4" d="M57.3,16.3c0-4.4,3.1-5.4,7.4-5.4h3.2c4.3,0,7.4,1,7.4,5.4v2.9c0,4.4-3.1,5.4-7.4,5.4h-3.2
	c-4.3,0-7.4-1-7.4-5.4V16.3z M73.1,16.4c0-3.1-1.8-3.7-4.5-3.7H64c-2.6,0-4.5,0.6-4.5,3.7v2.7c0,3.1,1.8,3.7,4.5,3.7h4.6
	c2.6,0,4.5-0.6,4.5-3.7V16.4z"/>
<polygon class="st4" points="76.2,11 81.7,11 85.8,20.5 89.8,11 95.3,11 88.9,24.4 82.6,24.4 "/>
<path class="st4" d="M101.6,9.4h-5V5.4h5V9.4z M101.6,24.4h-5V11h5V24.4z"/>
<path class="st4" d="M103.4,16.5c0-3.4,0.8-5.7,7.2-5.7h1.5c2.1,0,4.2,0.6,4.5,2.7h0.1V5.4h5v19h-4.7v-2.5h-0.1
	c-0.6,1.7-1.8,2.7-4.8,2.7h-1.5c-6.4,0-7.2-2.3-7.2-5.7V16.5z M108.2,18.5c0,1.5,0.2,2.3,2.6,2.3h3c2,0,3-0.4,3-2.5v-1.3
	c0-2-1.1-2.5-3-2.5h-3c-2.4,0-2.6,0.8-2.6,2.3V18.5z"/>
<path class="st4" d="M123.2,19.7c0-3.6,2.5-3.9,7.4-3.9c2.8,0,4.3,0.1,5.2,1.1v-1.2c0-1.3-0.4-1.8-2.4-1.8h-3
	c-1.5,0-1.9,0.1-1.9,1.1h-4.9c0-3.6,1.8-4.2,6-4.2h5.8c3.5,0,5.3,1.7,5.3,4.8v8.8h-4.8v-1.5c-1.4,1.4-1.9,1.7-4.4,1.7h-3.4
	c-3.1,0-5-0.7-5-3.8V19.7z M132.1,21.5c3.5,0,3.8-0.5,3.8-1.4c0-1-0.3-1.4-3.1-1.4h-2.2c-2.1,0-2.6,0.5-2.6,1.6
	c0,0.9,0.7,1.2,2.6,1.2H132.1z"/>
<path class="st5" d="M143.2,11.4h-0.8v2.2h-0.3v-2.2h-0.8v-0.2h1.9V11.4z M145,13.2l0.7-2h0.5v2.4h-0.3v-2.2l-0.8,2.2h-0.2l-0.9-2.2
	v2.2h-0.3v-2.4h0.5L145,13.2z"/>
<rect x="-357" y="-119.4" class="st6" width="609.7" height="1323.8"/>
<g>
	<defs>
		<path id="SVGID_13_" d="M252.4,17.9c-0.7,0.5-1.2,1.4-1.4,2.3c1.3,0,2-0.2,2.6-0.7c0.6-0.5,0.9-1,0.9-1.4c0-0.2-0.1-0.6-0.8-0.6
			C253.4,17.4,252.8,17.6,252.4,17.9 M225.4,13.3c-0.4,1.5-1,3.6-1.5,5.6c2.2,0,3.6-0.4,4.3-2.6c0.6-1.8,0.3-3-2.3-3H225.4z
			 M241.8,16.2h7c-0.8,2.7-4.6,4.8-5.7,6.9h4.4l-0.4,1.6H240c0-2.7,4.5-5.9,5.4-7.2h-3.9L241.8,16.2z M248.1,21.8
			c0-3.1,2.8-5.7,5.7-5.7c1.5,0,2.7,0.7,2.7,1.8c0,1.2-1,2.5-2.4,2.9c-0.9,0.3-1.8,0.5-3.4,0.5c0,0.3,0,0.4,0,0.6
			c0,0.8,0.7,1.5,1.7,1.5c1.3,0,2.5-1.2,2.7-1.3l0.5,1.3c-0.4,0.4-0.8,0.8-1.3,1c-0.8,0.4-1.7,0.6-2.6,0.6
			C249.5,25.1,248.1,23.8,248.1,21.8 M263.6,16.1c1.5,0,1.8,0.9,1.8,1.6c0,0.8-0.6,1.4-1.3,1.4c-0.5,0-0.7-0.2-0.8-0.3
			c-0.2-0.2-0.3-0.5-0.3-0.7c0-0.2-0.1-0.5-0.4-0.5c-0.4-0.1-0.7,0.1-1,0.4c-0.4,0.4-0.8,1-1.1,1.6c-0.2,0.4-0.3,0.8-0.4,1.1l-1.1,4
			h-2.8l2.3-8.5h2.7l-0.5,1.7C261.3,17.1,262.5,16.1,263.6,16.1 M223,12h3.2c5,0,5.3,2.5,4.9,4.4c-0.5,2.2-1.9,3.8-7.6,3.8
			c-0.6,2.1-1.1,3.9-1.2,4.5h-2.8C220.1,22.8,223,12,223,12h-0.2H223z M247.3,4.4h-3.1c-2,0-3.8,0.2-6.1,0.7
			c-12.8,2.7-22.4,10-23.1,17.2V24c0,0.3,0.1,0.6,0.1,0.9c1,4.6,5.8,7.9,12.5,9.2c1.4-5.5,4.7-18,4.7-18c0.6-2.5,1-3.4,1.6-4.5
			c0.8-1.4,2.1-2.5,4-2.7c1-0.1,2.5,0,3.3,0.6c0.8,0.6,0.9,1.1,0.9,1.7c-0.1,1.1-0.7,1.8-1.8,1.8c-1.1,0-1.4-0.8-1.4-1.3
			c0-0.7,0.4-0.8,0.4-1.4c0-0.3-0.3-0.7-0.9-0.6c-0.8,0.1-1.6,0.8-2,2c-0.1,0.3-0.2,0.6-0.4,1.3l-0.8,3.3h5.5
			c-0.7,2.6-1.9,7.2-2.3,8.5h-2.8l1.9-7.2h-2.4l-4.2,16.3c1.4,0.2,2.8,0.2,4.3,0.2c2.9,0,5.9-0.3,9-1c12.9-2.7,22.8-10.3,22.8-17.6
			c0-0.5-0.1-1.1-0.2-1.6c-1.2-5.9-9.3-9.3-19.3-9.5H247.3z"/>
	</defs>
	<clipPath id="SVGID_14_">
		<use xlink:href="#SVGID_13_"  style="overflow:visible;"/>
	</clipPath>
	<path class="st7" d="M247.3,4.1h0.2c-3,0-6.2,0.3-9.5,1c-13.3,2.8-23.1,10.6-23.1,18c0,0.6,0.1,1.1,0.2,1.7c1,4.6,5.8,7.9,12.5,9.2
		c1.4-5.5,4.7-18,4.7-18c0.6-2.5,1-3.4,1.6-4.5c0.8-1.4,2.1-2.5,4-2.7c1-0.1,2.5,0,3.3,0.6c0.8,0.6,0.9,1.1,0.9,1.7
		c-0.1,1.1-0.7,1.8-1.8,1.8c-1.1,0-1.4-0.8-1.4-1.3c0-0.7,0.4-0.8,0.4-1.4c0-0.3-0.3-0.7-0.9-0.6c-0.8,0.1-1.5,0.8-2,2
		c-0.1,0.3-0.2,0.6-0.4,1.3l-0.8,3.3h5.5c-0.7,2.6-1.9,7.2-2.3,8.5h-2.8l1.9-7.2H235l-4.2,16.3c1.4,0.2,2.8,0.2,4.3,0.2
		c2.9,0,5.9-0.3,9-1c12.9-2.7,22.8-10.3,22.8-17.6c0-0.5-0.1-1.1-0.2-1.6c-1.2-5.9-9.3-9.5-19.3-9.5h-0.1 M222.8,12h3.4
		c5,0,5.3,2.5,4.9,4.4c-0.5,2.2-1.9,3.8-7.6,3.8c-0.6,2.1-1.1,3.9-1.2,4.5h-2.8C220.1,22.8,223,12,223,12 M248.1,21.8
		c0-3.1,2.8-5.7,5.7-5.7c1.5,0,2.7,0.7,2.7,1.8c0,1.2-1,2.5-2.4,2.9c-0.9,0.3-1.8,0.5-3.4,0.5c0,0.3,0,0.4,0,0.6
		c0,0.8,0.7,1.5,1.7,1.5c1.3,0,2.5-1.2,2.7-1.3l0.5,1.3c-0.4,0.4-0.8,0.8-1.3,1c-0.8,0.4-1.7,0.6-2.6,0.6
		C249.5,25.1,248.1,23.8,248.1,21.8 M263.6,16.1c1.5,0,1.8,0.9,1.8,1.6c0,0.8-0.6,1.4-1.3,1.4c-0.5,0-0.7-0.2-0.8-0.3
		c-0.2-0.2-0.3-0.5-0.3-0.7c0-0.2-0.1-0.5-0.4-0.5c-0.4-0.1-0.7,0.1-1,0.4c-0.4,0.4-0.8,1-1.1,1.6c-0.2,0.4-0.3,0.8-0.4,1.1l-1.1,4
		h-2.8l2.3-8.5h2.7l-0.5,1.7C261.3,17.1,262.5,16.1,263.6,16.1 M241.8,16.2h7c-0.8,2.7-4.6,4.8-5.7,6.9h4.4l-0.4,1.6H240
		c0-2.7,4.5-5.9,5.4-7.2h-3.9L241.8,16.2z M225.4,13.3c-0.4,1.5-1,3.6-1.5,5.6c2.2,0,3.6-0.4,4.3-2.6c0.6-1.8,0.3-3-2.3-3H225.4z
		 M252.4,17.9c-0.7,0.5-1.2,1.4-1.4,2.3c1.3,0,2-0.2,2.6-0.7c0.6-0.5,0.9-1,0.9-1.4c0-0.2-0.1-0.6-0.8-0.6
		C253.4,17.4,252.8,17.6,252.4,17.9"/>
</g>
<text transform="matrix(1 0 0 1 147.1735 24.3283)" class="st8 st9 st10">Patrocinado por</text>
<rect x="-25.9" y="-25.1" class="st6" width="299.3" height="87.4"/>
</svg>
