<svg xmlns="http://www.w3.org/2000/svg" width="475" height="125"><path d="M426.786 23.093c.236 0 .256 0 .419-.054l.306-.106 1.859-.642c.523-.158.798-.499.798-.991 0-.473-.477-1.05-1.061-1.05-.202 0-.412.059-.692.154l-1.981.71-.137.063c-.339.156-.551.434-.551.71.001.573.426 1.206 1.04 1.206M115.826 7.274H88.18c-7.805 0-12.19 4.455-12.19 11.221v80.656c0 7.187 5.01 11.435 11.724 11.435 6.722 0 11.713-4.029 11.713-11.224V75.761h17.337c21.401 0 39.058-13.096 39.058-34.099 0-20.58-17.032-34.388-39.996-34.388m17.403 30.007c0 2.466-.973 4.827-2.388 6.491-1.403 1.661-17.036 15.629-17.036 15.629S98.059 45.406 96.61 43.581c-1.462-1.825-2.228-3.924-2.228-6.3v-.015c.008-5.6 4.635-10.142 10.333-10.142 3.924 0 7.336 2.157 9.087 5.327a10.372 10.372 0 019.09-5.327c5.702 0 10.329 4.542 10.337 10.142v.015zM38.811 9.216H12.13C4.595 9.216.374 13.515.374 20.046v78.831c0 6.941 4.819 11.045 11.306 11.045 6.484 0 11.298-3.896 11.298-10.837V75.447h24.09c7.312 0 12.158-4.748 12.158-10.102 0-5.37-4.846-9.243-12.158-9.243H22.909V28.749h33.446c7.312 0 12.334-4.326 12.334-9.692 0-5.362-5.022-9.81-12.334-9.81l-17.544-.031zM270.243 124.81c-1.348 0-2.431-1-2.431-2.239V2.43c0-1.247 1.083-2.239 2.431-2.239 1.329 0 2.419.993 2.419 2.239v120.14c.001 1.239-1.09 2.24-2.419 2.24M213.514 8.639c10.974 0 32.313 3.307 32.313 15.492 0 4.987-3.744 9.27-9.309 9.27-6.159 0-10.38-4.834-23.003-4.834-18.646 0-28.256 14.522-28.256 31.429 0 16.465 9.77 30.585 28.256 30.585 12.623 0 17.735-5.819 23.887-5.819 6.781 0 9.923 6.242 9.923 9.431 0 13.287-22.679 16.336-33.809 16.336-30.511 0-51.709-22.292-51.709-50.951-.002-28.795 21.032-50.939 51.707-50.939m189.553 30.855c-.528 0-1.008.196-1.548.422-.746.317-1.594.668-2.939.668-3.474 0-5.03-2.763-5.03-5.495 0-2.814 1.555-5.651 5.03-5.651 1.352 0 2.142.293 2.841.559.512.184.95.352 1.477.352 1.153 0 2.021-.856 2.021-1.989 0-2.497-4.135-3.158-6.339-3.158-5.788 0-9.982 4.123-9.982 9.81 0 5.694 4.193 9.818 9.982 9.818 2.458 0 6.62-.7 6.62-3.318.001-.728-.71-2.018-2.133-2.018m22.797-14.569c-6.167 0-10.646 4.201-10.646 9.985s4.479 9.986 10.646 9.986c6.167 0 10.642-4.202 10.642-9.986-.001-5.694-4.577-9.985-10.642-9.985m0 4.15c3.728 0 5.397 2.931 5.397 5.835 0 2.689-1.411 5.835-5.397 5.835s-5.389-3.146-5.389-5.835c-.001-2.904 1.668-5.835 5.389-5.835M305.94 24.757h-9.939c-.66 0-1.243.098-1.7.29a2.19 2.19 0 00-1.106 1.004c-.207.426-.317.95-.317 1.583v14.749c0 .919.234 1.626.731 2.118.5.493 1.149.75 1.931.75.762 0 1.395-.258 1.907-.746.481-.477.731-1.192.731-2.122v-5.819h6.398c.758 0 1.364-.172 1.79-.516.434-.352.664-.844.664-1.434 0-.586-.223-1.071-.645-1.426-.418-.356-1.024-.531-1.81-.531h-6.398v-3.904h7.762c.809 0 1.438-.184 1.872-.551.414-.36.653-.864.653-1.454s-.227-1.075-.664-1.446c-.422-.361-1.052-.545-1.86-.545m19.418.053c-.782 0-1.415.25-1.892.739-.469.473-.696 1.172-.696 2.067v9.325c0 1.481-.301 2.591-.891 3.283-.559.668-1.567 1-2.998 1-1.055 0-1.872-.172-2.435-.504-.547-.328-.93-.778-1.137-1.384-.238-.645-.352-1.481-.352-2.478v-9.243c0-.887-.234-1.582-.707-2.067-.477-.489-1.122-.739-1.927-.739-.766 0-1.395.25-1.884.739-.457.485-.696 1.18-.696 2.067v9.04c0 1.45.172 2.736.516 3.803.367 1.102.942 2.021 1.716 2.728.766.704 1.778 1.235 3.005 1.567 1.165.324 2.576.492 4.197.492 1.352 0 2.572-.16 3.619-.461a7.8 7.8 0 002.79-1.497c.926-.797 1.567-1.747 1.903-2.814.324-1.016.492-2.306.492-3.818v-9.04c0-.899-.246-1.606-.731-2.079-.481-.475-1.118-.726-1.892-.726m20.518 0c-.735 0-1.333.242-1.77.723-.426.442-.657 1.106-.657 1.95v9.528l-6.945-9.685-.649-.946a5.95 5.95 0 00-.68-.809 2.685 2.685 0 00-.856-.547c-.754-.324-1.915-.297-2.79.235-.504.293-.864.684-1.086 1.172-.18.415-.266.95-.266 1.633v14.5c0 .832.219 1.489.668 1.954.457.48 1.067.727 1.806.727.731 0 1.325-.246 1.794-.715.457-.453.684-1.118.684-1.966v-9.337l6.769 9.56c.227.305.453.594.676.883.246.317.508.598.801.832.305.254.645.446 1.008.563a3.76 3.76 0 001.184.179c1.04 0 2.771-.395 2.771-2.97v-14.79c0-.844-.219-1.508-.657-1.95-.437-.482-1.051-.724-1.805-.724m23.68 10.166c0-3.553-1.137-6.253-3.373-8.012a7.4 7.4 0 00-2.951-1.458c-1.043-.242-2.298-.371-3.744-.371h-5.389c-1.028 0-1.806.227-2.318.696-.5.458-.758 1.176-.758 2.13v13.788c0 .668.074 1.188.203 1.618.152.492.492.899.981 1.172.481.262 1.126.387 1.993.387h5.374c.977 0 1.849-.058 2.615-.172a9.776 9.776 0 002.228-.614 7.54 7.54 0 001.938-1.18 8.197 8.197 0 001.817-2.134 9.395 9.395 0 001.059-2.657c.207-.965.325-2.032.325-3.193m-5.272-.023c0 2.462-.625 4.213-1.892 5.198-.258.203-.551.36-.915.477a4.845 4.845 0 01-1.079.227c-.356.035-.868.043-1.563.043h-2.595V29.141h2.192c1.204 0 2.239.121 3.072.355.754.215 1.407.735 1.95 1.548.552.837.83 2.158.83 3.909m18.35-6.271a40.154 40.154 0 00-.621-1.469 6.83 6.83 0 00-.649-1.113 3.416 3.416 0 00-1.118-.926c-.93-.477-2.443-.489-3.404.008a3.171 3.171 0 00-1.102.938c-.266.367-.5.805-.723 1.317l-5.757 13.468c-.219.508-.383.895-.473 1.18a2.825 2.825 0 00-.164.942c0 .598.254 1.114.758 1.548.5.453 1.094.676 1.755.676.782 0 1.376-.234 1.759-.692.301-.379.653-1.036 1.043-2.036l.844-2.083h7.543l.852 2.052c.133.293.293.637.477 1.012.203.43.387.742.571.953.199.239.461.434.77.579a2.63 2.63 0 001.083.215c.696 0 1.309-.234 1.817-.692.489-.465.743-.985.743-1.555 0-.496-.219-1.192-.68-2.204l-5.324-12.118zm-1.817 7.898h-4.549l2.251-5.795 2.298 5.795zm29.559-11.77c-.766 0-1.391.25-1.876.739-.481.48-.711 1.172-.711 2.067v14.816c0 .887.231 1.583.711 2.068.496.492 1.122.746 1.876.746.774 0 1.411-.254 1.907-.742.481-.477.719-1.176.719-2.071V27.616c0-.899-.238-1.594-.731-2.079-.484-.476-1.121-.727-1.895-.727m45.211.723c-.442-.48-1.055-.723-1.81-.723-.735 0-1.333.242-1.778.723-.438.442-.637 1.106-.637 1.954v9.524l-6.957-9.684-.649-.946a5.635 5.635 0 00-.672-.809 3.036 3.036 0 00-.864-.547c-.762-.321-1.911-.301-2.802.23a2.704 2.704 0 00-1.082 1.176c-.184.41-.254.949-.254 1.633v14.499c0 .832.215 1.489.664 1.95.457.481 1.063.731 1.794.731.735 0 1.352-.254 1.802-.715.457-.453.684-1.118.684-1.966v-9.336l6.777 9.559c.219.297.438.594.664.887.258.316.528.594.809.828.317.254.649.446 1.008.563.356.121.758.18 1.184.18 1.04 0 2.771-.387 2.771-2.97V27.487c.001-.847-.226-1.512-.652-1.954M329.076 64.415c.317-.293.496-.774.496-1.508 0-2.095-.973-4.412-2.704-6.19a9.784 9.784 0 00-7.125-3.017c-2.88 0-5.311 1.165-7.043 2.97a9.959 9.959 0 00-2.743 6.855c0 2.814 1.04 5.245 2.822 6.984 1.782 1.724 4.346 2.759 7.433 2.767 3.072.004 6.644-1.231 8.129-2.696.5-.485.758-.973.758-1.415 0-.457-.238-.953-.602-1.325-.375-.359-.864-.594-1.348-.594-.567-.016-1.45.473-2.513 1.016-1.059.528-2.349 1.102-3.9 1.102-1.376 0-2.701-.316-3.732-.993a4.311 4.311 0 01-1.993-3.087l-.059-.387h12.502c.817-.009 1.317-.184 1.622-.482m-14.179-2.72c.27-2.352 2.13-4.307 4.846-4.307 1.407 0 2.564.461 3.392 1.239.836.79 1.337 1.86 1.497 3.068h-9.735zm27.102 6.147c-.915-.832-1.395-1.782-1.524-2.759.301-.043.496-.086.496-.086 2.974-.426 5.397-2.111 5.397-5.069 0-4.209-2.775-6.062-7.258-6.062h-5.135c-1.458 0-2.239.801-2.239 2.087v15.082c0 1.348.934 2.099 2.181 2.099 1.254 0 2.193-.75 2.193-2.099v-5.819h.035c.246 1.931 1.184 3.803 2.892 5.366 1.512 1.38 4.936 3.619 6.742 1.935.742-.676.86-1.743.098-2.446-.849-.779-2.147-.646-3.878-2.229m-5.889-5.523v-4.744h3.001c1.595 0 2.701.829 2.701 2.353 0 1.508-1.106 2.392-2.701 2.392h-3.001zm-28.523-7.156c-.657-.543-1.458-.926-2.345-1.153-.883-.239-2.107-.352-3.728-.352h-5.245c-1.04 0-1.805.223-2.329.668-.52.449-.793 1.173-.793 2.13v14.319c0 .864.246 1.552.703 2.029.485.489 1.126.731 1.888.731.743 0 1.364-.242 1.864-.739.473-.489.711-1.173.711-2.048v-4.756h3.201c2.63 0 4.639-.535 5.995-1.587 1.395-1.059 2.095-2.638 2.095-4.678 0-.946-.168-1.81-.504-2.583a5.468 5.468 0 00-1.513-1.981m-3.201 4.643c0 .571-.137 1.036-.406 1.364-.274.343-.661.574-1.2.739-.594.16-1.352.254-2.255.254h-2.212v-4.686h2.212c2.071 0 2.904.367 3.22.665.43.421.641.965.641 1.664m59.058-6.469c-.766 0-1.384.247-1.853.723-.457.457-.68 1.145-.68 2.028v9.098c0 1.45-.297 2.528-.868 3.204-.543.641-1.524.973-2.919.973-1.024 0-1.829-.168-2.368-.496-.524-.321-.899-.755-1.11-1.337-.231-.641-.344-1.454-.344-2.419v-9.024c0-.88-.227-1.556-.684-2.017-.481-.489-1.106-.735-1.888-.735-.758 0-1.391.247-1.852.735-.457.461-.68 1.137-.68 2.017v8.824c0 1.438.16 2.681.504 3.717.348 1.067.914 1.97 1.665 2.657.758.696 1.747 1.212 2.935 1.544 1.149.309 2.536.477 4.107.477 1.325 0 2.532-.156 3.541-.449a7.345 7.345 0 002.72-1.466c.911-.786 1.544-1.712 1.872-2.752.317-1 .473-2.251.473-3.728v-8.824c0-.895-.238-1.571-.7-2.032-.484-.476-1.105-.718-1.871-.718m16.831 3.787c-.246-.594-.438-1.071-.606-1.434a5.385 5.385 0 00-.637-1.083 3.087 3.087 0 00-1.09-.91c-.907-.469-2.396-.485-3.334 0a3.18 3.18 0 00-1.09.922 7.08 7.08 0 00-.711 1.294l-5.608 13.143a16 16 0 00-.461 1.153 2.868 2.868 0 00-.172.926c0 .571.258 1.083.754 1.52.496.43 1.075.649 1.727.649.766 0 1.348-.227 1.724-.676.293-.367.633-1.016 1.02-1.989l.809-2.024h7.363l.825 1.997.074.176c.113.239.242.512.387.813.195.41.379.723.563.934.203.239.45.422.754.559.305.145.657.211 1.055.211.692 0 1.286-.227 1.774-.676.496-.449.743-.962.743-1.517 0-.485-.219-1.188-.657-2.157l-5.206-11.831zm-1.802 7.703h-4.412l2.192-5.616 2.22 5.616zm24.411-11.49c-.735 0-1.317.242-1.759.711-.418.438-.625 1.091-.625 1.919v9.258l-6.757-9.435-.227-.321c-.145-.199-.27-.398-.414-.594a4.797 4.797 0 00-.657-.781 2.818 2.818 0 00-.84-.551c-.762-.317-1.888-.285-2.736.227-.485.289-.856.672-1.071 1.161-.168.403-.258.922-.258 1.594v14.156c0 .817.215 1.454.645 1.911.453.473 1.063.716 1.786.716.703 0 1.298-.239 1.755-.704.449-.453.664-1.098.664-1.923v-9.083l6.597 9.294c.199.281.399.555.657.872.234.309.5.582.789.813.285.246.621.434.989.559.344.114.747.172 1.161.172 1.012 0 2.708-.383 2.708-2.916V55.967c0-.841-.211-1.481-.633-1.931-.445-.457-1.043-.699-1.774-.699m22.343 15.617l-5.21-11.83a50.255 50.255 0 00-.61-1.434 5.32 5.32 0 00-.633-1.087 3.162 3.162 0 00-1.102-.906c-.911-.473-2.4-.485-3.326 0-.442.23-.825.547-1.087.922-.258.355-.489.77-.707 1.294l-5.616 13.147c-.219.489-.367.875-.465 1.149-.105.316-.16.629-.16.926 0 .571.258 1.083.746 1.52.489.43 1.075.649 1.72.649.774 0 1.352-.227 1.727-.68.293-.364.625-1.012 1.016-1.986l.817-2.024h7.359l.836 1.997c.113.281.273.617.453.988.188.418.383.727.563.934.192.235.45.422.747.567.313.145.664.203 1.067.203.684 0 1.282-.227 1.766-.676.492-.449.735-.962.735-1.517.001-.487-.21-1.187-.636-2.156m-7.016-4.127h-4.405l2.177-5.616 2.228 5.616zm53.984 2.399c-.571-.011-1.446.481-2.505 1.024-1.067.539-2.364 1.102-3.912 1.102-1.391 0-2.704-.312-3.74-.993a4.333 4.333 0 01-1.993-3.099l-.062-.387h12.537c.813 0 1.309-.18 1.63-.469.317-.305.477-.786.477-1.528 0-2.095-.965-4.416-2.7-6.195-1.735-1.789-4.174-3.028-7.14-3.028-2.888 0-5.331 1.161-7.058 2.978a9.973 9.973 0 00-2.747 6.866c0 2.826 1.032 5.268 2.818 6.996 1.81 1.743 4.358 2.775 7.457 2.779 3.068.008 6.652-1.228 8.16-2.701.5-.489.743-.969.743-1.415 0-.461-.219-.957-.61-1.329-.378-.366-.863-.601-1.355-.601m-7.41-9.872c1.407-.004 2.575.461 3.4 1.255.836.774 1.34 1.852 1.505 3.06h-9.766c.28-2.353 2.133-4.319 4.861-4.315m-14.665-1.887a7.292 7.292 0 00-2.912-1.442c-1.036-.246-2.267-.367-3.713-.367h-5.315c-1.024 0-1.794.242-2.29.696-.489.461-.75 1.168-.75 2.106v13.612c0 .653.066 1.18.199 1.602.148.5.477.891.977 1.161.449.254 1.106.383 1.946.383h5.327c.942 0 1.798-.051 2.583-.165a9.552 9.552 0 002.204-.614 7.637 7.637 0 001.915-1.161 8.438 8.438 0 001.802-2.11 9.67 9.67 0 001.036-2.631c.211-.957.32-2.017.32-3.158.001-3.504-1.121-6.169-3.329-7.912m-1.888 7.898c0 2.431-.621 4.151-1.864 5.12a3 3 0 01-.891.477 4.681 4.681 0 01-1.079.223c-.36.039-.879.055-1.528.055h-2.56V57.632h2.146c1.196 0 2.208.113 3.037.352.754.207 1.376.711 1.927 1.52.543.832.812 2.13.812 3.861m-61.981 31.752c.297-.285.473-.762.473-1.489 0-2.06-.961-4.338-2.658-6.093a9.682 9.682 0 00-7.015-2.974c-2.829.008-5.221 1.145-6.941 2.931a9.852 9.852 0 00-2.701 6.738c0 2.778 1.024 5.182 2.787 6.882 1.747 1.692 4.272 2.724 7.324 2.728 2.998 0 6.527-1.212 8.008-2.658.489-.485.735-.954.735-1.395 0-.449-.223-.938-.598-1.294-.367-.367-.852-.594-1.321-.594-.571-.012-1.423.465-2.47 1.004-1.055.524-2.321 1.075-3.853 1.075-1.36 0-2.646-.301-3.67-.969-1.02-.66-1.751-1.688-1.958-3.044l-.059-.379h12.315c.793-.004 1.285-.176 1.602-.469m-13.98-2.681c.281-2.309 2.103-4.244 4.78-4.236 1.376-.008 2.521.454 3.338 1.219.813.778 1.313 1.829 1.481 3.017h-9.599zm-66.648 6.686c-.539 0-1.012.192-1.548.426-.758.317-1.622.668-2.958.668-3.494 0-5.069-2.775-5.069-5.518 0-2.833 1.575-5.679 5.069-5.679 1.348 0 2.146.293 2.857.551.512.187.954.352 1.481.352 1.165 0 2.032-.86 2.032-1.997 0-2.505-4.17-3.173-6.37-3.173-5.827 0-10.036 4.15-10.036 9.864 0 5.721 4.209 9.872 10.036 9.872 2.47 0 6.656-.703 6.656-3.338-.001-.726-.724-2.028-2.15-2.028m59.34 0c-.547 0-1.024.199-1.559.426-.758.317-1.61.668-2.951.668-3.506 0-5.077-2.775-5.077-5.518 0-2.833 1.571-5.679 5.077-5.679 1.352 0 2.15.293 2.849.551.508.187.957.352 1.489.352 1.137 0 2.036-.872 2.036-1.997 0-2.505-4.17-3.173-6.374-3.173-5.815 0-10.04 4.15-10.04 9.864 0 5.721 4.225 9.872 10.04 9.872 2.466 0 6.656-.703 6.656-3.338-.001-.726-.724-2.028-2.146-2.028m38.219 1.946c-.856-.786-2.157-.645-3.889-2.224-.911-.836-1.38-1.79-1.513-2.767.301-.051.496-.082.496-.082 2.97-.422 5.389-2.114 5.389-5.073 0-4.209-2.767-6.065-7.25-6.065h-5.139c-1.45 0-2.243.801-2.243 2.099v15.078c0 1.344.938 2.091 2.181 2.091 1.266 0 2.2-.747 2.2-2.091v-5.815h.031c.238 1.931 1.184 3.799 2.896 5.362 1.512 1.383 4.94 3.611 6.742 1.938.744-.689.861-1.756.099-2.451m-9.767-7.758v-4.744h3.001c1.595 0 2.697.832 2.697 2.357 0 1.505-1.102 2.388-2.697 2.388h-3.001zm-73.972-9.584c.469 0 .543 0 .86-.117.109-.039.262-.09.547-.184l3.345-1.157c1.055-.321 1.61-1.028 1.61-2.032 0-.993-.942-2.134-2.165-2.134-.41 0-.813.117-1.348.301l-3.595 1.282-.254.117c-.688.324-1.133.91-1.133 1.493-.001 1.157.878 2.431 2.133 2.431m3.66 4.485c-.258-.614-.461-1.098-.629-1.469a5.462 5.462 0 00-.649-1.118 3.34 3.34 0 00-1.114-.915c-.473-.25-1.028-.367-1.704-.367-.657 0-1.239.117-1.696.367a3.242 3.242 0 00-1.126.938 8.104 8.104 0 00-.707 1.321l-5.757 13.464a17.96 17.96 0 00-.473 1.18 2.952 2.952 0 00-.168.942c0 .59.266 1.11.766 1.551a2.558 2.558 0 001.751.668c.793 0 1.38-.234 1.759-.696.301-.371.645-1.032 1.043-2.032l.848-2.079h7.551l.84 2.044c.129.293.293.634.477 1.02.207.441.391.742.575.953.211.246.465.434.77.579.313.137.668.211 1.075.211.7 0 1.317-.234 1.81-.688.5-.469.754-.985.754-1.555 0-.496-.215-1.196-.668-2.196l-5.328-12.123zm-1.825 7.898h-4.549l2.247-5.795 2.302 5.795zm24.747-11.77c-.743 0-1.337.242-1.778.719-.426.449-.645 1.11-.645 1.962v9.524l-6.953-9.692c-.215-.321-.442-.641-.649-.942a6.208 6.208 0 00-.672-.805 3.014 3.014 0 00-.864-.555c-.77-.321-1.919-.289-2.802.234-.5.305-.856.688-1.079 1.18-.18.411-.258.95-.258 1.626v14.503c0 .828.215 1.489.653 1.95.473.484 1.075.727 1.821.727.723 0 1.321-.238 1.786-.711.457-.461.684-1.122.684-1.966v-9.341l6.769 9.551c.219.305.446.598.684.895.223.305.5.583.801.829.301.254.649.441 1.004.567a3.98 3.98 0 001.192.176c1.032 0 2.759-.387 2.759-2.97V87.02c0-.852-.219-1.512-.637-1.962-.448-.477-1.062-.719-1.816-.719" fill="#fff"/></svg>