<svg xmlns="http://www.w3.org/2000/svg" xmlns:xlink="http://www.w3.org/1999/xlink" width="275.337" height="96"><defs><path id="a" d="M-28.948 0h328.603v96H-28.948z"/></defs><clipPath id="b"><use xlink:href="#a" overflow="visible"/></clipPath><g clip-path="url(#b)"><defs><path id="c" d="M27.444 37.032s-1.692 2.749-2.018 5.221c0 0 7.256-3.442 11.386 4.103 0 0 2.031-2.487 1.941-5.37 0 0-1.941-5.064-6.952-5.064-1.254-.001-2.7.317-4.357 1.11"/></defs><clipPath id="d"><use xlink:href="#c" overflow="visible"/></clipPath><linearGradient id="e" gradientUnits="userSpaceOnUse" x1="-270.538" y1="855.488" x2="-269.663" y2="855.488" gradientTransform="scale(7.8637 -7.8637) rotate(4.192 11626.733 4166.694)"><stop offset="0" stop-color="#f4e6ef"/><stop offset=".178" stop-color="#e7cbdd"/><stop offset=".443" stop-color="#d9a6c3"/><stop offset=".678" stop-color="#cf8cb1"/><stop offset=".872" stop-color="#ca7da6"/><stop offset="1" stop-color="#c877a2"/></linearGradient><path clip-path="url(#d)" fill="url(#e)" d="M24.666 35.977l14.106-1.034.832 11.357-14.106 1.034z"/><defs><path id="f" d="M25.798 54.598l-13.384 5.834 2.999 6.337s8.591-3.835 13.466-6.302c0 0 14.919-7.206 9.874-19.482 0 0 .529 7.623-12.955 13.613"/></defs><clipPath id="g"><use xlink:href="#f" overflow="visible"/></clipPath><linearGradient id="h" gradientUnits="userSpaceOnUse" x1="-207.963" y1="957.192" x2="-207.087" y2="957.192" gradientTransform="scale(-27.7463 27.7463) rotate(38.38 1268.12 776.098)"><stop offset="0" stop-color="#f4e6ef"/><stop offset=".178" stop-color="#e7cbdd"/><stop offset=".443" stop-color="#d9a6c3"/><stop offset=".678" stop-color="#cf8cb1"/><stop offset=".872" stop-color="#ca7da6"/><stop offset="1" stop-color="#c877a2"/></linearGradient><path clip-path="url(#g)" fill="url(#h)" d="M56.348 56.831L24.512 82.045-.135 50.925 31.7 25.711z"/><defs><path id="i" d="M19.994 57.13l5.06-2.208c-1.998-10.523 2.352-17.826 2.39-17.89-.107.048-9.903 4.471-7.45 20.098"/></defs><clipPath id="j"><use xlink:href="#i" overflow="visible"/></clipPath><linearGradient id="k" gradientUnits="userSpaceOnUse" x1="-277.47" y1="930.418" x2="-276.595" y2="930.418" gradientTransform="rotate(-85.163 -10069.829 4943.964) scale(15.6784)"><stop offset="0" stop-color="#f4e6ef"/><stop offset=".178" stop-color="#e7cbdd"/><stop offset=".443" stop-color="#d9a6c3"/><stop offset=".678" stop-color="#cf8cb1"/><stop offset=".872" stop-color="#ca7da6"/><stop offset="1" stop-color="#c877a2"/></linearGradient><path clip-path="url(#j)" fill="url(#k)" d="M27.373 57.962l1.759-20.787-11.521-.974-1.759 20.786z"/><defs><path id="l" d="M21.757 63.88c1.804 4.489 7.338 9.829 16.981 13.59 2.132 0 6.127-.804 6.127-.804-10.677-6.078-15.277-9.363-17.847-15.275-1.663.81-3.524 1.683-5.261 2.489"/></defs><clipPath id="m"><use xlink:href="#l" overflow="visible"/></clipPath><linearGradient id="n" gradientUnits="userSpaceOnUse" x1="-175.1" y1="1012.151" x2="-174.225" y2="1012.151" gradientTransform="rotate(59.153 6754.65 5633.579) scale(8.4485)"><stop offset="0" stop-color="#f4e6ef"/><stop offset=".178" stop-color="#e7cbdd"/><stop offset=".443" stop-color="#d9a6c3"/><stop offset=".678" stop-color="#cf8cb1"/><stop offset=".872" stop-color="#ca7da6"/><stop offset="1" stop-color="#c877a2"/></linearGradient><path clip-path="url(#m)" fill="url(#n)" d="M14.679 65.618l13.153 22.024 24.111-14.399L38.79 51.219z"/><defs><path id="o" d="M-425.178-115.827h721.544V1450.82h-721.544z"/></defs><clipPath id="p"><use xlink:href="#o" overflow="visible"/></clipPath><path d="M0 49.274h2.302v.72c0 1.815.949 2.56 3.481 2.56h5.298c3.712 0 4.894-.142 4.894-2.33v-.116c0-1.412-.403-2.188-3.368-2.188H4.978c-3.482 0-4.779-1.123-4.779-3.915v-.863c0-2.39 1.352-3.713 7.456-3.713h3.8c5.584 0 6.361 1.613 6.361 3.683v.778h-2.302v-.144c0-2.247-1.496-2.303-4.203-2.303H6.993c-3.54 0-4.317.346-4.317 2.014v.547c0 1.21.403 1.901 2.994 1.901h6.533c3.714 0 6.248.374 6.248 4.346v.059c0 4.115-3.801 4.26-6.822 4.26H7.081c-3.657 0-7.081 0-7.081-4.403v-.893zm41.958-9.615h2.303v2.533h.057c.922-2.274 2.85-2.764 5.931-2.764h3.713c4.635 0 6.102 2.332 6.102 4.979v9.931h-2.476v-9.325c0-2.161-.604-3.571-5.41-3.571h-.635c-5.784 0-7.108 1.095-7.108 4.548v8.348h-2.476V39.659zm20.459 5.729c0-4.835 3.426-5.959 8.118-5.959h3.541c4.691 0 8.117 1.124 8.117 5.959v3.225c0 4.835-3.426 5.959-8.117 5.959h-3.541c-4.692 0-8.118-1.124-8.118-5.959v-3.225zm17.302.144c0-3.427-2.017-4.087-4.894-4.087h-5.038c-2.879 0-4.891.661-4.891 4.087v2.936c0 3.426 2.012 4.087 4.891 4.087h5.038c2.877 0 4.894-.661 4.894-4.087v-2.936zm3.41-5.873h6.017l4.489 10.362 4.492-10.362h6.016L97.09 54.34h-6.908zm27.857-1.841h-5.531v-4.32h5.531v4.32zm0 16.523h-5.531V39.66h5.531v14.681zm1.967-8.666c0-3.743.864-6.245 7.858-6.245h1.642c2.272 0 4.606.631 4.95 2.936h.06v-8.868h5.526V54.34h-5.182v-2.705h-.058c-.605 1.812-1.986 2.936-5.323 2.936h-1.615c-6.994 0-7.858-2.504-7.858-6.245v-2.651zm5.354 2.188c0 1.641.26 2.561 2.907 2.561h3.252c2.186 0 3.34-.488 3.34-2.704v-1.44c0-2.215-1.154-2.705-3.34-2.705h-3.252c-2.647 0-2.907.92-2.907 2.561v1.727zm16.417 1.324c0-4.001 2.762-4.231 8.117-4.231 3.022 0 4.691.088 5.756 1.181v-1.295c0-1.44-.431-1.958-2.589-1.958h-3.253c-1.614 0-2.072.145-2.13 1.181h-5.354c0-3.973 1.957-4.635 6.619-4.635h6.42c3.796 0 5.816 1.813 5.816 5.267v9.644h-5.238v-1.67c-1.525 1.581-2.105 1.9-4.865 1.9h-3.774c-3.366.029-5.524-.72-5.524-4.174v-1.21zm9.845 1.928c3.8 0 4.144-.574 4.144-1.552 0-1.095-.317-1.497-3.368-1.497H142.9c-2.332 0-2.822.516-2.822 1.726 0 .951.746 1.323 2.906 1.323h1.585z" clip-path="url(#p)" fill="#6385bb"/><path d="M156.668 40.066h-.866v2.385h-.338v-2.385h-.886v-.254h2.09v.254zm2.018 1.937l.805-2.19h.51v2.638h-.297v-2.385l-.896 2.385h-.245l-.948-2.385v2.385h-.295v-2.638h.499l.867 2.19z" clip-path="url(#p)" fill="#232221"/><path d="M259.958 37.279c-2.299 0-4.046.01-6.513.525-10.115 2.109-17.573 8.05-17.575 13.697-.001.431.043.862.131 1.287.732 3.508 4.398 6.001 9.489 7.012 1.076-4.151 3.551-13.652 3.551-13.652.486-1.88.756-2.605 1.237-3.423.626-1.057 1.629-1.93 3.034-2.057.764-.069 1.902.026 2.539.473.602.422.678.864.659 1.265-.042.832-.55 1.388-1.363 1.388-.832 0-1.093-.612-1.096-1.014-.004-.549.321-.634.317-1.039-.003-.208-.192-.533-.712-.452-.643.101-1.177.61-1.525 1.5a7.937 7.937 0 00-.307.956l-.64 2.484h4.161c-.547 1.977-1.471 5.491-1.731 6.455h-2.121l1.465-5.462h-1.818l-3.227 12.42a28.65 28.65 0 003.263.176 33.83 33.83 0 006.824-.73c9.819-2.049 17.33-7.857 17.338-13.342 0-.405-.04-.81-.125-1.209-.937-4.495-7.036-7.098-14.629-7.246h-.108m-18.619 5.711h2.59c3.788 0 4.055 1.933 3.734 3.31-.397 1.703-1.418 2.918-5.766 2.925l-.933 3.448h-2.124l2.621-9.682m19.072 7.475c0-2.339 2.106-4.334 4.357-4.334 1.119 0 2.087.52 2.087 1.405 0 .919-.732 1.864-1.838 2.222-.688.231-1.383.367-2.55.367-.028.245-.017.34-.017.472 0 .624.53 1.157 1.269 1.157.991 0 1.925-.909 2.036-1.019l.368.984a3.888 3.888 0 01-1.003.768 4.305 4.305 0 01-2.011.474c-1.609.002-2.698-1.004-2.698-2.496m11.785-4.361c1.172 0 1.347.697 1.347 1.238 0 .634-.447 1.069-.96 1.069-.39 0-.561-.156-.63-.225-.178-.179-.208-.362-.229-.514-.025-.18-.084-.354-.289-.386-.298-.048-.54.072-.792.296-.341.303-.632.782-.843 1.243a5.946 5.946 0 00-.317.833l-.819 3.012h-2.126l1.743-6.455h2.06l-.37 1.293c.486-.585 1.392-1.404 2.225-1.404m-16.539.112h5.319c-.615 2.029-3.507 3.676-4.306 5.213h3.346l-.333 1.242h-5.442c0-2.064 3.454-4.45 4.111-5.462h-2.964l.269-.993zm-12.456-2.235l-1.148 4.246c1.687-.004 2.746-.297 3.266-1.966.425-1.367.258-2.28-1.747-2.28h-.371zm20.51 3.531c-.529.406-.934 1.043-1.094 1.756.963-.032 1.506-.177 2.006-.568.449-.352.65-.749.65-1.082 0-.184-.114-.472-.63-.472-.235 0-.618.123-.932.366" clip-path="url(#p)" fill="#669ccd"/><defs><path id="q" d="M264.35 47.526c-.529.405-.935 1.043-1.093 1.756.962-.033 1.504-.177 2.005-.569.448-.352.649-.749.649-1.082 0-.185-.112-.472-.629-.472-.234.001-.619.124-.932.367m-20.51-3.53c-.305 1.126-.734 2.719-1.148 4.246 1.686-.004 2.746-.297 3.267-1.965.424-1.367.258-2.281-1.747-2.281h-.372zm12.456 2.235h5.32c-.613 2.029-3.506 3.677-4.305 5.213h3.346l-.333 1.242h-5.445c0-2.065 3.456-4.449 4.112-5.462h-2.964l.269-.993zm4.755 4.248c0-2.339 2.105-4.335 4.356-4.335 1.119 0 2.086.52 2.086 1.406 0 .918-.731 1.862-1.836 2.222-.688.23-1.384.366-2.551.366-.029.246-.018.341-.018.473 0 .624.531 1.156 1.27 1.156.991 0 1.925-.907 2.034-1.019l.37.985a3.878 3.878 0 01-1.002.768 4.313 4.313 0 01-2.013.474c-1.608.002-2.696-1.004-2.696-2.496m11.785-4.36c1.172 0 1.348.697 1.348 1.237 0 .634-.448 1.07-.961 1.07-.39 0-.562-.157-.63-.225-.178-.179-.208-.363-.229-.514-.025-.18-.084-.353-.29-.387-.297-.047-.539.073-.792.297-.34.303-.63.782-.843 1.242-.145.318-.254.62-.315.833l-.82 3.013h-2.125l1.742-6.455h2.061l-.37 1.292c.486-.585 1.39-1.403 2.224-1.403m-30.858-3.116h2.469c3.787 0 4.054 1.933 3.733 3.31-.396 1.703-1.418 2.918-5.765 2.925-.43 1.584-.8 2.954-.933 3.447h-2.125l2.621-9.682h-.122.122zm11.466-5.199c-10.114 2.11-17.572 8.05-17.575 13.698 0 .431.043.862.131 1.287.732 3.508 4.398 6 9.489 7.012 1.077-4.151 3.551-13.652 3.551-13.652.486-1.88.756-2.605 1.237-3.423.626-1.057 1.629-1.931 3.034-2.058.765-.068 1.902.027 2.54.475.602.422.678.863.658 1.265-.041.83-.549 1.388-1.362 1.388-.833 0-1.093-.613-1.096-1.015-.005-.549.321-.633.316-1.04-.001-.207-.19-.532-.711-.451-.642.101-1.178.61-1.527 1.499-.08.207-.18.483-.305.956l-.64 2.484h4.16c-.544 1.977-1.47 5.49-1.729 6.455h-2.121l1.464-5.462h-1.818l-3.228 12.421c1.046.118 2.136.179 3.264.177a33.923 33.923 0 006.825-.731c9.818-2.049 17.33-7.857 17.337-13.341 0-.407-.04-.811-.124-1.21-.938-4.495-7.036-7.098-14.629-7.246h-.109l-.515-.014c-2.302.001-4.049.012-6.517.526"/></defs><clipPath id="r"><use xlink:href="#q" overflow="visible"/></clipPath><path clip-path="url(#r)" fill="#669ccd" d="M235.899 37.292h39.719v23.086h-39.719z"/><defs><path id="s" d="M264.353 47.514c-.528.406-.934 1.044-1.093 1.757.963-.032 1.505-.178 2.006-.569.449-.352.649-.748.649-1.082 0-.185-.113-.472-.629-.472-.234.001-.62.125-.933.366m-20.509-3.529l-1.149 4.246c1.687-.004 2.746-.297 3.266-1.966.426-1.367.259-2.28-1.746-2.28h-.371zM256.3 46.22h5.319c-.615 2.029-3.507 3.677-4.306 5.212h3.346l-.332 1.242h-5.444c0-2.064 3.455-4.448 4.113-5.461h-2.964l.268-.993zm4.754 4.248c0-2.338 2.105-4.334 4.355-4.334 1.12 0 2.087.52 2.087 1.405 0 .92-.732 1.864-1.838 2.223-.686.229-1.382.366-2.55.366-.028.246-.017.34-.017.474 0 .623.531 1.155 1.269 1.155.992 0 1.927-.908 2.036-1.019l.368.985a3.899 3.899 0 01-1.001.769 4.328 4.328 0 01-2.013.473c-1.608 0-2.696-1.005-2.696-2.497m11.785-4.36c1.173 0 1.348.697 1.348 1.237 0 .635-.448 1.07-.961 1.07-.39 0-.561-.157-.629-.224-.181-.181-.21-.363-.23-.515-.025-.179-.084-.353-.29-.387-.297-.047-.54.073-.792.296-.34.303-.63.782-.843 1.243a6.242 6.242 0 00-.316.834l-.82 3.011h-2.124l1.741-6.454h2.061l-.369 1.293c.486-.587 1.39-1.404 2.224-1.404m-30.857-3.115h2.468c3.787 0 4.055 1.932 3.735 3.309-.397 1.704-1.419 2.919-5.766 2.925l-.933 3.447h-2.125l2.621-9.681h-.123.123zm18.495-5.71h-2.367c-1.496.032-2.894.143-4.662.512-9.748 2.033-17.027 7.623-17.546 13.079v1.232c.021.226.055.449.102.673.732 3.508 4.396 5.999 9.489 7.013 1.076-4.151 3.55-13.654 3.55-13.654.487-1.879.756-2.604 1.237-3.423.627-1.057 1.629-1.931 3.034-2.058.764-.067 1.902.029 2.539.475.602.422.679.863.66 1.265-.042.832-.55 1.388-1.362 1.388-.833 0-1.094-.612-1.097-1.013-.005-.55.32-.634.315-1.04-.001-.209-.191-.534-.711-.453-.641.102-1.178.612-1.526 1.5a8.324 8.324 0 00-.307.956l-.64 2.485h4.162c-.546 1.977-1.471 5.491-1.731 6.454h-2.121l1.465-5.461h-1.818l-3.228 12.422c1.045.118 2.135.178 3.264.175a33.927 33.927 0 006.825-.73c9.818-2.05 17.33-7.857 17.337-13.342 0-.405-.04-.81-.123-1.209-.939-4.496-7.037-7.098-14.63-7.246h-.11z"/></defs><clipPath id="t"><use xlink:href="#s" overflow="visible"/></clipPath><path d="M260.476 37.039h.172a35.494 35.494 0 00-7.201.76c-10.115 2.11-17.573 8.05-17.575 13.697-.001.432.044.862.131 1.287.732 3.509 4.398 6.001 9.489 7.012 1.076-4.151 3.551-13.652 3.551-13.652.486-1.879.756-2.605 1.237-3.422.626-1.058 1.629-1.931 3.034-2.058.765-.069 1.902.026 2.539.473.602.423.678.864.659 1.266-.042.831-.55 1.387-1.363 1.387-.833 0-1.093-.611-1.096-1.014-.004-.548.321-.634.318-1.039-.003-.208-.192-.533-.713-.452-.642.101-1.177.611-1.525 1.5a7.799 7.799 0 00-.306.956l-.64 2.484h4.16c-.546 1.978-1.471 5.491-1.73 6.455h-2.121l1.464-5.462h-1.818l-3.227 12.421c1.045.117 2.135.178 3.263.176 2.17-.004 4.474-.24 6.825-.731 9.819-2.049 17.33-7.856 17.337-13.342 0-.404-.04-.81-.124-1.209-.937-4.495-7.038-7.245-14.63-7.245h-.108m-18.619 5.71h2.59c3.789 0 4.055 1.933 3.734 3.31-.397 1.703-1.418 2.918-5.765 2.925l-.933 3.447h-2.125l2.621-9.682m19.071 7.476c0-2.339 2.107-4.334 4.358-4.334 1.118 0 2.086.521 2.086 1.405 0 .919-.731 1.864-1.837 2.222-.689.231-1.384.367-2.551.367-.027.245-.017.34-.017.473 0 .624.531 1.157 1.27 1.157.991 0 1.925-.909 2.035-1.02l.368.984a3.882 3.882 0 01-1.003.768 4.312 4.312 0 01-2.012.474c-1.607.002-2.697-1.003-2.697-2.496m11.787-4.36c1.172 0 1.347.697 1.347 1.238 0 .635-.447 1.069-.961 1.069-.39 0-.56-.156-.629-.225-.179-.179-.209-.361-.23-.514-.025-.179-.083-.353-.289-.386-.297-.048-.54.073-.792.296-.34.303-.631.782-.843 1.243a6.017 6.017 0 00-.316.833l-.819 3.012h-2.126l1.743-6.455h2.06l-.37 1.293c.485-.586 1.392-1.404 2.225-1.404m-16.54.112h5.319c-.614 2.029-3.506 3.677-4.306 5.213h3.346l-.333 1.242h-5.443c0-2.064 3.454-4.449 4.111-5.462h-2.964l.27-.993zm-12.456-2.235c-.305 1.126-.734 2.719-1.148 4.246 1.687-.004 2.746-.297 3.266-1.966.425-1.367.259-2.28-1.747-2.28h-.371zm20.509 3.53c-.529.406-.934 1.043-1.093 1.757.963-.033 1.505-.177 2.005-.569.449-.351.651-.748.651-1.082 0-.183-.114-.471-.631-.471-.234 0-.618.122-.932.365" clip-path="url(#t)" fill="#669ccd"/><path d="M172.606 49.746c-.067 0-.444-.017-.503-.024v1.859c0 .126-.05.201-.209.201h-.67c-.134 0-.201-.059-.201-.227v-5.344c0-.167.05-.226.209-.226h1.215c.888 0 1.541.167 1.952.637.268.31.419.737.419 1.189 0 1.298-.981 1.935-2.212 1.935zm-.068-2.923h-.436V48.9c.067 0 .444.008.494.008.713 0 1.131-.335 1.131-1.055.001-.762-.468-1.03-1.189-1.03zm6.833 4.959h-.402c-.436 0-.628-.21-.687-.494h-.017c-.21.31-.754.595-1.215.595-1.182 0-1.717-.972-1.717-2.062 0-1.449.871-2.211 1.809-2.211.444 0 .863.201 1.072.486l.018-.226c.008-.092.075-.151.176-.151h.586c.109 0 .176.059.176.185v2.907c0 .117.017.201.051.242.024.025.059.034.101.034h.066c.101 0 .151.033.151.143v.394c0 .1-.067.158-.168.158zm-1.215-2.915a1.07 1.07 0 00-.829-.427c-.511 0-.946.436-.946 1.315 0 .703.268 1.298.888 1.298.41 0 .763-.31.888-.569v-1.617zm4.513 2.822c-.26.109-.603.193-.938.193-.428 0-.796-.109-1.006-.353-.26-.293-.268-.637-.268-1.248v-1.868h-.394c-.159 0-.185-.033-.185-.209v-.318c0-.101.05-.167.15-.167h.428v-.913c0-.142.075-.184.209-.201l.604-.075h.042c.108 0 .159.059.159.184v1.005h.946c.101 0 .159.034.159.143v.394c0 .101-.067.159-.168.159h-.938v1.918c0 .251.017.436.108.569.075.109.192.176.394.176.21 0 .386-.05.536-.101.034-.008.059-.017.084-.017.059 0 .092.033.109.101l.083.419a.115.115 0 01.009.05c.003.084-.039.126-.123.159zm3.065-3.861l-.092.595c-.009.076-.051.109-.117.109h-.034a.96.96 0 00-.226-.025c-.285 0-.595.151-.805.402v2.664c0 .135-.059.21-.2.21h-.612c-.134 0-.201-.067-.201-.21V47.93c0-.167.084-.209.21-.209h.536c.134 0 .209.042.209.159l.009.268c.26-.327.544-.536 1.014-.536.066 0 .159.017.234.034.059.017.084.042.084.109-.001.023-.001.048-.009.073zm2.352 4.055c-1.365 0-1.993-.922-1.993-2.145 0-1.207.737-2.128 2.044-2.128 1.365 0 1.993.905 1.993 2.136 0 1.207-.737 2.137-2.044 2.137zm.042-3.477c-.745 0-.988.645-.988 1.315 0 .687.209 1.365.955 1.365.737 0 .988-.653.988-1.341 0-.685-.218-1.339-.955-1.339zm5.752 3.225a2.737 2.737 0 01-1.214.252c-1.291 0-2.003-.805-2.003-2.095 0-1.298.779-2.178 2.078-2.178.377 0 .771.076 1.122.235.067.033.101.05.101.117a.403.403 0 01-.017.101l-.109.444c-.017.075-.05.117-.1.117a.247.247 0 01-.093-.034 2.107 2.107 0 00-.804-.184c-.721 0-1.131.511-1.131 1.332 0 .804.368 1.356 1.089 1.356.36 0 .586-.066.879-.184.025-.009.06-.025.084-.025.051 0 .084.042.101.101l.109.368a.546.546 0 01.024.143c.001.067-.04.101-.116.134zm1.373-4.448c-.276 0-.57-.184-.57-.519s.276-.536.57-.536c.284 0 .561.192.561.527 0 .327-.285.528-.561.528zm.302 4.599h-.587c-.15 0-.218-.059-.218-.21v-3.66c0-.143.084-.193.218-.193h.587c.134 0 .209.042.209.193v3.66c0 .152-.068.21-.209.21zm4.756 0h-.604c-.15 0-.2-.075-.2-.218v-2.279c0-.46-.126-.787-.637-.787-.327 0-.729.176-.989.402v2.672c0 .143-.059.21-.201.21h-.611c-.125 0-.201-.067-.201-.201v-3.652c0-.134.059-.209.21-.209h.544c.118 0 .193.034.201.159l.009.218c.386-.31.871-.486 1.357-.486.938 0 1.323.586 1.323 1.499v2.455c0 .142-.051.217-.201.217zm5.032 0h-.402c-.436 0-.628-.21-.687-.494h-.017c-.21.31-.754.595-1.215.595-1.181 0-1.718-.972-1.718-2.062 0-1.449.872-2.211 1.81-2.211.444 0 .863.201 1.072.486l.018-.226c.008-.092.075-.151.176-.151h.586c.109 0 .176.059.176.185v2.907c0 .117.017.201.051.242.024.025.059.034.101.034h.066c.101 0 .151.033.151.143v.394c0 .1-.068.158-.168.158zm-1.215-2.915a1.07 1.07 0 00-.829-.427c-.511 0-.946.436-.946 1.315 0 .703.268 1.298.888 1.298.41 0 .763-.31.888-.569v-1.617zm5.535 2.915h-.545c-.134 0-.192-.067-.201-.168l-.017-.226c-.234.268-.703.494-1.139.494-1.215 0-1.768-.964-1.768-2.086 0-1.173.653-2.195 1.834-2.195.377 0 .771.151 1.006.394V46.11c0-.151.042-.209.176-.226l.62-.084.083-.008c.101 0 .135.042.135.167v5.612c.001.144-.083.211-.184.211zm-.829-2.957a1.059 1.059 0 00-.805-.411c-.679 0-.98.636-.98 1.324 0 .687.252 1.323.931 1.323.31 0 .687-.209.854-.419v-1.817zm3.817 3.058c-1.365 0-1.993-.922-1.993-2.145 0-1.207.737-2.128 2.044-2.128 1.365 0 1.993.905 1.993 2.136-.001 1.207-.738 2.137-2.044 2.137zm.042-3.477c-.745 0-.988.645-.988 1.315 0 .687.209 1.365.955 1.365.737 0 .988-.653.988-1.341 0-.685-.218-1.339-.955-1.339zm8.147 2.915a1.668 1.668 0 01-1.29.569c-.386 0-.771-.143-1.014-.394v1.877c0 .167-.075.218-.218.218h-.587c-.134 0-.201-.076-.201-.218v-5.462c0-.143.067-.193.201-.193h.503c.143 0 .218.034.227.159l.008.226c.243-.276.721-.486 1.173-.486.553 0 .938.209 1.215.511.36.394.527.979.527 1.566 0 .639-.192 1.217-.544 1.627zm-.754-2.546a.8.8 0 00-.688-.344c-.31 0-.695.201-.862.411v1.826c.167.226.502.41.82.41a.855.855 0 00.671-.31c.209-.26.302-.611.302-1.022 0-.393-.076-.737-.243-.971zm3.859 3.108c-1.365 0-1.993-.922-1.993-2.145 0-1.207.737-2.128 2.044-2.128 1.365 0 1.993.905 1.993 2.136 0 1.207-.737 2.137-2.044 2.137zm.042-3.477c-.745 0-.988.645-.988 1.315 0 .687.209 1.365.955 1.365.737 0 .988-.653.988-1.341.001-.685-.217-1.339-.955-1.339zm5.099-.578l-.092.595c-.009.076-.051.109-.117.109h-.034a.96.96 0 00-.226-.025c-.285 0-.595.151-.805.402v2.664c0 .135-.059.21-.201.21H227c-.134 0-.201-.067-.201-.21V47.93c0-.167.084-.209.21-.209h.536c.134 0 .209.042.209.159l.009.268c.26-.327.544-.536 1.014-.536.066 0 .159.017.234.034.059.017.084.042.084.109 0 .023 0 .048-.009.073z" fill="#669ccd"/></g></svg>