<svg xmlns="http://www.w3.org/2000/svg" xmlns:xlink="http://www.w3.org/1999/xlink" width="700" height="900"><path fill="#4d3221" d="M239.657 255.478h234.769v333.073H239.657z"/><path fill="#3d342c" d="M239.672 256.999h234.769V705.11H239.672z"/><path d="M426.225 204.313c14.992 27.777 3.406 51.869 3.357 80.393-.052 30.084 20.99 53.516 10.465 83.752-5.467 15.696-10.484 24.995-10.465 41.967.017 14.675 4.497 27.89 5.02 41.787 1.202 32.088-20.679 49.453-6.657 82.071 13.588 31.612 1.543 57.571 8.34 89.233 4.056 18.888 17.963 21.155 13.397 43.09-2.984 14.334-14.268 28.151 3.808 38.1 10.87 5.985 27.338.018 39.827 2.015 16.429 2.626 16.645 8.134 29.978-4.939 11.986-11.753 13.905-16.672 12.185-33.499-1.401-13.706 2.39-27.591.039-40.2-2.633-14.103-11.223-24.961-12.138-40.2-.856-14.248 5.239-26.663 1.629-40.153-4.019-15.011-12.042-23.415-8.33-40.333 3.155-14.381 8.158-22.657 5.025-38.438-2.841-14.312-8.514-29.389-10.089-43.513-1.659-14.879 5.27-28.393 3.057-43.588-2.309-15.85-4.166-24.146-.969-40.2 3.752-18.846-1.261-23.756-5.803-41.454-4.475-17.44 7.15-30.567 5.425-47.32-1.668-16.174-8.087-24.882-6.328-41.876 2.804-27.144-12.204-58.273-25.076-82.449-6.142-11.537-15.225-22.593-25.123-31.818-11.726-10.928-17.516-9.287-31.043 1.59-11.383 9.164-39.904 36.679-40.934 51.16-1.559 21.874 32.148 37.676 41.403 54.822zm-156.906 31.808c-.044 17.229 7.989 30.54 6.272 50.073-1.441 16.375-10.75 35.109-6.964 52.046 4.135 18.503 12.454 23.93 6.573 43.873-5.258 17.835-8.921 34.299-6.117 53.798 2.807 19.507 18.525 27.522 16.391 48.579-1.595 15.716-10.636 28.31-11.927 43.704-2.211 26.391 16.692 42.163 21.967 66.117 3.985 18.105-7.797 31.747-10.148 48.103-2.589 18.027 9.584 28.261 12.01 44.104 4.696 30.668-42.577 23.778-61.704 20.824-45.674-7.054-16.484-34.912-22.087-61.676-1.843-8.794-10.202-12.555-12.612-20.286-2.63-8.433.366-19.337 2.535-28.052 3.556-14.29 11.199-29.033 8.637-44.864-2.515-15.541-15.546-27.942-18.272-43.032-3.011-16.677 5.177-32.515 7.105-48.316 4.078-33.416-16.797-62.928-11.051-96.077 2.378-13.706 12.774-24.617 15.124-37.911 2.839-16.071-6.839-32.128-9.689-47.446-2.135-11.461-2.576-29.439.473-41.432 3.508-13.787 12.253-21.251 11.255-36.775-2.139-33.229 19.29-77.249 54.249-92.366.001.001 8.186 46.185 7.98 127.012z" fill="#3d342c"/><path fill="#d8ae9c" d="M397.987 510.146h-94.4l17.315-120.112h57.039z"/><path d="M342.574 438.915c11.449 2.535 19.659-3.202 30.238-6.147 4.336-1.207 8.647-.338 12.634 1.647l-7.407-44.381H321l-4.87 33.779c7.262 6.782 16.829 12.972 26.444 15.102z" fill="#f2e2d9"/><path d="M226.089 588.944s17.632-2.785 10.865 20.763c0 0-23.589 46.611 7.434 76.955 0 0 2.298 51.466 1.073 66.75-1.407 17.556-2.872 40.32-12.874 84.212-5.02 22.03-10.426 41.597-20.611 87.466h277.622c-10.185-45.868-21.367-64.058-25.152-91.186-3.489-25.01-8.058-57.076-7.31-68.306 1.437-21.594.051-78.936.051-78.936 31.023-30.344 7.434-76.955 7.434-76.955-6.767-23.548 22.319-21.155 22.319-21.155 10.774-9.177 4.858-21.14 4.858-21.14s18.601-48.69-5.582-63.853L376.78 475.706h-51.982l-109.437 27.853c-24.183 15.163-5.582 63.853-5.582 63.853s5.536 12.355 16.31 21.532z" fill="#d8ae9c"/><path d="M405.178 696.414c-43.615-22.281-48.135-51.42-45.745-76.341-5.484 3.43-7.525 7.601-13.622-5.116 4.191 36.674-.908 40.723-8.232 48.447-7.594 8.009-20.13 21.967-30.334 26.237-12.577 5.261-25.834 9.748-39.606 8.36-8.554-.866-15.615-7.29-23.136-10.764l7.893 39.567c10.646 1.237 21.327 1.568 31.657-2.312 12.533-4.708 24.124-11.308 34.103-20.296 10.075-9.076 21.584-28.582 37.408-24.232 6.762 1.857 12.025 9.361 16.111 14.461 6.912 8.637 14.111 16.496 23.447 22.65 10.916 7.194 23.061 13.488 36.112 15.593 5.869.947 11.368.753 16.77.02l7.493-37.565c-15.048 8.572-33.342 9.963-50.319 1.291z" opacity=".6" fill="#f2e2d9"/><path d="M236.953 609.706s-.94 2.905-2.125 8.013c-1.136 5.108-2.572 12.445-2.888 21.157-.083 4.351-.061 9.032.717 13.831.817 4.775 1.909 9.731 4.061 14.417 2.154 4.66 4.885 9.204 8.49 13.213l2.878 2.967c.775.734 1.906 1.668 2.95 2.456a48.292 48.292 0 006.826 4.485c9.635 5.229 20.826 7.007 30.987 4.892 5.086-.974 9.964-2.638 14.343-4.863 4.365-2.233 8.504-4.549 12.016-7.197 3.567-2.557 6.794-5.064 9.49-7.483 2.778-2.336 5.038-4.576 6.978-6.355l5.903-5.837s-1.556 2.586-4.5 7.029c-1.609 2.108-3.357 4.868-5.832 7.658-2.385 2.861-5.18 6.06-8.629 9.176-3.371 3.197-7.393 6.348-11.998 9.233a60.618 60.618 0 01-15.858 6.942c-5.903 1.573-12.383 2.051-18.861 1.376-6.492-.689-12.849-2.854-18.677-5.842a58.456 58.456 0 01-8.318-5.258 42.218 42.218 0 01-3.874-3.361l-3.251-3.504c-4.191-4.919-7.575-10.479-9.655-16.272-4.301-11.613-4.068-23.216-2.383-32.378 1.683-9.253 4.633-16.437 7.017-21.224 2.38-4.807 4.191-7.271 4.193-7.271zm228.888 0c.003 0 1.814 2.463 4.193 7.272 2.385 4.787 5.334 11.972 7.017 21.224 1.685 9.162 1.919 20.765-2.383 32.378-2.08 5.793-5.464 11.353-9.655 16.272l-3.251 3.504a42.351 42.351 0 01-3.874 3.361 58.456 58.456 0 01-8.318 5.258c-5.828 2.988-12.185 5.153-18.677 5.842-6.477.675-12.957.196-18.861-1.376a60.6 60.6 0 01-15.858-6.942c-4.605-2.885-8.627-6.036-11.998-9.233-3.45-3.116-6.244-6.315-8.629-9.176-2.476-2.79-4.223-5.55-5.833-7.658-2.944-4.443-4.5-7.029-4.5-7.029l5.903 5.837c1.941 1.779 4.201 4.019 6.978 6.355 2.696 2.419 5.923 4.927 9.491 7.483 3.511 2.648 7.65 4.964 12.015 7.197 4.38 2.225 9.258 3.889 14.344 4.863 10.16 2.115 21.351.336 30.987-4.892a48.407 48.407 0 006.826-4.485c1.043-.787 2.174-1.722 2.949-2.456l2.878-2.967c3.604-4.009 6.336-8.553 8.49-13.213 2.152-4.686 3.244-9.642 4.061-14.417.778-4.799.8-9.481.717-13.831-.317-8.712-1.752-16.049-2.888-21.157-1.184-5.109-2.124-8.014-2.124-8.014z" fill="#d8ac90"/><path d="M285.363 656.767c0 6.502-5.055 11.773-11.292 11.773-6.235 0-11.291-5.27-11.291-11.773 0-6.502 5.057-11.775 11.291-11.775 6.238 0 11.292 5.273 11.292 11.775z" fill="#d8ac90"/><circle cx="274.072" cy="656.767" r="4.372" fill="#cea48b"/><path d="M438.312 656.767c0 6.502-5.055 11.773-11.292 11.773-6.234 0-11.291-5.27-11.291-11.773 0-6.502 5.057-11.775 11.291-11.775 6.237 0 11.292 5.273 11.292 11.775z" fill="#d8ac90"/><circle cx="427.02" cy="656.767" r="4.372" fill="#cea48b"/><path d="M359.433 827.88c0 5.378-2.956 9.736-6.612 9.736-3.649 0-6.61-4.358-6.61-9.736 0-5.379 2.961-9.736 6.61-9.736 3.656 0 6.612 4.357 6.612 9.736zm-9.775-141.439c0 7.045.052 14.091.125 21.135.079 7.648.186 15.296.3 22.943.117 7.865.243 15.73.363 23.595.117 7.697.227 15.393.314 23.091.081 7.174.141 14.348.153 21.522l.002 2.458c0 .643 1 .644 1 0 0-7.045-.052-14.091-.125-21.135-.079-7.648-.186-15.296-.3-22.943-.117-7.865-.243-15.73-.363-23.595-.117-7.697-.227-15.393-.314-23.09-.081-7.174-.141-14.348-.153-21.522l-.002-2.458c0-.645-1-.646-1-.001zM248.461 504.169c.054.069.699-1.45 3.028-3.163 2.267-1.737 6.431-3.214 11.323-3.241 4.902-.167 10.445.734 16.101 2.044 2.832.65 5.737 1.327 8.61 2.125 2.905.736 5.857 1.487 8.806 2.235 6.006 1.649 11.932 3.599 17.337 5.916 5.403 2.304 10.315 4.914 14.197 7.753 3.901 2.773 6.735 5.945 7.869 8.627 1.19 2.714.513 4.397.628 4.346 0 0-.106-.368-.302-1.062-.243-.668-.753-1.561-1.57-2.52-1.656-1.926-4.743-3.916-8.774-5.744-4.039-1.818-8.956-3.577-14.319-5.251-5.369-1.654-11.155-3.325-16.984-4.814a226.025 226.025 0 01-17.281-5.138c-5.4-1.737-10.337-3.332-14.619-4.112-4.279-.788-7.866-.619-10.317.203a15.199 15.199 0 00-2.782 1.2c-.62.387-.951.596-.951.596zm201 0l-.949-.596a15.262 15.262 0 00-2.782-1.2c-2.451-.822-6.039-.991-10.318-.203-4.281.78-9.218 2.375-14.618 4.112a225.574 225.574 0 01-17.281 5.138c-5.83 1.489-11.615 3.16-16.984 4.814-5.364 1.673-10.281 3.433-14.319 5.251-4.031 1.828-7.118 3.818-8.774 5.744-.817.959-1.327 1.852-1.57 2.52l-.301 1.062c.115.051-.562-1.632.628-4.346 1.133-2.682 3.967-5.854 7.869-8.627 3.881-2.839 8.794-5.449 14.197-7.753 5.405-2.317 11.331-4.267 17.337-5.916 2.949-.748 5.901-1.499 8.806-2.235 2.873-.797 5.778-1.475 8.61-2.125 5.656-1.311 11.198-2.211 16.101-2.044 4.892.027 9.056 1.504 11.323 3.241 2.326 1.713 2.971 3.232 3.025 3.163z" fill="#d8ac90"/><path d="M487.546 299.469c0 8.676-7.034 15.713-15.708 15.713-8.676 0-15.713-7.037-15.713-15.713v-22.73c0-8.686 7.037-15.713 15.713-15.713 8.673 0 15.708 7.027 15.708 15.713v22.73z" fill="#d8ae9c"/><path d="M471.838 259.543a17.013 17.013 0 00-9.721 3.033v3.828c2.547-2.394 5.953-3.896 9.721-3.896 7.844 0 14.226 6.38 14.226 14.231v22.73c0 7.852-6.382 14.231-14.226 14.231a14.202 14.202 0 01-11.076-5.29 1.473 1.473 0 00-2.081-.226 1.484 1.484 0 00-.226 2.09 17.127 17.127 0 0013.382 6.389c9.481 0 17.195-7.714 17.195-17.195v-22.73c.001-9.49-7.713-17.195-17.194-17.195z" fill="#d8ae9c"/><path d="M483.709 282.195c.049-4.338-1.139-8.342-4.971-10.688-1.237-.765-3.69-.991-5.172-.913-7.616.353-12.248 13.74-4.436 15.144 3.19 2.679.648 6.507.648 6.507-2.255 3.376-5.226 8.205-3.936 12.445.77 2.522 3.543 3.611 5.997 3.965 1.958.294 2.144-1.354.54-1.973-1.212-.461-2.301-1.295-3.168-2.238a5.11 5.11 0 00-.277-.402c-.088-.098-.149-.196-.221-.294a3.042 3.042 0 01-.294-1.884c1.843 1.119 4.721 1.099 5.845-.766 1.215-2.041-.201-4.848.049-7.037.176-1.551.657-3.023 1.241-4.465 2.748-6.703-3.624-7.047-3.624-7.047-.954.147-1.668.294-2.269.461-3.379-1.443-.432-6.988 1.393-8.038 2.128-1.227 4.917-1.227 6.736.481 1.818 1.718 2.804 4.593 2.942 7.007a25.65 25.65 0 01-1.062 8.951c-.503 1.639-1.156 3.563-1.673 5.192-.577 1.865 1.406 2.404 1.98.559 1.224-3.925 3.671-9.736 3.732-14.967zm-268.023 17.274c0 8.676 7.032 15.713 15.713 15.713 8.671 0 15.708-7.037 15.708-15.713v-22.73c0-8.686-7.037-15.713-15.708-15.713-8.681 0-15.713 7.027-15.713 15.713v22.73z" fill="#d8ae9c"/><path d="M231.398 259.543c3.607 0 6.949 1.119 9.716 3.033v3.828c-2.547-2.394-5.952-3.896-9.716-3.896-7.852 0-14.231 6.38-14.231 14.231v22.73c0 7.852 6.379 14.231 14.231 14.231a14.2 14.2 0 0011.071-5.29 1.469 1.469 0 012.078-.226 1.48 1.48 0 01.228 2.09 17.125 17.125 0 01-13.377 6.389c-9.481 0-17.2-7.714-17.2-17.195v-22.73c.001-9.49 7.72-17.195 17.2-17.195z" fill="#d8ae9c"/><path d="M219.523 282.195c-.054-4.338 1.138-8.342 4.971-10.688 1.237-.765 3.69-.991 5.172-.913 7.616.353 12.248 13.74 4.436 15.144-3.189 2.679-.65 6.507-.65 6.507 2.255 3.376 5.227 8.205 3.938 12.445-.77 2.522-3.543 3.611-5.996 3.965-1.958.294-2.145-1.354-.54-1.973 1.208-.461 2.301-1.295 3.165-2.238a5.75 5.75 0 01.28-.402c.088-.098.147-.196.221-.294.314-.619.39-1.256.294-1.884-1.84 1.119-4.723 1.099-5.845-.766-1.217-2.041.202-4.848-.049-7.037-.177-1.551-.658-3.023-1.242-4.465-2.748-6.703 3.622-7.047 3.622-7.047.957.147 1.668.294 2.272.461 3.376-1.443.432-6.988-1.394-8.038-2.13-1.227-4.917-1.227-6.738.481-1.816 1.718-2.807 4.593-2.94 7.007a25.814 25.814 0 001.06 8.951c.506 1.639 1.158 3.563 1.673 5.192.579 1.865-1.398 2.404-1.983.559-1.219-3.925-3.668-9.736-3.727-14.967z" fill="#d8ae9c"/><path d="M467.073 273.873c0 83.344-55.937 150.897-115.47 150.897-61.166.19-115.475-67.553-115.475-150.897 0-83.354 44.678-150.922 115.475-150.922 70.8 0 115.47 67.567 115.47 150.922z" fill="#d8ae9c"/><path d="M244.491 270.204h-4.819c-2.988-13.976-15.043-10.492-15.043-10.492V173.62c3.32-77.151 67.129-89.783 67.307-89.822.989-.196 4.578-5.869 5.398-6.713 5.091-5.221 11.272-9.539 17.749-12.857 49.001-25.056 126.298-1.521 152.748 46.648 5.972 10.875 10.406 22.191 13.519 33.835 3.941 14.737 5.764 30.013 5.921 45.603.206 20.827.427 41.918-2.218 62.621-.059.447-1.73 10.045-1.345 10.163-15.227-4.741-14.609 7.253-14.609 7.253h-5.756c3.955-44.95-24.062-51.811-24.062-51.811-81.566-8.794-125.645-74.442-125.645-74.442s-69.199 1.58-69.145 126.106z" fill="#3d342c"/><path d="M322.746 240.57s-23.38-7.881-47.563 3.209c4.765-25.797 49.46-15.208 49.46-15.208s2.949.687 2.626 5.3c0 0-1.183 7.94-4.523 6.699zm54.522 0s26.597-7.881 50.78 3.209c-4.765-25.797-52.674-15.208-52.674-15.208s-2.949.687-2.626 5.3c.001 0 1.184 7.94 4.52 6.699z" fill="#3d342c"/><path d="M252.095 866.053s.893-.113 2.429-.196c1.536-.049 3.7-.169 6.281.078 1.315.265 2.78.567 4.313 1.011 1.565.378 3.209.844 4.694 1.752 1.504.851 3.231 1.563 4.635 2.738 1.409 1.168 2.795 2.429 4.174 3.69 1.136 1.421 2.27 2.846 3.318 4.291 1.091 1.423 1.779 2.957 2.603 4.389 1.605 2.91 2.621 5.673 3.529 8.114 1.766 4.806 2.368 8.362 2.368 8.362s-2.785-2.267-6.112-6.19c-1.723-1.87-3.438-4.345-5.398-6.657-.969-1.163-1.84-2.525-2.861-3.661-1.031-1.136-2.002-2.346-2.984-3.541-1.099-1.021-2.193-2.042-3.224-3.119-1.05-1.05-2.341-1.742-3.43-2.677-1.096-.957-2.252-1.686-3.42-2.299-1.151-.636-2.228-1.352-3.256-2.027-4.639-2.103-7.659-4.061-7.659-4.058zm197.384 0s-3.021 1.956-7.658 4.061c-1.028.675-2.105 1.391-3.256 2.027-1.168.613-2.324 1.342-3.421 2.299-1.089.935-2.38 1.627-3.43 2.677-1.031 1.077-2.125 2.098-3.224 3.119-.981 1.195-1.953 2.404-2.983 3.541-1.021 1.136-1.892 2.498-2.861 3.661-1.96 2.311-3.675 4.787-5.398 6.657-3.327 3.924-6.112 6.19-6.112 6.19s.601-3.555 2.368-8.362c.908-2.442 1.924-5.204 3.528-8.114.825-1.433 1.512-2.966 2.603-4.389 1.048-1.445 2.181-2.871 3.318-4.291 1.379-1.261 2.765-2.523 4.173-3.69 1.404-1.175 3.131-1.887 4.635-2.738 1.484-.908 3.128-1.374 4.694-1.752 1.533-.444 2.998-.746 4.313-1.011 2.581-.248 4.745-.128 6.281-.078 1.536.08 2.43.193 2.43.193z" fill="#d8ac90"/><path d="M240.531 908.859c7.545 1.19 15.153 17.34 23.857 10.156.866-.717 2.017-1.026 3.045-.392 2.905 1.786 14.457 7.871 13.39-1.6-.211-1.87 2.301-3.17 3.781-2.169 8.671-3.141 10.894-6.986 6.664-11.535l-2.115-2.88a84.85 84.85 0 01-3.8-5.18c-.739-1.05-.268-2.89.9-3.437 12.611-5.916.397-16.803-5.131-22.108-6.174-5.923-15.74-16.569-25.51-13.473-9.338 2.957-16.233 10.337-25.316 13.895-5.01 12.138-9.912 25.189-13.757 37.82 7.822 1.224 15.36-.457 23.992.903z" fill="#d8ae9c"/><g fill="#d8ae9c"><path d="M385.458 881.835c1.219.692 1.793 1.298 2.708 2.513 6.544 8.688 12.995 1.936 16.433 1.347 1.14-.196 2.052.424 3.057 1.153 9.398 6.816 12.112 3.584 17.222.279 7.978-5.16 9.866-10.595 13.056-8.566 11.969 7.614 31.468 10.288 41.37 2.657-8.051-17.756-10.241-22.794-15.648-33.072-11.617.186-24.17-22.49-35.607-19.911-7.538 1.7-19.695 5.035-26.908 7.589-4.941 1.752-11.091 3.428-13.865 7.962-3.621 4.135.063 7.906 3.753 11.066 1.915.422 2.708 2.957 1.196 4.198-6.333 5.203-25.954 11.896-6.767 22.785zm160.518-129.492L436.979 559.462c-3.977-40.892 39.204-51.32 39.204-51.32 20.345-2.463 30.778 22.264 30.778 22.264l91.323 209.357s-36.816 25.354-52.308 12.58z"/><path d="M460.74 861.357l-30.398-27.353s-4.059-5.407-14.187 0l-24.995 10.129s-6.08 6.752 3.379 8.784l26.936-9.039-22.882 13.093-16.891 12.837s-3.04 3.209 0 5.997c0 0 2.439 3.838 6.757.756l14.187-10.138 24.401-13.171-32.682 24.321s-4.049 2.159-1.642 6.202c0 0 1.953 3.17 6.713-.118l32.927-22.799-23.049 20.512s-2.37 5.752 6.08 5.074l19.254-14.192s7.093 15.457 23.388 9.716"/><path d="M580.496 707.444l17.789 32.319-140.249 142.205-3.798-26.46 79.63-142.015c-.001-.001 26.881-15.863 46.628-6.049z"/></g><path d="M238.817 911.796c8.131 1.282 16.331 18.687 25.711 10.945.933-.772 2.173-1.105 3.281-.423 3.131 1.925 15.58 8.483 14.43-1.724-.227-2.015 2.48-3.417 4.075-2.337 9.345-3.385 11.741-7.529 7.182-12.431l-2.279-3.104a91.966 91.966 0 01-4.096-5.582c-.796-1.131-.289-3.115.97-3.704 13.591-6.376.428-18.108-5.529-23.826-6.654-6.383-16.964-17.857-27.493-14.52-10.064 3.187-17.495 11.14-27.284 14.974-5.4 13.082-10.683 27.146-14.827 40.759 8.433 1.319 16.556-.492 25.859.973z" fill="#d8ae9c"/><g fill="#d8ae9c"><path d="M153.946 753.205L272.09 552.788c3.982-40.892-33.571-55.339-33.571-55.339-33.183-.162-39.817 24.188-39.817 24.188L101.73 740.475c.001 0 36.724 25.503 52.216 12.73z"/><path d="M122.002 710.271l-20.286 32.147L216.44 902.632l9.385-25.027-56.74-156.479s-24.288-29.034-47.083-10.855z"/></g><path d="M217.314 904.143c14.685 9.098 24.929-4.475 24.929-4.475l15.762 17.99c8.109 2.473 7.027-3.651 7.027-3.651l-18.113-24.978 27.27 29.325c3.945 4.235 6.531 1.561 6.531 1.561 3.219-3.435-.272-6.409-.272-6.409l-26.705-30.769 21.008 18.103 11.679 12.94c3.56 3.936 6.765.711 6.765.711 3.567-2.071 1.288-5.855 1.288-5.855l-13.745-16.164-19.543-17.691 24.372 14.599c9.667.049 5.182-7.852 5.182-7.852l-22.24-15.252c-8.732-7.459-13.858-3.047-13.858-3.047l-35.555 20.198-1.781 20.007" fill="#d8ae9c"/><path d="M349.75 374.115c-8.58-.961-14.723-4.413-15.174-4.673a2.576 2.576 0 012.567-4.467c.728.414 17.387 9.669 33.388-.561a2.578 2.578 0 013.559.781 2.577 2.577 0 01-.783 3.558c-8.298 5.307-16.705 6.13-23.557 5.362z" fill="#cf8267"/><path d="M374.686 275.146s4.033-15.963 20.836-15.962c14.51.001 20.853 11.979 20.835 21.31 0 0-7.899-16.38-22.08-15.215-10.827.888-19.591 9.867-19.591 9.867zm-47.626 0s-4.033-15.963-20.835-15.962c-14.51.001-20.854 11.979-20.835 21.31 0 0 7.898-16.38 22.079-15.215 10.827.888 19.591 9.867 19.591 9.867z" fill="#3d342c"/><path d="M220.45 890.655s154.315 50.018 255.891.098c0 0 21.105 23.764 24.098 92.108 1.99 45.446-3.939 111.996-16.469 199.311-31.371 218.622-12.434 205.943-9.327 274.508 1.561 34.446-8.729 146.027-22.155 183.724s-14.572 80.633-14.572 80.633 24.983 33.275 18.427 54.093c-6.556 20.818-47.175 17.174-47.175 17.174s-28.41-20.096-5.492-127.02c3.729-17.398-.512-55.379-.512-74.981 0-13.715-4.799-40.016-6.563-69.475-3.382-56.512 1.54-126.583-2.917-145.678-11.85-50.765-8.226-98.182-15.651-139.045-6.189-34.061-14.569-97.368-13.944-134.887.229-13.754 3.879-72.395-9.501-68.881-4.842 1.271-13.804-.633-15.47 9.413-3.049 18.391-2.499 50.378-4.741 81.332-4.401 60.769-10.981 128.945-15.464 163.099-4.219 32.14-18.923 92.05-16.398 124.367 4.864 62.255-3.252 128.433-6.192 185.931-.821 16.046-3.71 38.133-1.943 57.024 1.521 16.271 6.611 37.272 8.155 43.483 7.54 30.332 2.309 78.832 2.309 78.832s-13.656 46.078-55.799 2.053c-18.821-19.662 16.951-35.873 7.834-91.443-14.976-91.284-37.313-161.087-34.15-215.329 1.158-19.852 13.943-114.174 5.354-197.472-4.825-46.799-17.805-104.459-21.251-159.865-1.898-30.518-8.665-75.856-8.255-102.813.257-16.907 3.349-31.068 3.077-42.332-.618-25.638 18.796-77.962 18.796-77.962z" fill="#d8ae9c"/><path d="M212.694 901.375c15.373-1.729 27.552 6.586 44.769 11.359 20.401 5.655 47.197 8.186 85.139 9.39 29.719.943 59.142 1.315 81.568-4.17 30.371-7.428 49.787-21.125 57.304-16.869 3.58 2.027 13.104 25.035 10.775 28.308-5.077 7.133-46.3 45.217-61.782 54.315-15.482 9.097-67.811 57.943-67.811 57.943s-14.908 6.124-21.16 2.134c-26.089-16.65-77.791-62.013-94.021-72.12-14.563-9.07-39.502-19.274-43.308-23.929-5.236-6.406 8.527-46.361 8.527-46.361z" fill="#fff"/><path d="M347.09 280.494s26.009 48.02 6.091 37.981" opacity=".78" fill="none" stroke="#cf8267" stroke-width="4" stroke-linecap="round" stroke-miterlimit="10"/><ellipse cx="306.916" cy="275.33" rx="9.214" ry="14.305" fill="#3d342c"/><ellipse cx="397.176" cy="275.33" rx="9.214" ry="14.305" fill="#3d342c"/><path d="M381.719 335.714l-64.058-.595s7.412 25.391 36.887 25.299c26.619-.083 27.171-24.704 27.171-24.704z" fill="#3d342c"/><path d="M325.297 348.073c8.404 8.075 16.945 11.769 25.075 12.183 11.82.601 22.853-2.712 26.765-10.635-3.632-2.203-27.344.649-27.344.649s-20.212-4.521-24.496-2.197z" fill="#c15b63"/><circle cx="269.699" cy="631.955" r="92.088" opacity=".66" fill="#d8d7d7"/><g opacity=".56"><defs><circle id="a" cx="269.699" cy="631.955" r="92.088" opacity=".56"/></defs><clipPath id="b"><use xlink:href="#a" overflow="visible"/></clipPath><path clip-path="url(#b)" fill="#fff" stroke="#222120" stroke-width="4" stroke-miterlimit="10" d="M164.345 569.095h257.167m-257.167 21.921h257.167-257.167zm0 87.685h257.167m-257.167-87.685h257.167m-257.167 21.921h257.167-257.167zm0 0h257.167m-257.167 21.921h257.167-257.167zm0 0h257.167M164.345 656.78h257.167-257.167zm0 0h257.167m-257.167 21.921h257.167-257.167zm0 21.921h257.167-257.167z"/></g></svg>